<?xml version="1.0" standalone="no"?>
<!DOCTYPE svg PUBLIC "-//W3C//DTD SVG 1.1//EN" "http://www.w3.org/Graphics/SVG/1.1/DTD/svg11.dtd" >
<svg xmlns="http://www.w3.org/2000/svg" xmlns:xlink="http://www.w3.org/1999/xlink" version="1.1">
<metadata>
Created by FontForge 20170731 at Fri Oct 23 22:49:44 2020
 By Aleksey,,,
Copyright (c) 2016 by Frere-Jones Type LLC. All rights reserved. |DCNT
</metadata>
<defs>
<font id="RetinaNarrow-BookItalic" horiz-adv-x="0" >
  <font-face 
    font-family="Retina Narrow"
    font-weight="400"
    font-style="italic"
    font-stretch="semi-condensed"
    units-per-em="2048"
    panose-1="2 11 6 6 4 5 9 9 3 4"
    ascent="1638"
    descent="-410"
    x-height="1051"
    cap-height="1434"
    bbox="-426 -492 1847 1997"
    underline-thickness="102"
    underline-position="-358"
    slope="-12"
    unicode-range="U+000D-FB02"
  />
<missing-glyph horiz-adv-x="1433" 
d="M1229 1966v-2458h-1024v2458h1024zM717 879l321 985h-645zM307 1790v-2105l350 1052zM1126 -315v2105l-352 -1053zM393 -389h645l-321 985z" />
    <glyph glyph-name="fi" unicode="fi" horiz-adv-x="1060" 
d="M473 1051h236l-33 -154h-236l-194 -897h-178l194 897h-135l33 154h135l29 131q32 149 117 226t218 77q87 0 170 -27l-32 -145q-64 22 -119 22q-141 0 -182 -178zM942 1427h193l-39 -180h-193zM866 1051h181l-228 -1051h-180z" />
    <glyph glyph-name="fl" unicode="fl" horiz-adv-x="1060" 
d="M473 1051h236l-33 -154h-236l-194 -897h-178l194 897h-135l33 154h135l29 131q32 149 117 226t218 77q87 0 170 -27l-32 -145q-64 22 -119 22q-141 0 -182 -178zM958 1477h181l-320 -1477h-180z" />
    <glyph glyph-name="f_f" unicode="ff" horiz-adv-x="1245" 
d="M473 1051h236l-33 -154h-236l-194 -897h-178l194 897h-135l33 154h135l29 131q32 149 117 226t218 77q110 0 195 -33l-51 -141q-64 24 -125 24q-141 0 -182 -178zM1098 1051h235l-33 -154h-235l-195 -897h-178l195 897h-135l32 154h136l28 131q32 149 117.5 226t218.5 77
q110 0 195 -33l-52 -141q-65 24 -124 24q-69 0 -116 -45.5t-67 -132.5z" />
    <glyph glyph-name="f_f_i" unicode="ffi" horiz-adv-x="1685" 
d="M473 1051h236l-33 -154h-236l-194 -897h-178l194 897h-135l33 154h135l29 131q32 149 117 226t218 77q110 0 195 -33l-51 -141q-64 24 -125 24q-141 0 -182 -178zM1098 1051h235l-33 -154h-235l-195 -897h-178l195 897h-135l32 154h136l28 131q32 149 117.5 226t218.5 77
q87 0 170 -27l-33 -145q-64 22 -118 22q-69 0 -116 -45.5t-67 -132.5zM1565 1427h192l-39 -180h-192zM1489 1051h180l-227 -1051h-180z" />
    <glyph glyph-name="f_f_l" unicode="ffl" horiz-adv-x="1685" 
d="M473 1051h236l-33 -154h-236l-194 -897h-178l194 897h-135l33 154h135l29 131q32 149 117 226t218 77q110 0 195 -33l-51 -141q-64 24 -125 24q-141 0 -182 -178zM1098 1051h235l-33 -154h-235l-195 -897h-178l195 897h-135l32 154h136l28 131q32 149 117.5 226t218.5 77
q87 0 170 -27l-33 -145q-64 22 -118 22q-69 0 -116 -45.5t-67 -132.5zM1581 1477h180l-319 -1477h-180z" />
    <glyph glyph-name=".notdef" horiz-adv-x="1433" 
d="M1229 1966v-2458h-1024v2458h1024zM717 879l321 985h-645zM307 1790v-2105l350 1052zM1126 -315v2105l-352 -1053zM393 -389h645l-321 985z" />
    <glyph glyph-name=".null" 
 />
    <glyph glyph-name="nonmarkingreturn" horiz-adv-x="682" 
 />
    <glyph glyph-name="NULL" 
 />
    <glyph glyph-name="NULL" 
 />
    <glyph glyph-name="CR" unicode="&#xd;" horiz-adv-x="323" 
 />
    <glyph glyph-name="space" unicode=" " horiz-adv-x="323" 
 />
    <glyph glyph-name="exclam" unicode="!" horiz-adv-x="448" 
d="M516 1434l-82 -387l-192 -666h-97l95 666l84 387h192zM61 219h193l-47 -219h-193z" />
    <glyph glyph-name="quotedbl" unicode="&#x22;" horiz-adv-x="735" 
d="M692 1434h193v-2l-346 -521l-70 23zM377 1434h192v-2l-346 -521l-71 23z" />
    <glyph glyph-name="numbersign" unicode="#" horiz-adv-x="1138" 
d="M530 915l-88 -380l244 -17l88 381zM772 391l-92 -401h-113l92 409l-243 15l-97 -424h-114l98 432l-217 14l6 121l238 -16l88 383l-223 14l4 119l245 -17l93 404h112l-92 -412l244 -14l96 426h115l-99 -434l217 -15l-6 -118l-237 16l-88 -383l223 -14l-4 -121z" />
    <glyph glyph-name="dollar" unicode="$" horiz-adv-x="993" 
d="M389 1055q0 -65 36 -116t116 -101l116 446h-10q-116 0 -187 -64t-71 -165zM565 627l-129 -480h8q127 0 206 68.5t79 177.5q0 69 -39 124.5t-125 109.5zM899 414q0 -183 -127 -301q-127 -115 -332 -115h-30l-58 -199h-114l61 211q-172 34 -309 135l71 142
q156 -109 291 -131l140 512q-143 80 -208 166.5t-65 201.5q0 178 121 287q120 111 322 111h24l47 159h115l-51 -172q125 -23 252 -108l-74 -142q-132 86 -234 105l-127 -481q149 -82 217 -172.5t68 -208.5z" />
    <glyph glyph-name="percent" unicode="%" horiz-adv-x="1245" 
d="M635 733l524 723l86 -43l-557 -713l-524 -723l-86 43zM326 1372q74 74 163 74q93 0 148 -70t55 -192q0 -111 -38 -218.5t-101 -170.5q-71 -74 -164 -74t-148 69.5t-55 190.5q0 113 38.5 220.5t101.5 170.5zM573 1190q0 72 -23.5 110.5t-66.5 38.5q-41 0 -75 -34
q-42 -46 -72 -146q-31 -105 -31 -184q0 -72 23.5 -110t66.5 -38q41 0 76 35q42 42 72 144t30 184zM770 639q74 74 164 74q93 0 148 -69.5t55 -190.5q0 -113 -38.5 -221t-101.5 -171q-73 -73 -163 -73q-93 0 -148 70t-55 192q0 109 39 217.5t100 171.5zM1020 459
q0 69 -24.5 108t-67.5 39q-41 0 -76 -35q-42 -42 -72 -143q-30 -102 -30 -184q0 -72 24 -111t68 -39q41 0 76 35q42 45 71 143q31 105 31 187z" />
    <glyph glyph-name="ampersand" unicode="&#x26;" horiz-adv-x="1153" 
d="M215 330q0 -85 43 -134t117 -49q130 0 282 187l-176 385q-124 -75 -195 -179.5t-71 -209.5zM856 334l152 -334h-191l-94 199q-185 -215 -391 -215q-133 0 -214 87t-81 230q0 166 101.5 309.5t285.5 237.5q-48 116 -45 217q3 171 108 276q107 107 275 107t315 -100
l-86 -150q-121 84 -225 84q-92 0 -150.5 -65t-58.5 -168q0 -84 45 -175l180 -389q87 137 170 320h172q-123 -280 -268 -471z" />
    <glyph glyph-name="quotesingle" unicode="'" horiz-adv-x="430" 
d="M375 1434h207v-2l-359 -521l-71 23z" />
    <glyph glyph-name="parenleft" unicode="(" horiz-adv-x="692" 
d="M276 418q0 -318 220 -576l-93 -88q-141 137 -220 312.5t-79 355.5q0 328 172 606q179 284 488 463l63 -102q-264 -183 -407 -437q-144 -255 -144 -534z" />
    <glyph glyph-name="parenright" unicode=")" horiz-adv-x="692" 
d="M457 827q0 319 -219 576l92 88q141 -137 220 -312.5t79 -355.5q0 -329 -174 -606q-175 -283 -486 -463l-63 103q263 180 407 433.5t144 536.5z" />
    <glyph glyph-name="asterisk" unicode="*" horiz-adv-x="610" 
d="M436 1444l117 -25l-88 -180l-25 6zM262 1366l144 -137l-15 -21l-190 58zM492 1210l186 64l12 -115l-196 27zM397 1169l17 -20l-115 -164l-78 90zM473 1153l119 -160l-107 -49l-36 197z" />
    <glyph glyph-name="plus" unicode="+" horiz-adv-x="999" 
d="M936 653h-334l-76 -346h-153l78 346h-334l33 146h331l78 348h154l-78 -348h334z" />
    <glyph glyph-name="comma" unicode="," horiz-adv-x="331" 
d="M25 238h180q-29 -165 -106 -286t-228 -237l-55 47q92 114 135 213q38 88 74 263z" />
    <glyph glyph-name="hyphen" unicode="-" horiz-adv-x="612" 
d="M113 707h465l-37 -166h-465z" />
    <glyph glyph-name="period" unicode="." horiz-adv-x="331" 
d="M8 238h191l-52 -238h-190z" />
    <glyph glyph-name="slash" unicode="/" horiz-adv-x="688" 
d="M-199 -266l985 1894h148l-985 -1894h-148z" />
    <glyph glyph-name="zero" unicode="0" horiz-adv-x="1087" 
d="M709 1454q164 0 256 -123t92 -344q0 -262 -82 -504q-81 -239 -211 -372q-134 -131 -303 -131q-165 0 -256.5 122t-91.5 344q0 262 82 504q83 245 211 373q134 131 303 131zM633 217q99 99 168 332q71 239 71 450q0 141 -45.5 217t-130.5 76q-84 0 -159 -75
q-98 -103 -170 -334q-72 -239 -72 -449q0 -141 46.5 -217t131.5 -76q84 0 160 76z" />
    <glyph glyph-name="one" unicode="1" horiz-adv-x="727" 
d="M610 1442h127l-313 -1442h-188l262 1223l-258 -90l-23 161z" />
    <glyph glyph-name="two" unicode="2" horiz-adv-x="964" 
d="M242 166h577l-37 -166h-796l2 139l592 617q119 131 163 205q43 76 43 145q0 78 -48 122t-130 44q-138 0 -311 -150l-66 154q196 172 414 172q153 0 244.5 -82t91.5 -219q0 -118 -63 -229q-55 -102 -220 -275z" />
    <glyph glyph-name="three" unicode="3" horiz-adv-x="948" 
d="M836 455q0 -220 -222.5 -340.5t-640.5 -126.5l35 166q306 7 470.5 86t164.5 215q0 92 -86 140.5t-278 61.5l28 146q248 72 357.5 149t109.5 181q0 72 -49.5 111.5t-140.5 39.5q-138 0 -312 -88l-39 154q184 100 383 100q164 0 259.5 -76t95.5 -207q0 -286 -416 -422
q136 -26 208.5 -100.5t72.5 -189.5z" />
    <glyph glyph-name="four" unicode="4" horiz-adv-x="1030" 
d="M625 485l159 729l-536 -729h377zM805 487h164l-37 -161h-162l-70 -326h-186l70 326h-553l10 153l725 961h246z" />
    <glyph glyph-name="five" unicode="5" horiz-adv-x="974" 
d="M588 887q135 0 218 -82t83 -217q0 -259 -230.5 -420.5t-646.5 -192.5l8 166q325 37 502.5 146.5t177.5 273.5q0 75 -44 119.5t-119 44.5q-110 0 -238 -78l-131 62l188 725h701l-35 -166h-528l-111 -420q104 39 205 39z" />
    <glyph glyph-name="six" unicode="6" horiz-adv-x="991" 
d="M905 561q0 -245 -135 -414q-133 -167 -332 -167q-166 0 -257 104.5t-91 294.5q0 229 89.5 443.5t254.5 381.5q178 178 459 264l51 -159q-191 -75 -331.5 -190.5t-219.5 -262.5q99 45 207 45q139 0 222 -92.5t83 -247.5zM274 377q0 -113 46 -174.5t131 -61.5
q103 0 186 123q82 125 82 277q0 98 -51.5 151t-145.5 53q-81 0 -190 -47q-58 -171 -58 -321z" />
    <glyph glyph-name="seven" unicode="7" horiz-adv-x="933" 
d="M1057 1434l-37 -174l-787 -1280l-170 77l766 1209h-596l37 168h787z" />
    <glyph glyph-name="eight" unicode="8" horiz-adv-x="1026" 
d="M915 438q0 -193 -135 -325q-132 -129 -334 -129q-178 0 -284.5 95t-106.5 253q0 152 83 266.5t231 165.5q-142 98 -142 274q0 173 123 293q122 119 312 119q161 0 261.5 -90.5t100.5 -233.5q0 -140 -71.5 -242t-204.5 -151q167 -98 167 -295zM647 1286q-98 0 -166 -80
q-67 -79 -67 -192q0 -84 50 -135.5t130 -51.5q99 3 168 84t69 197q0 80 -50 129t-134 49zM524 668q-114 0 -194 -95t-80 -221q0 -97 56 -152t153 -55q111 0 190 91q80 92 80 223q0 93 -56.5 151t-148.5 58z" />
    <glyph glyph-name="nine" unicode="9" horiz-adv-x="991" 
d="M168 872q0 244 135 414q134 168 332 168q166 0 257 -104.5t91 -294.5q0 -229 -89.5 -444t-254.5 -382q-178 -178 -459 -264l-51 160q191 75 331.5 190.5t219.5 262.5q-101 -46 -207 -46q-139 0 -222 92.5t-83 247.5zM799 1057q0 113 -45.5 174t-130.5 61
q-105 0 -187 -125q-82 -122 -82 -274q0 -98 51.5 -151.5t145.5 -53.5q81 0 190 47q58 171 58 322z" />
    <glyph glyph-name="colon" unicode=":" horiz-adv-x="352" 
d="M195 1051h190l-51 -236h-191zM18 238h191l-51 -238h-191z" />
    <glyph glyph-name="semicolon" unicode=";" horiz-adv-x="352" 
d="M197 1051h190l-51 -236h-191zM31 238h180q-29 -165 -106 -286t-228 -237l-55 47q87 109 131 209q42 92 78 267z" />
    <glyph glyph-name="less" unicode="&#x3c;" horiz-adv-x="999" 
d="M309 719l559 -270l-34 -154l-711 364l31 136l870 366l-37 -176z" />
    <glyph glyph-name="equal" unicode="=" horiz-adv-x="999" 
d="M205 987h788l-30 -143h-789zM123 610h788l-30 -143h-789z" />
    <glyph glyph-name="greater" unicode="&#x3e;" horiz-adv-x="999" 
d="M774 735l-559 271l35 155l711 -366l-29 -136l-873 -364l37 174z" />
    <glyph glyph-name="question" unicode="?" horiz-adv-x="882" 
d="M508 659l-90 -278h-99l52 364q201 92 292 181.5t91 195.5q0 78 -50.5 122t-138.5 44q-133 0 -289 -112l-61 139q81 66 180.5 101.5t198.5 35.5q155 0 250.5 -82t95.5 -215q0 -152 -106 -274t-326 -222zM238 219h192l-47 -219h-193z" />
    <glyph glyph-name="at" unicode="@" horiz-adv-x="1300" 
d="M647 -307q-270 0 -417.5 160t-147.5 456q0 426 209 754q124 193 291.5 302.5t343.5 109.5q167 0 257.5 -83.5t90.5 -236.5q0 -114 -45 -274l-191 -750h-96l-14 98q-110 -98 -213 -98t-161 75t-58 210q0 255 143 438q144 184 354 184q49 0 111 -16q14 66 14 127
q0 104 -57.5 157.5t-167.5 53.5q-141 0 -280.5 -102t-243.5 -281q-168 -293 -168 -651q0 -259 122 -396t351 -137q101 0 209 31l12 -96q-118 -35 -248 -35zM655 444q0 -182 133 -182q66 0 142 64l143 573q-37 12 -80 12q-134 0 -237 -145q-101 -143 -101 -322z" />
    <glyph glyph-name="A" unicode="A" horiz-adv-x="1153" 
d="M739 1245l-368 -756h407zM887 1448l108 -1448h-192l-17 322h-497l-156 -322h-201l732 1448h223z" />
    <glyph glyph-name="B" unicode="B" horiz-adv-x="1103" 
d="M909 1090q0 85 -62 130.5t-177 45.5h-172l-95 -445h156q157 0 253.5 75t96.5 194zM801 449q0 98 -75.5 153t-209.5 55h-149l-105 -489h191q161 0 254.5 76t93.5 205zM422 0h-389l309 1434h352q197 0 306.5 -82t109.5 -230q0 -146 -92 -250t-252 -141q111 -35 170 -111.5
t59 -185.5q0 -200 -153 -317t-420 -117z" />
    <glyph glyph-name="C" unicode="C" horiz-adv-x="997" 
d="M588 -14q-223 0 -348 142t-125 398q0 222 72.5 422.5t197.5 325.5q174 174 420 174q172 0 309 -70l-63 -170q-124 62 -250 62q-158 0 -279 -121q-98 -98 -155 -264q-58 -165 -58 -344t83 -278t235 -99q103 0 215 41v-174q-116 -45 -254 -45z" />
    <glyph glyph-name="D" unicode="D" horiz-adv-x="1173" 
d="M946 903q0 177 -90.5 270t-261.5 93h-96l-236 -1098h115q224 0 368 147q94 97 146 252q55 158 55 336zM344 0h-311l309 1434h252q264 0 405.5 -134.5t141.5 -386.5q0 -216 -67 -402t-189 -308q-203 -203 -541 -203z" />
    <glyph glyph-name="E" unicode="E" horiz-adv-x="1030" 
d="M870 172l-36 -172h-801l309 1434h788l-36 -172h-596l-95 -441h529l-37 -170h-528l-105 -479h608z" />
    <glyph glyph-name="F" unicode="F" horiz-adv-x="966" 
d="M393 774h455l-37 -172h-457l-129 -602h-192l309 1434h778l-39 -174h-583z" />
    <glyph glyph-name="G" unicode="G" horiz-adv-x="1163" 
d="M645 782h453l-160 -712q-159 -84 -350 -84q-225 0 -349 140t-124 392q0 220 71 424q74 202 199 328q180 180 432 180q199 0 369 -102l-76 -162q-169 88 -299 88q-167 0 -289 -125q-94 -93 -155 -275q-60 -183 -60 -362q0 -171 79.5 -264.5t225.5 -93.5q76 0 162 28
l96 428h-262z" />
    <glyph glyph-name="H" unicode="H" horiz-adv-x="1214" 
d="M1264 1434l-310 -1434h-192l139 647h-536l-140 -647h-192l309 1434h193l-132 -607h537l131 607h193z" />
    <glyph glyph-name="I" unicode="I" horiz-adv-x="497" 
d="M348 1434h193l-310 -1434h-192z" />
    <glyph glyph-name="J" unicode="J" horiz-adv-x="806" 
d="M674 1434h192l-221 -1041q-44 -201 -157.5 -303t-290.5 -102q-130 0 -254 53l55 162q96 -45 184 -45q218 0 279 276z" />
    <glyph glyph-name="K" unicode="K" horiz-adv-x="1087" 
d="M584 729l370 -729h-213l-354 692h-12l-150 -692h-192l309 1434h193l-142 -652h10l623 652h229z" />
    <glyph glyph-name="L" unicode="L" horiz-adv-x="909" 
d="M791 174l-37 -174h-721l309 1434h193l-273 -1260h529z" />
    <glyph glyph-name="M" unicode="M" horiz-adv-x="1576" 
d="M1593 1434l-252 -1434h-188l217 1194l-612 -1196h-180l-86 1198l-302 -1196h-178l367 1434h260l82 -1174l592 1174h280z" />
    <glyph glyph-name="N" unicode="N" horiz-adv-x="1212" 
d="M739 0l-282 1135l-15 -78l-229 -1057h-180l309 1434h221l279 -1117l14 78l225 1039h181l-310 -1434h-213z" />
    <glyph glyph-name="O" unicode="O" horiz-adv-x="1212" 
d="M907 137q-157 -157 -360 -157t-319.5 138t-116.5 382q0 236 75 452q76 219 201 344q158 158 363 158q202 0 318 -138t116 -382q0 -230 -78 -455q-78 -221 -199 -342zM991 948q0 161 -66.5 250.5t-185.5 89.5q-113 0 -209 -96q-93 -93 -161 -303q-66 -213 -66 -404
q0 -161 66.5 -250.5t185.5 -89.5q112 0 209 97q96 96 160 303q67 207 67 403z" />
    <glyph glyph-name="P" unicode="P" horiz-adv-x="1040" 
d="M891 1042q0 109 -67.5 166.5t-194.5 57.5h-131l-136 -633h109q199 0 309 110q111 111 111 299zM924 633q-166 -166 -471 -166h-127l-101 -467h-192l309 1434h299q215 0 330.5 -98.5t115.5 -278.5q0 -125 -43 -237t-120 -187z" />
    <glyph glyph-name="Q" unicode="Q" horiz-adv-x="1212" 
d="M844 84l157 -238h-227l-96 154q-55 -18 -135 -18q-201 0 -316.5 138.5t-115.5 379.5q0 236 75 452q76 219 201 344q158 158 363 158q202 0 318 -138t116 -382q0 -231 -78 -453t-199 -340q-11 -11 -36 -33.5t-27 -23.5zM991 948q0 161 -66.5 250.5t-185.5 89.5
q-113 0 -209 -96q-93 -93 -161 -303q-66 -213 -66 -404q0 -160 66.5 -249t185.5 -89q118 0 209 97q95 92 160 299q67 207 67 405z" />
    <glyph glyph-name="R" unicode="R" horiz-adv-x="1126" 
d="M913 1057q0 100 -67.5 154.5t-190.5 54.5h-157l-119 -557h131q199 0 309 110q94 94 94 238zM430 543h-88l-117 -543h-192l309 1434h332q211 0 323.5 -90t112.5 -257q0 -182 -113.5 -311.5t-310.5 -173.5q52 -25 83 -66.5t60 -125.5l162 -410h-213l-141 387
q-32 88 -77 122t-130 34z" />
    <glyph glyph-name="S" unicode="S" horiz-adv-x="1013" 
d="M446 156q118 0 194.5 66t76.5 169q0 66 -45 123t-172 152q-167 110 -224 194q-59 86 -59 201q0 164 125 274q125 113 317 113q214 0 390 -113l-82 -159q-156 102 -314 102q-105 0 -174 -59.5t-69 -147.5q0 -62 39 -113q39 -50 174 -147q157 -103 223 -199q63 -86 63 -204
q0 -189 -131 -308q-128 -116 -342 -116q-243 0 -438 127l78 165q184 -120 370 -120z" />
    <glyph glyph-name="T" unicode="T" horiz-adv-x="1038" 
d="M238 1434h954l-39 -172h-379l-272 -1262h-195l275 1262h-383z" />
    <glyph glyph-name="U" unicode="U" horiz-adv-x="1183" 
d="M1051 1434h192l-211 -994q-51 -227 -178.5 -342.5t-325.5 -115.5q-191 0 -300 102.5t-109 282.5q0 85 22 178l189 889h192l-194 -924q-17 -73 -17 -129q0 -108 61 -169.5t167 -61.5q113 0 191.5 79t113.5 228z" />
    <glyph glyph-name="V" unicode="V" horiz-adv-x="1128" 
d="M1067 1434h211l-729 -1448h-209l-102 1448h196l62 -1201z" />
    <glyph glyph-name="W" unicode="W" horiz-adv-x="1705" 
d="M1847 1434l-624 -1444h-213l-27 1161l-528 -1161h-211l2 1444h192l-26 -1162l526 1162h213l18 -1162l480 1162h198z" />
    <glyph glyph-name="X" unicode="X" horiz-adv-x="1087" 
d="M743 0l-182 594l-405 -594h-217l530 743l-219 691h201l161 -553l381 553h219l-507 -703l239 -731h-201z" />
    <glyph glyph-name="Y" unicode="Y" horiz-adv-x="1077" 
d="M1249 1434l-612 -881l-119 -553h-192l120 559l-231 875h199l166 -689l454 689h215z" />
    <glyph glyph-name="Z" unicode="Z" horiz-adv-x="1011" 
d="M233 172h646l-37 -172h-871l33 160l858 1102h-618l37 172h841l-32 -160z" />
    <glyph glyph-name="bracketleft" unicode="[" horiz-adv-x="724" 
d="M178 -92l350 18l-24 -114l-512 -33l364 1687l498 -32l-25 -115l-342 18z" />
    <glyph glyph-name="backslash" unicode="\" horiz-adv-x="677" 
d="M365 1628l167 -1894h-133l-168 1894h134z" />
    <glyph glyph-name="bracketright" unicode="]" horiz-adv-x="724" 
d="M262 1434l512 32l-364 -1687l-498 33l25 114l342 -18l309 1429l-350 -18z" />
    <glyph glyph-name="asciicircum" unicode="^" horiz-adv-x="999" 
d="M680 1331l-332 -438h-168l447 590h157l191 -590h-158z" />
    <glyph glyph-name="underscore" unicode="_" horiz-adv-x="870" 
d="M-115 -113h879l-19 -82h-878z" />
    <glyph glyph-name="grave" unicode="`" horiz-adv-x="1024" 
d="M631 1417l117 -235h-115l-215 235h213z" />
    <glyph glyph-name="a" unicode="a" horiz-adv-x="913" 
d="M197 283q0 -67 39.5 -105.5t107.5 -38.5q93 0 197 66l69 297q-74 12 -139 12q-127 0 -200.5 -62.5t-73.5 -168.5zM713 186l-23 -186h-149l-11 96q-127 -110 -262 -110q-113 0 -179 73t-66 197q0 183 115 290t311 107q98 0 192 -20l16 69q11 45 11 80q0 62 -44.5 94.5
t-129.5 32.5q-113 0 -246 -47l-19 146q152 57 310 57q146 0 227.5 -66t81.5 -184q0 -47 -14 -115z" />
    <glyph glyph-name="b" unicode="b" horiz-adv-x="958" 
d="M690 94q-110 -110 -254 -110q-127 0 -235 102l-47 -86h-142l320 1477h180l-109 -500q119 88 226 88q125 0 197.5 -95.5t72.5 -262.5q0 -191 -57 -353q-55 -164 -152 -260zM403 133q86 0 160 74q66 66 113 203q45 134 45 272q0 110 -44.5 171.5t-123.5 61.5
q-82 0 -176 -67l-139 -637q84 -78 165 -78z" />
    <glyph glyph-name="c" unicode="c" horiz-adv-x="772" 
d="M610 176l6 -153q-103 -39 -200 -39q-171 0 -264 101.5t-93 289.5q0 167 55.5 319t149.5 246q127 127 307 127q123 0 242 -61l-59 -152q-92 51 -179 51q-98 0 -186 -82q-67 -67 -108 -184.5t-41 -239.5q0 -124 55.5 -189t161.5 -65q65 0 153 31z" />
    <glyph glyph-name="d" unicode="d" horiz-adv-x="958" 
d="M240 369q0 -110 46 -173t126 -63q71 0 172 66l139 641q-84 75 -166 75q-95 0 -160 -71q-64 -61 -112 -203q-45 -131 -45 -272zM1038 1477l-319 -1477h-139l-11 86q-123 -102 -235 -102q-125 0 -200 97t-75 263q0 185 58 350q59 168 151 260q114 111 260 111
q116 0 226 -84l106 496h178z" />
    <glyph glyph-name="e" unicode="e" horiz-adv-x="897" 
d="M684 725q0 92 -39 144.5t-108 52.5q-86 0 -164 -92t-115 -238h412q14 72 14 133zM680 188l14 -145q-133 -59 -274 -59q-173 0 -267 100.5t-94 286.5q0 165 60 325q62 160 160 258q119 119 278 119q136 0 214.5 -95t78.5 -259q0 -145 -45 -273h-578q-1 -19 -2.5 -41
t-1.5 -30q0 -117 58 -177.5t168 -60.5q117 0 231 51z" />
    <glyph glyph-name="f" unicode="f" horiz-adv-x="622" 
d="M473 1051h236l-33 -154h-236l-194 -897h-178l194 897h-135l33 154h135l29 131q32 149 117 226t218 77q110 0 195 -33l-51 -141q-64 24 -125 24q-141 0 -182 -178z" />
    <glyph glyph-name="g" unicode="g" horiz-adv-x="956" 
d="M242 387q0 -108 45 -166.5t127 -58.5q74 0 172 61l131 619q-85 73 -164 73q-87 0 -158 -71q-62 -62 -110 -195q-43 -128 -43 -262zM276 -358q-170 0 -321 77l53 146q129 -72 264 -72q221 0 273 230l16 79q-111 -92 -223 -92q-128 0 -201.5 94t-73.5 258q0 182 55.5 342
t149.5 254q109 109 252 109q128 0 236 -102l47 86h141l-227 -1045q-76 -364 -441 -364z" />
    <glyph glyph-name="h" unicode="h" horiz-adv-x="976" 
d="M721 770q0 66 -36.5 101.5t-102.5 35.5q-93 0 -209 -80l-180 -827h-181l320 1477h180l-111 -508q143 96 267 96q113 0 177 -63t64 -173q0 -63 -16 -129l-150 -700h-178l146 684q10 34 10 86z" />
    <glyph glyph-name="i" unicode="i" horiz-adv-x="440" 
d="M319 1427h193l-39 -180h-192zM244 1051h180l-227 -1051h-181z" />
    <glyph glyph-name="j" unicode="j" horiz-adv-x="442" 
d="M324 1427h190l-37 -180h-192zM248 1051h178l-209 -983q-35 -157 -104 -250q-70 -98 -217 -185l-89 115q110 80 162 160t78 203z" />
    <glyph glyph-name="k" unicode="k" horiz-adv-x="876" 
d="M487 535l261 -535h-193l-244 514h-8l-110 -514h-181l320 1477h180l-193 -893h9l426 467h209z" />
    <glyph glyph-name="l" unicode="l" horiz-adv-x="440" 
d="M336 1477h180l-319 -1477h-181z" />
    <glyph glyph-name="m" unicode="m" horiz-adv-x="1507" 
d="M711 774q0 63 -35 98t-101 35q-87 0 -206 -80l-176 -827h-181l228 1051h141l10 -90q146 104 271 104q163 0 217 -123q183 123 325 123q111 0 174.5 -61.5t63.5 -169.5q0 -42 -17 -129l-151 -705h-178l147 688q10 51 10 86q0 64 -34.5 98.5t-100.5 34.5q-95 0 -219 -86
q-2 -57 -16 -116l-150 -705h-180l147 688q11 37 11 86z" />
    <glyph glyph-name="n" unicode="n" horiz-adv-x="976" 
d="M721 770q0 66 -36.5 101.5t-102.5 35.5q-97 0 -213 -80l-176 -827h-181l228 1051h141l10 -90q144 104 277 104q113 0 177 -63t64 -173q0 -63 -16 -129l-150 -700h-178l146 684q10 34 10 86z" />
    <glyph glyph-name="o" unicode="o" horiz-adv-x="935" 
d="M668 98q-118 -118 -279 -118q-153 0 -241.5 105t-88.5 288q0 170 58 325q61 162 153 254q121 121 277 121q153 0 241.5 -105t88.5 -288q0 -171 -56.5 -328.5t-152.5 -253.5zM236 367q0 -108 45 -171t120 -63q76 0 142 66q66 69 112 209q47 146 47 276q0 108 -45 171
t-120 63q-76 0 -142 -66q-67 -67 -112 -207q-47 -146 -47 -278z" />
    <glyph glyph-name="p" unicode="p" horiz-adv-x="958" 
d="M403 133q89 0 160 74q66 66 113 203q45 134 45 272q0 110 -46 171.5t-126 61.5t-172 -63l-139 -641q87 -78 165 -78zM690 94q-110 -110 -256 -110q-118 0 -227 86l-90 -420h-180l303 1401h141l10 -86q123 102 234 102q125 0 199.5 -97t74.5 -263q0 -191 -57 -353
q-55 -164 -152 -260z" />
    <glyph glyph-name="q" unicode="q" horiz-adv-x="958" 
d="M807 1051h141l-305 -1401h-178l92 426q-111 -92 -225 -92q-125 0 -199 97.5t-74 268.5q0 183 57 346t154 260q111 111 254 111q127 0 236 -100zM240 369q0 -110 46 -173t126 -63q68 0 172 66l137 643q-76 73 -164 73q-89 0 -160 -71q-64 -61 -112 -203q-45 -131 -45 -272
z" />
    <glyph glyph-name="r" unicode="r" horiz-adv-x="649" 
d="M354 748l-161 -748h-181l228 1051h139l-2 -162q159 176 348 176l-41 -188q-181 -9 -330 -129z" />
    <glyph glyph-name="s" unicode="s" horiz-adv-x="821" 
d="M348 137q79 0 127.5 39.5t48.5 102.5q0 52 -32 92t-121 94q-124 73 -175 140.5t-51 158.5q0 132 97 217q100 86 252 86q160 0 311 -96l-68 -148q-140 90 -254 90q-72 0 -119 -38.5t-47 -98.5q0 -47 31 -82.5t125 -95.5q123 -69 174 -138.5t51 -166.5q0 -140 -96 -225.5
t-254 -85.5q-194 0 -368 112l65 150q158 -107 303 -107z" />
    <glyph glyph-name="t" unicode="t" horiz-adv-x="673" 
d="M541 158l-33 -156q-69 -16 -141 -16q-121 0 -186.5 57.5t-65.5 163.5q0 40 14 117l129 573h-131l33 154h133l65 286h177l-66 -286h256l-33 -154h-258l-127 -567q-10 -39 -10 -78q0 -54 33.5 -82.5t93.5 -28.5q30 0 117 17z" />
    <glyph glyph-name="u" unicode="u" horiz-adv-x="976" 
d="M965 1051l-228 -1051h-141l-10 90q-144 -104 -277 -104q-113 0 -177 62.5t-64 172.5q0 63 16 129l149 701h179l-146 -684q-10 -42 -10 -86q0 -66 36.5 -102t102.5 -36q92 0 211 80l178 828h181z" />
    <glyph glyph-name="v" unicode="v" horiz-adv-x="882" 
d="M774 1051h182l-534 -1061h-195l-77 1061h174l38 -877z" />
    <glyph glyph-name="w" unicode="w" horiz-adv-x="1366" 
d="M1436 1051l-482 -1059h-182l-29 819l-383 -819h-186l-18 1059h172l-13 -846l392 846h174l20 -844l354 844h181z" />
    <glyph glyph-name="x" unicode="x" horiz-adv-x="874" 
d="M547 532l180 -532h-182l-125 420l-291 -420h-201l406 545l-174 506h184l119 -392l270 392h199z" />
    <glyph glyph-name="y" unicode="y" horiz-adv-x="888" 
d="M-51 -360l-21 155q103 30 175.5 74t134.5 113l-84 1069h176l41 -889l407 889h187l-506 -1014q-87 -172 -205 -264q-111 -86 -305 -133z" />
    <glyph glyph-name="z" unicode="z" horiz-adv-x="821" 
d="M188 152h490l-35 -152h-684l29 141l633 758h-463l35 152h661l-31 -142z" />
    <glyph glyph-name="braceleft" unicode="{" horiz-adv-x="937" 
d="M739 -113l-45 -127q-308 42 -536 160l8 105q231 126 231 301q0 105 -85 168t-244 75l24 107q203 12 330 104q125 94 125 228q0 125 -125 213l41 104q289 119 602 160l-8 -127q-217 -25 -441 -105q51 -43 80 -103.5t29 -127.5q0 -140 -109.5 -248t-296.5 -158
q123 -38 188.5 -113t65.5 -179q0 -201 -223 -334q184 -78 389 -103z" />
    <glyph glyph-name="bar" unicode="|" horiz-adv-x="534" 
d="M436 1628h135l-407 -1894h-137z" />
    <glyph glyph-name="braceright" unicode="}" horiz-adv-x="937" 
d="M-88 -240l6 127q220 25 440 105q-108 94 -108 231q0 139 109 247.5t296 158.5q-122 38 -188 114t-66 179q0 198 226 333q-179 77 -391 103l47 127q300 -42 534 -160l-6 -104q-231 -126 -231 -301q0 -105 84.5 -168.5t242.5 -75.5l-22 -107q-207 -12 -332 -106
q-125 -91 -125 -225q0 -128 127 -213l-41 -105q-289 -119 -602 -160z" />
    <glyph glyph-name="asciitilde" unicode="~" horiz-adv-x="999" 
d="M715 737q32 0 65 32.5t88 115.5l107 -45q-74 -140 -134 -201t-126 -61q-40 0 -78 14.5t-113 62.5q-62 40 -93.5 54t-59.5 14q-32 0 -66.5 -33.5t-85.5 -114.5l-108 46q73 138 134 200t128 62q39 0 78.5 -16t109.5 -62q69 -42 103 -57q33 -11 51 -11z" />
    <glyph glyph-name="uni00A0" unicode="&#xa0;" horiz-adv-x="323" 
 />
    <glyph glyph-name="exclamdown" unicode="&#xa1;" horiz-adv-x="448" 
d="M14 0l82 387l193 666h96l-94 -666l-84 -387h-193zM469 1214h-193l48 220h192z" />
    <glyph glyph-name="cent" unicode="&#xa2;" horiz-adv-x="831" 
d="M403 965q-54 -55 -85 -140.5t-31 -173.5q0 -167 119 -219l155 617q-83 -15 -158 -84zM477 268h-14l-70 -276h-110l75 293q-112 32 -174.5 125.5t-62.5 230.5q0 118 44.5 231.5t119.5 188.5q126 126 305 135l61 246h111l-66 -252q84 -13 183 -72l-70 -133q-86 53 -158 62
l-162 -635h21q90 0 201 51l22 -135q-126 -60 -256 -60z" />
    <glyph glyph-name="sterling" unicode="&#xa3;" horiz-adv-x="976" 
d="M215 164h598l-37 -164h-776l-6 133q96 79 149 162.5t90 212.5l35 121h-155l32 153h166l74 256q51 190 162 295q119 113 311 113q125 0 223 -45l-59 -166q-89 39 -174 39q-108 0 -180 -66q-70 -61 -111 -207l-63 -219h331l-32 -153h-344l-37 -131q-32 -116 -76.5 -191
t-120.5 -143z" />
    <glyph glyph-name="yen" unicode="&#xa5;" horiz-adv-x="1050" 
d="M582 354h297l-27 -116h-295l-51 -238h-191l52 238h-295l26 116h295l37 170h-295l25 117h272l-192 793h196l133 -684l428 684h205l-536 -793h274l-27 -117h-295z" />
    <glyph glyph-name="section" unicode="&#xa7;" horiz-adv-x="1019" 
d="M293 725q0 -49 43.5 -90.5t155.5 -104.5q29 -16 71 -43q131 57 189.5 110t58.5 114q0 48 -43 89.5t-154 104.5q-47 24 -71 43q-132 -55 -191 -108t-59 -115zM762 242q0 -113 -91.5 -183.5t-238.5 -70.5q-167 0 -344 82l70 139q159 -80 282 -80q69 0 112.5 27.5t43.5 70.5
q0 41 -39 74q-44 40 -172 113q-142 78 -200 142.5t-58 143.5q0 104 72 183t227 147q-45 39 -64.5 77t-19.5 87q0 111 91.5 182.5t238.5 71.5q91 0 171 -19t173 -63l-70 -139q-159 80 -282 80q-69 0 -112.5 -28t-43.5 -71q0 -39 37 -73q50 -43 174 -113q143 -80 201.5 -145
t58.5 -144q0 -103 -71.5 -181.5t-229.5 -145.5q45 -39 64.5 -77t19.5 -87z" />
    <glyph glyph-name="dieresis" unicode="&#xa8;" horiz-adv-x="1024" 
d="M481 1364h146l-37 -174h-146zM760 1364h145l-37 -174h-145z" />
    <glyph glyph-name="copyright" unicode="&#xa9;" horiz-adv-x="1341" 
d="M592 -51q-218 0 -344 153q-127 154 -127 422q0 171 45 334t129 293q103 160 242 247t294 87q219 0 345 -156q127 -154 127 -422q0 -171 -45.5 -333.5t-129.5 -292.5q-103 -160 -242 -246t-294 -86zM336 1110q-74 -124 -115 -275.5t-41 -308.5q0 -246 110.5 -384
t305.5 -138q142 0 269.5 82.5t221.5 235.5q74 124 115 275t41 308q0 246 -110.5 385.5t-305.5 139.5q-142 0 -269.5 -83t-221.5 -237zM858 473l6 -106q-90 -41 -172 -41q-125 0 -195.5 76.5t-70.5 215.5q0 212 113 355q114 147 286 147q92 0 166 -41l-45 -106
q-60 35 -123 35q-113 0 -190 -115q-78 -116 -78 -264q0 -92 42 -141.5t120 -49.5q72 0 141 35z" />
    <glyph glyph-name="ordfeminine" unicode="&#xaa;" horiz-adv-x="712" 
d="M317 965q0 -43 26 -68t69 -25q65 0 133 43l39 185q-41 8 -97 8q-81 0 -125.5 -37.5t-44.5 -105.5zM668 909l-13 -116h-104l-10 63q-85 -68 -179 -68q-75 0 -120 43.5t-45 116.5q0 111 73 174.5t203 63.5q63 0 125 -12l8 34q8 36 8 56q0 38 -27.5 58.5t-78.5 20.5
q-83 0 -168 -36l-21 92q107 45 220 45q98 0 149 -42t51 -122q0 -46 -10 -80zM117 668h532l-18 -76h-531z" />
    <glyph glyph-name="guillemotleft" unicode="&#xab;" horiz-adv-x="911" 
d="M604 606l180 -362l-71 -49l-283 372l19 95l436 389l61 -58zM246 614l178 -370l-74 -49l-280 380l20 97l434 379l60 -58z" />
    <glyph glyph-name="registered" unicode="&#xae;" horiz-adv-x="696" 
d="M197 1110q15 149 106 242q96 96 221 96q117 0 182 -83t52 -216q-15 -146 -109 -244q-93 -96 -219 -96q-116 0 -180.5 83t-52.5 218zM233 1110q-13 -121 42.5 -194.5t158.5 -73.5q110 0 193 86q82 88 94 219q13 118 -43 193t-156 75q-111 0 -194 -86t-95 -219zM498 1251
h-43l-27 -112h31q39 0 64.5 16t29.5 45q4 26 -10 38.5t-45 12.5zM436 1087h-18l-25 -120h-65l71 338h109q60 0 90.5 -28t22.5 -73q-6 -36 -34 -61.5t-73 -36.5q19 -11 37 -45l47 -94h-74l-45 90q-7 18 -16 24t-27 6z" />
    <glyph glyph-name="overscore" unicode="&#xaf;" horiz-adv-x="1024" 
d="M449 1307h464l-22 -105h-465z" />
    <glyph glyph-name="degree" unicode="&#xb0;" horiz-adv-x="745" 
d="M504 1448q129 0 211 -88q86 -89 86 -219q0 -132 -86 -221t-211 -89t-211 89t-86 219t86 219q87 90 211 90zM504 934q82 0 134 58t52 149q0 88 -53 146.5t-133 58.5t-133.5 -58.5t-53.5 -146.5t54 -147.5t133 -59.5z" />
    <glyph glyph-name="plusminus" unicode="&#xb1;" horiz-adv-x="999" 
d="M926 684h-318l-69 -324h-154l72 324h-318l33 143h315l74 326h152l-72 -326h317zM25 141h784l-31 -141h-786z" />
    <glyph glyph-name="uni00B2" unicode="&#xb2;" horiz-adv-x="739" 
d="M371 969h383l-27 -119h-545v100l387 359q71 66 99 108.5t28 79.5q0 45 -30 70.5t-84 25.5q-100 0 -222 -98l-47 107q127 112 289 112q105 0 169.5 -55.5t64.5 -145.5q0 -67 -42 -131t-145 -157z" />
    <glyph glyph-name="uni00B3" unicode="&#xb3;" horiz-adv-x="741" 
d="M766 1114q0 -131 -152.5 -201t-447.5 -71l27 114q432 9 432 162q0 101 -248 121l16 92q314 72 314 185q0 38 -35.5 60.5t-98.5 22.5q-100 0 -213 -49l-30 105q121 59 264 59q117 0 185.5 -47t68.5 -129q0 -176 -283 -248q96 -13 148.5 -60.5t52.5 -115.5z" />
    <glyph glyph-name="acute" unicode="&#xb4;" horiz-adv-x="1024" 
d="M770 1417h229l-317 -235h-127z" />
    <glyph glyph-name="uni00B5" unicode="&#xb5;" horiz-adv-x="985" 
d="M193 86l-19 -143l-61 -277h-172l299 1385h180l-148 -684q-10 -44 -10 -84q0 -66 37 -102t104 -36q96 0 209 78l181 828h178l-226 -1051h-120l-11 94q-132 -106 -247 -106q-126 0 -174 98z" />
    <glyph glyph-name="paragraph" unicode="&#xb6;" horiz-adv-x="952" 
d="M676 1434h323l-309 -1434h-131l285 1313h-178l-154 -703h-10q-159 0 -250.5 88.5t-91.5 243.5q0 219 141 354q141 138 375 138z" />
    <glyph glyph-name="uni00B7" unicode="&#xb7;" horiz-adv-x="378" 
d="M141 741h191l-51 -237h-191z" />
    <glyph glyph-name="cedilla" unicode="&#xb8;" horiz-adv-x="1024" 
d="M526 -168q0 -133 -348 -133l8 70q187 3 187 57q0 34 -105 31l-18 37l108 124l117 -10l-88 -90q139 -3 139 -86z" />
    <glyph glyph-name="uni00B9" unicode="&#xb9;" horiz-adv-x="618" 
d="M612 1710h90l-188 -860h-137l153 706l-202 -61l-19 117z" />
    <glyph glyph-name="ordmasculine" unicode="&#xba;" horiz-adv-x="714" 
d="M207 1036q0 166 92 287q95 121 227 121q103 0 166.5 -70t63.5 -186q0 -168 -92 -289q-91 -119 -226 -119q-105 0 -168 69.5t-63 186.5zM633 1186q0 72 -30.5 113.5t-84.5 41.5q-74 0 -133 -96q-55 -94 -55 -207q0 -72 30 -113.5t84 -41.5q79 0 134 94t55 209zM129 668
h514l-18 -76h-514z" />
    <glyph glyph-name="guillemotright" unicode="&#xbb;" horiz-adv-x="911" 
d="M885 672l-23 -97l-434 -380l-59 57l340 381l-179 371l72 47zM524 678l-20 -92l-436 -391l-60 57l342 387l-180 365l72 47z" />
    <glyph glyph-name="onequarter" unicode="&#xbc;" horiz-adv-x="1544" 
d="M526 1440h90l-188 -860h-137l153 706l-202 -61l-19 116zM797 696l-510 -696h-105l555 737l510 697h105zM1210 291l99 448l-371 -448h272zM1337 293h123l-24 -109h-123l-39 -184h-129l39 184h-387l4 111l473 565h184z" />
    <glyph glyph-name="onehalf" unicode="&#xbd;" horiz-adv-x="1581" 
d="M526 1440h90l-188 -860h-137l153 706l-202 -61l-19 116zM797 696l-510 -696h-105l555 737l510 697h105zM1063 119h383l-27 -119h-545v100l388 359q71 66 99 108.5t28 79.5q0 44 -30.5 70t-84.5 26q-99 0 -221 -98l-47 107q127 112 288 112q105 0 169.5 -55t64.5 -145
q0 -67 -42 -131.5t-145 -157.5z" />
    <glyph glyph-name="threequarters" unicode="&#xbe;" horiz-adv-x="1642" 
d="M680 844q0 -131 -152.5 -201.5t-447.5 -71.5l26 115q433 9 433 162q0 101 -248 121l16 92q161 37 237.5 82t76.5 102q0 39 -35.5 61.5t-98.5 22.5q-100 0 -213 -49l-30 104q123 60 264 60q117 0 185.5 -47t68.5 -129q0 -176 -283 -248q96 -13 148.5 -60.5t52.5 -115.5z
M895 696l-510 -696h-104l555 737l510 697h104zM1309 291l98 448l-371 -448h273zM1436 293h123l-25 -109h-123l-39 -184h-129l39 184h-387l4 111l473 565h184z" />
    <glyph glyph-name="questiondown" unicode="&#xbf;" horiz-adv-x="882" 
d="M457 774l90 279h98l-51 -365q-201 -92 -292 -181.5t-91 -195.5q0 -78 50 -122t138 -44q131 0 289 113l62 -139q-81 -66 -180.5 -101.5t-198.5 -35.5q-155 0 -250.5 82t-95.5 215q0 152 106 273.5t326 221.5zM727 1214h-192l47 220h192z" />
    <glyph glyph-name="Agrave" unicode="&#xc0;" horiz-adv-x="1153" 
d="M739 1245l-368 -756h407zM887 1448l108 -1448h-192l-17 322h-497l-156 -322h-201l732 1448h223zM766 1731l137 -197h-139l-223 197h225z" />
    <glyph glyph-name="Aacute" unicode="&#xc1;" horiz-adv-x="1153" 
d="M739 1245l-368 -756h407zM887 1448l108 -1448h-192l-17 322h-497l-156 -322h-201l732 1448h223zM895 1731h242l-310 -197h-149z" />
    <glyph glyph-name="Acircumflex" unicode="&#xc2;" horiz-adv-x="1153" 
d="M739 1245l-368 -756h407zM887 1448l108 -1448h-192l-17 322h-497l-156 -322h-201l732 1448h223zM1044 1534h-122l-101 106l-147 -106h-131l213 203h162z" />
    <glyph glyph-name="Atilde" unicode="&#xc3;" horiz-adv-x="1153" 
d="M739 1245l-368 -756h407zM887 1448l108 -1448h-192l-17 322h-497l-156 -322h-201l732 1448h223zM807 1581q-41 26 -60 34.5t-38 8.5q-25 0 -47.5 -21t-59.5 -77l-84 37q58 99 101 138.5t96 39.5q23 0 46 -9.5t77 -41.5q44 -28 62 -36.5t36 -8.5q24 0 46.5 21t59.5 77
l82 -37q-55 -98 -99 -138t-95 -40q-26 0 -51.5 11t-71.5 42z" />
    <glyph glyph-name="Adieresis" unicode="&#xc4;" horiz-adv-x="1153" 
d="M739 1245l-368 -756h407zM887 1448l108 -1448h-192l-17 322h-497l-156 -322h-201l732 1448h223zM604 1704h154l-35 -170h-154zM901 1704h154l-37 -170h-154z" />
    <glyph glyph-name="Aring" unicode="&#xc5;" horiz-adv-x="1153" 
d="M666 1528q0 -45 29.5 -73t78.5 -28q63 0 106.5 42t43.5 102q0 45 -30 72.5t-79 27.5q-63 0 -106 -41.5t-43 -101.5zM737 1249l-366 -760h407zM893 1401l102 -1401h-192l-17 322h-497l-156 -322h-201l713 1409q-51 42 -51 113q0 88 65.5 149.5t161.5 61.5
q75 0 123.5 -44.5t48.5 -113.5q0 -51 -26.5 -98t-73.5 -76z" />
    <glyph glyph-name="AE" unicode="&#xc6;" horiz-adv-x="1716" 
d="M981 1266l-526 -777h376l166 777h-16zM1556 172l-36 -172h-795l70 322h-453l-219 -322h-211l983 1434h924l-39 -172h-590l-94 -441h524l-39 -170h-522l-105 -479h602z" />
    <glyph glyph-name="Ccedilla" unicode="&#xc7;" horiz-adv-x="997" 
d="M635 -168q0 -133 -348 -133l8 70q186 3 186 57q0 34 -104 31l-19 37l95 108q-162 41 -250 176t-88 348q0 222 72.5 422.5t197.5 325.5q174 174 420 174q172 0 309 -70l-63 -170q-124 62 -250 62q-158 0 -279 -121q-98 -98 -155 -264q-58 -165 -58 -344t83 -278t235 -99
q103 0 215 41v-174q-116 -45 -254 -45h-25l-67 -68q139 -3 139 -86z" />
    <glyph glyph-name="Egrave" unicode="&#xc8;" horiz-adv-x="1030" 
d="M870 172l-36 -172h-801l309 1434h788l-36 -172h-596l-95 -441h529l-37 -170h-528l-105 -479h608zM737 1722l137 -196h-139l-223 196h225z" />
    <glyph glyph-name="Eacute" unicode="&#xc9;" horiz-adv-x="1030" 
d="M870 172l-36 -172h-801l309 1434h788l-36 -172h-596l-95 -441h529l-37 -170h-528l-105 -479h608zM866 1722h242l-309 -196h-150z" />
    <glyph glyph-name="Ecircumflex" unicode="&#xca;" horiz-adv-x="1030" 
d="M870 172l-36 -172h-801l309 1434h788l-36 -172h-596l-95 -441h529l-37 -170h-528l-105 -479h608zM1016 1526h-123l-100 106l-148 -106h-131l213 203h162z" />
    <glyph glyph-name="Edieresis" unicode="&#xcb;" horiz-adv-x="1030" 
d="M870 172l-36 -172h-801l309 1434h788l-36 -172h-596l-95 -441h529l-37 -170h-528l-105 -479h608zM575 1696h154l-35 -170h-153zM872 1696h154l-37 -170h-153z" />
    <glyph glyph-name="Igrave" unicode="&#xcc;" horiz-adv-x="497" 
d="M348 1434h193l-310 -1434h-192zM436 1722l137 -196h-139l-223 196h225z" />
    <glyph glyph-name="Iacute" unicode="&#xcd;" horiz-adv-x="497" 
d="M348 1434h193l-310 -1434h-192zM565 1722h242l-309 -196h-150z" />
    <glyph glyph-name="Icircumflex" unicode="&#xce;" horiz-adv-x="497" 
d="M348 1434h193l-310 -1434h-192zM715 1526h-123l-100 106l-148 -106h-131l213 203h162z" />
    <glyph glyph-name="Idieresis" unicode="&#xcf;" horiz-adv-x="497" 
d="M348 1434h193l-310 -1434h-192zM274 1696h154l-35 -170h-153zM571 1696h154l-37 -170h-153z" />
    <glyph glyph-name="Eth" unicode="&#xd0;" horiz-adv-x="1191" 
d="M416 803h258l-31 -139h-258l-106 -496h116q224 0 371 147q91 97 143 252q56 160 56 336q0 177 -91 270t-262 93h-98zM362 0h-311l144 664h-125l30 141h125l135 629h252q264 0 405.5 -134.5t141.5 -386.5q0 -217 -67.5 -404.5t-188.5 -305.5q-203 -203 -541 -203z" />
    <glyph glyph-name="Ntilde" unicode="&#xd1;" horiz-adv-x="1212" 
d="M739 0l-282 1135l-15 -78l-229 -1057h-180l309 1434h221l279 -1117l14 78l225 1039h181l-310 -1434h-213zM842 1573q-41 26 -60.5 34.5t-38.5 8.5q-24 0 -46.5 -21t-59.5 -77l-84 36q58 100 101 139.5t96 39.5q23 0 45 -9.5t77 -42.5q43 -27 62 -36t37 -9q24 0 46 21
t60 78l82 -37q-55 -98 -99 -138t-95 -40q-26 0 -51.5 11t-71.5 42z" />
    <glyph glyph-name="Ograve" unicode="&#xd2;" horiz-adv-x="1212" 
d="M907 137q-157 -157 -360 -157t-319.5 138t-116.5 382q0 236 75 452q76 219 201 344q158 158 363 158q202 0 318 -138t116 -382q0 -230 -78 -455q-78 -221 -199 -342zM991 948q0 161 -66.5 250.5t-185.5 89.5q-113 0 -209 -96q-93 -93 -161 -303q-66 -213 -66 -404
q0 -161 66.5 -250.5t185.5 -89.5q112 0 209 97q96 96 160 303q67 207 67 403zM776 1735l137 -197h-139l-223 197h225z" />
    <glyph glyph-name="Oacute" unicode="&#xd3;" horiz-adv-x="1212" 
d="M907 137q-157 -157 -360 -157t-319.5 138t-116.5 382q0 236 75 452q76 219 201 344q158 158 363 158q202 0 318 -138t116 -382q0 -230 -78 -455q-78 -221 -199 -342zM991 948q0 161 -66.5 250.5t-185.5 89.5q-113 0 -209 -96q-93 -93 -161 -303q-66 -213 -66 -404
q0 -161 66.5 -250.5t185.5 -89.5q112 0 209 97q96 96 160 303q67 207 67 403zM905 1735h242l-309 -197h-150z" />
    <glyph glyph-name="Ocircumflex" unicode="&#xd4;" horiz-adv-x="1212" 
d="M907 137q-157 -157 -360 -157t-319.5 138t-116.5 382q0 236 75 452q76 219 201 344q158 158 363 158q202 0 318 -138t116 -382q0 -230 -78 -455q-78 -221 -199 -342zM991 948q0 161 -66.5 250.5t-185.5 89.5q-113 0 -209 -96q-93 -93 -161 -303q-66 -213 -66 -404
q0 -161 66.5 -250.5t185.5 -89.5q112 0 209 97q96 96 160 303q67 207 67 403zM1055 1538h-123l-101 107l-147 -107h-131l213 203h162z" />
    <glyph glyph-name="Otilde" unicode="&#xd5;" horiz-adv-x="1212" 
d="M907 137q-157 -157 -360 -157t-319.5 138t-116.5 382q0 236 75 452q76 219 201 344q158 158 363 158q202 0 318 -138t116 -382q0 -230 -78 -455q-78 -221 -199 -342zM991 948q0 161 -66.5 250.5t-185.5 89.5q-113 0 -209 -96q-93 -93 -161 -303q-66 -213 -66 -404
q0 -161 66.5 -250.5t185.5 -89.5q112 0 209 97q96 96 160 303q67 207 67 403zM817 1585q-41 26 -60 34.5t-38 8.5q-25 0 -47.5 -21t-59.5 -77l-84 37q58 99 101 138.5t96 39.5q23 0 46 -9.5t77 -41.5q44 -28 62 -36.5t36 -8.5q25 0 47.5 21t59.5 77l82 -37
q-55 -98 -99.5 -138t-95.5 -40q-26 0 -51.5 11t-71.5 42z" />
    <glyph glyph-name="Odieresis" unicode="&#xd6;" horiz-adv-x="1212" 
d="M907 137q-157 -157 -360 -157t-319.5 138t-116.5 382q0 236 75 452q76 219 201 344q158 158 363 158q202 0 318 -138t116 -382q0 -230 -78 -455q-78 -221 -199 -342zM991 948q0 161 -66.5 250.5t-185.5 89.5q-113 0 -209 -96q-93 -93 -161 -303q-66 -213 -66 -404
q0 -161 66.5 -250.5t185.5 -89.5q112 0 209 97q96 96 160 303q67 207 67 403zM614 1708h154l-35 -170h-153zM911 1708h154l-37 -170h-154z" />
    <glyph glyph-name="multiply" unicode="&#xd7;" horiz-adv-x="999" 
d="M645 719l225 -285l-120 -96l-220 289l-350 -289l-88 108l350 289l-225 285l121 96l219 -289l350 289l88 -110z" />
    <glyph glyph-name="Oslash" unicode="&#xd8;" horiz-adv-x="1212" 
d="M528 1192q-93 -93 -161 -303t-68 -402q0 -93 23 -161l600 878q-66 84 -183 84q-121 0 -211 -96zM555 145q116 0 213 97q96 96 160 301q67 207 67 403q0 90 -22 164l-600 -881q66 -84 182 -84zM907 137q-157 -157 -360 -157q-172 0 -279 98l-125 -174h-151l196 268
q-77 133 -77 328q0 236 75 452q76 219 201 344q158 158 363 158q168 0 278 -98l123 174h152l-197 -268q78 -135 78 -328q0 -230 -78 -455q-78 -221 -199 -342z" />
    <glyph glyph-name="Ugrave" unicode="&#xd9;" horiz-adv-x="1183" 
d="M1051 1434h192l-211 -994q-51 -227 -178.5 -342.5t-325.5 -115.5q-191 0 -300 102.5t-109 282.5q0 85 22 178l189 889h192l-194 -924q-17 -73 -17 -129q0 -108 61 -169.5t167 -61.5q113 0 191.5 79t113.5 228zM768 1714l137 -196h-139l-223 196h225z" />
    <glyph glyph-name="Uacute" unicode="&#xda;" horiz-adv-x="1183" 
d="M1051 1434h192l-211 -994q-51 -227 -178.5 -342.5t-325.5 -115.5q-191 0 -300 102.5t-109 282.5q0 85 22 178l189 889h192l-194 -924q-17 -73 -17 -129q0 -108 61 -169.5t167 -61.5q113 0 191.5 79t113.5 228zM897 1714h242l-310 -196h-149z" />
    <glyph glyph-name="Ucircumflex" unicode="&#xdb;" horiz-adv-x="1183" 
d="M1051 1434h192l-211 -994q-51 -227 -178.5 -342.5t-325.5 -115.5q-191 0 -300 102.5t-109 282.5q0 85 22 178l189 889h192l-194 -924q-17 -73 -17 -129q0 -108 61 -169.5t167 -61.5q113 0 191.5 79t113.5 228zM1049 1526h-123l-101 106l-147 -106h-131l213 203h162z" />
    <glyph glyph-name="Udieresis" unicode="&#xdc;" horiz-adv-x="1183" 
d="M1051 1434h192l-211 -994q-51 -227 -178.5 -342.5t-325.5 -115.5q-191 0 -300 102.5t-109 282.5q0 85 22 178l189 889h192l-194 -924q-17 -73 -17 -129q0 -108 61 -169.5t167 -61.5q113 0 191.5 79t113.5 228zM608 1696h154l-35 -170h-154zM905 1696h154l-37 -170h-154z
" />
    <glyph glyph-name="Yacute" unicode="&#xdd;" horiz-adv-x="1077" 
d="M1249 1434l-612 -881l-119 -553h-192l120 559l-231 875h199l166 -689l454 689h215zM840 1714h241l-309 -196h-149z" />
    <glyph glyph-name="Thorn" unicode="&#xde;" horiz-adv-x="1054" 
d="M842 815q0 227 -264 227h-129l-138 -632h127q187 0 293 106q51 51 81 131.5t30 167.5zM874 408q-166 -166 -448 -166h-152l-51 -242h-190l309 1434h190l-49 -226h117q214 0 325 -96t111 -281q0 -125 -42 -235t-120 -188z" />
    <glyph glyph-name="germandbls" unicode="&#xdf;" horiz-adv-x="1081" 
d="M971 383q0 -172 -107 -285q-107 -110 -272 -110q-117 0 -209 43l35 155q77 -41 166 -41q92 0 150.5 65.5t58.5 168.5q0 88 -58 158.5t-180 130.5l31 139q148 68 229.5 163t81.5 201q0 73 -43.5 115.5t-118.5 42.5q-98 0 -166.5 -71.5t-97.5 -206.5l-225 -1051h-178
l192 897h-133l33 154h135l4 22q44 198 159 304t287 106q155 0 242.5 -78t87.5 -215q0 -141 -84.5 -262.5t-236.5 -196.5q217 -124 217 -348z" />
    <glyph glyph-name="agrave" unicode="&#xe0;" horiz-adv-x="913" 
d="M197 283q0 -67 39.5 -105.5t107.5 -38.5q93 0 197 66l69 297q-74 12 -139 12q-127 0 -200.5 -62.5t-73.5 -168.5zM713 186l-23 -186h-149l-11 96q-127 -110 -262 -110q-113 0 -179 73t-66 197q0 183 115 290t311 107q98 0 192 -20l16 69q11 45 11 80q0 62 -44.5 94.5
t-129.5 32.5q-113 0 -246 -47l-19 146q152 57 310 57q146 0 227.5 -66t81.5 -184q0 -47 -14 -115zM571 1419l117 -235h-115l-215 235h213z" />
    <glyph glyph-name="aacute" unicode="&#xe1;" horiz-adv-x="913" 
d="M197 283q0 -67 39.5 -105.5t107.5 -38.5q93 0 197 66l69 297q-74 12 -139 12q-127 0 -200.5 -62.5t-73.5 -168.5zM713 186l-23 -186h-149l-11 96q-127 -110 -262 -110q-113 0 -179 73t-66 197q0 183 115 290t311 107q98 0 192 -20l16 69q11 45 11 80q0 62 -44.5 94.5
t-129.5 32.5q-113 0 -246 -47l-19 146q152 57 310 57q146 0 227.5 -66t81.5 -184q0 -47 -14 -115zM711 1419h229l-317 -235h-127z" />
    <glyph glyph-name="acircumflex" unicode="&#xe2;" horiz-adv-x="913" 
d="M197 283q0 -67 39.5 -105.5t107.5 -38.5q93 0 197 66l69 297q-74 12 -139 12q-127 0 -200.5 -62.5t-73.5 -168.5zM713 186l-23 -186h-149l-11 96q-127 -110 -262 -110q-113 0 -179 73t-66 197q0 183 115 290t311 107q98 0 192 -20l16 69q11 45 11 80q0 62 -44.5 94.5
t-129.5 32.5q-113 0 -246 -47l-19 146q152 57 310 57q146 0 227.5 -66t81.5 -184q0 -47 -14 -115zM836 1184h-109l-98 135l-156 -135h-121l226 237h139z" />
    <glyph glyph-name="atilde" unicode="&#xe3;" horiz-adv-x="913" 
d="M197 283q0 -67 39.5 -105.5t107.5 -38.5q93 0 197 66l69 297q-74 12 -139 12q-127 0 -200.5 -62.5t-73.5 -168.5zM713 186l-23 -186h-149l-11 96q-127 -110 -262 -110q-113 0 -179 73t-66 197q0 183 115 290t311 107q98 0 192 -20l16 69q11 45 11 80q0 62 -44.5 94.5
t-129.5 32.5q-113 0 -246 -47l-19 146q152 57 310 57q146 0 227.5 -66t81.5 -184q0 -47 -14 -115zM608 1231q-50 31 -66 39t-30 8q-23 0 -41.5 -19t-60.5 -83l-80 34q55 104 97 144.5t93 40.5q26 0 47 -9.5t72 -42.5q50 -31 66 -39t30 -8q25 0 46.5 21.5t56.5 81.5l82 -37
q-57 -104 -98.5 -144t-92.5 -40q-26 0 -50 10.5t-71 42.5z" />
    <glyph glyph-name="adieresis" unicode="&#xe4;" horiz-adv-x="913" 
d="M197 283q0 -67 39.5 -105.5t107.5 -38.5q93 0 197 66l69 297q-74 12 -139 12q-127 0 -200.5 -62.5t-73.5 -168.5zM713 186l-23 -186h-149l-11 96q-127 -110 -262 -110q-113 0 -179 73t-66 197q0 183 115 290t311 107q98 0 192 -20l16 69q11 45 11 80q0 62 -44.5 94.5
t-129.5 32.5q-113 0 -246 -47l-19 146q152 57 310 57q146 0 227.5 -66t81.5 -184q0 -47 -14 -115zM422 1366h145l-37 -174h-145zM700 1366h146l-37 -174h-145z" />
    <glyph glyph-name="aring" unicode="&#xe5;" horiz-adv-x="913" 
d="M197 283q0 -67 39.5 -105.5t107.5 -38.5q93 0 197 66l69 297q-74 12 -139 12q-127 0 -200.5 -62.5t-73.5 -168.5zM713 186l-23 -186h-149l-11 96q-127 -110 -262 -110q-113 0 -179 73t-66 197q0 183 115 290t311 107q98 0 192 -20l16 69q11 45 11 80q0 62 -44.5 94.5
t-129.5 32.5q-113 0 -246 -47l-19 146q152 57 310 57q146 0 227.5 -66t81.5 -184q0 -47 -14 -115zM819 1382q0 -87 -62.5 -149t-152.5 -62q-72 0 -118 43t-46 111q0 87 64 148q63 63 153 63q72 0 117 -43t45 -111zM510 1329q0 -45 27.5 -71.5t74.5 -26.5q57 0 97.5 42.5
t40.5 102.5q0 45 -27 73t-74 28q-57 0 -98 -44t-41 -104z" />
    <glyph glyph-name="ae" unicode="&#xe6;" horiz-adv-x="1435" 
d="M1225 725q0 94 -39 145.5t-111 51.5q-86 0 -163.5 -92t-114.5 -238h411q17 83 17 133zM197 283q0 -67 40 -105.5t109 -38.5q115 0 264 115q-12 52 -12 117q0 67 12 131q-74 12 -139 12q-127 0 -200.5 -62.5t-73.5 -168.5zM1219 188l16 -145q-130 -59 -277 -59
q-218 0 -305 153q-104 -79 -190 -115t-172 -36q-123 0 -195.5 73t-72.5 197q0 183 115 290t311 107q100 0 190 -20l16 72q11 43 11 77q0 62 -45.5 94.5t-131.5 32.5q-108 0 -241 -47l-19 146q146 57 293 57q112 0 185.5 -42t99.5 -120q126 170 293 170q135 0 212 -94
t77 -260q0 -142 -46 -273h-575q-1 -19 -2.5 -41t-1.5 -30q0 -117 57.5 -177.5t167.5 -60.5q116 0 230 51z" />
    <glyph glyph-name="ccedilla" unicode="&#xe7;" horiz-adv-x="772" 
d="M494 -168q0 -133 -349 -133l9 70q186 3 186 57q0 34 -104 31l-19 37l90 102q-121 31 -184.5 128t-63.5 251q0 167 55.5 319t149.5 246q127 127 307 127q123 0 242 -61l-59 -152q-92 51 -179 51q-98 0 -186 -82q-67 -67 -108 -184.5t-41 -239.5q0 -124 55.5 -189
t161.5 -65q65 0 153 31l6 -153q-103 -39 -198 -39l-64 -66q140 -3 140 -86z" />
    <glyph glyph-name="egrave" unicode="&#xe8;" horiz-adv-x="897" 
d="M684 725q0 92 -39 144.5t-108 52.5q-86 0 -164 -92t-115 -238h412q14 72 14 133zM680 188l14 -145q-133 -59 -274 -59q-173 0 -267 100.5t-94 286.5q0 165 60 325q62 160 160 258q119 119 278 119q136 0 214.5 -95t78.5 -259q0 -145 -45 -273h-578q-1 -19 -2.5 -41
t-1.5 -30q0 -117 58 -177.5t168 -60.5q117 0 231 51zM573 1419l117 -235h-115l-215 235h213z" />
    <glyph glyph-name="eacute" unicode="&#xe9;" horiz-adv-x="897" 
d="M684 725q0 92 -39 144.5t-108 52.5q-86 0 -164 -92t-115 -238h412q14 72 14 133zM680 188l14 -145q-133 -59 -274 -59q-173 0 -267 100.5t-94 286.5q0 165 60 325q62 160 160 258q119 119 278 119q136 0 214.5 -95t78.5 -259q0 -145 -45 -273h-578q-1 -19 -2.5 -41
t-1.5 -30q0 -117 58 -177.5t168 -60.5q117 0 231 51zM713 1419h229l-317 -235h-127z" />
    <glyph glyph-name="ecircumflex" unicode="&#xea;" horiz-adv-x="897" 
d="M684 725q0 92 -39 144.5t-108 52.5q-86 0 -164 -92t-115 -238h412q14 72 14 133zM680 188l14 -145q-133 -59 -274 -59q-173 0 -267 100.5t-94 286.5q0 165 60 325q62 160 160 258q119 119 278 119q136 0 214.5 -95t78.5 -259q0 -145 -45 -273h-578q-1 -19 -2.5 -41
t-1.5 -30q0 -117 58 -177.5t168 -60.5q117 0 231 51zM838 1184h-109l-98 135l-156 -135h-121l226 237h139z" />
    <glyph glyph-name="edieresis" unicode="&#xeb;" horiz-adv-x="897" 
d="M684 725q0 92 -39 144.5t-108 52.5q-86 0 -164 -92t-115 -238h412q14 72 14 133zM680 188l14 -145q-133 -59 -274 -59q-173 0 -267 100.5t-94 286.5q0 165 60 325q62 160 160 258q119 119 278 119q136 0 214.5 -95t78.5 -259q0 -145 -45 -273h-578q-1 -19 -2.5 -41
t-1.5 -30q0 -117 58 -177.5t168 -60.5q117 0 231 51zM424 1366h145l-37 -174h-145zM702 1366h146l-37 -174h-145z" />
    <glyph glyph-name="igrave" unicode="&#xec;" horiz-adv-x="440" 
d="M244 1051h180l-227 -1051h-181zM338 1417l117 -235h-115l-215 235h213z" />
    <glyph glyph-name="iacute" unicode="&#xed;" horiz-adv-x="440" 
d="M244 1051h180l-227 -1051h-181zM477 1417h230l-318 -235h-127z" />
    <glyph glyph-name="icircumflex" unicode="&#xee;" horiz-adv-x="440" 
d="M244 1051h180l-227 -1051h-181zM602 1182h-108l-99 135l-155 -135h-121l225 237h139z" />
    <glyph glyph-name="idieresis" unicode="&#xef;" horiz-adv-x="440" 
d="M244 1051h180l-227 -1051h-181zM188 1364h146l-37 -174h-145zM467 1364h145l-37 -174h-145z" />
    <glyph glyph-name="eth" unicode="&#xf0;" horiz-adv-x="927" 
d="M645 102q-119 -122 -280 -122q-146 0 -229 96t-83 266q0 250 133 436q132 187 320 187q106 0 209 -62q-9 165 -97 279l-131 -111h-159l223 178q-63 57 -176 109l94 131q131 -58 213 -131l143 119h160l-235 -187q135 -170 135 -430q0 -224 -68 -440q-68 -214 -172 -318z
M225 344q0 -98 41 -154.5t113 -56.5q75 0 141 66q68 68 117 217q50 152 65 332q-94 67 -186 67q-114 0 -203 -147q-88 -143 -88 -324z" />
    <glyph glyph-name="ntilde" unicode="&#xf1;" horiz-adv-x="976" 
d="M721 770q0 66 -36.5 101.5t-102.5 35.5q-97 0 -213 -80l-176 -827h-181l228 1051h141l10 -90q144 104 277 104q113 0 177 -63t64 -173q0 -63 -16 -129l-150 -700h-178l146 684q10 34 10 86zM639 1231q-50 31 -66 39t-30 8q-23 0 -42 -19t-61 -83l-80 34
q55 104 97.5 144.5t93.5 40.5q26 0 47 -9.5t72 -42.5q50 -31 66 -39t30 -8q25 0 46 21.5t56 81.5l82 -37q-57 -104 -98 -144t-92 -40q-26 0 -50 10.5t-71 42.5z" />
    <glyph glyph-name="ograve" unicode="&#xf2;" horiz-adv-x="935" 
d="M668 98q-118 -118 -279 -118q-153 0 -241.5 105t-88.5 288q0 170 58 325q61 162 153 254q121 121 277 121q153 0 241.5 -105t88.5 -288q0 -171 -56.5 -328.5t-152.5 -253.5zM236 367q0 -108 45 -171t120 -63q76 0 142 66q66 69 112 209q47 146 47 276q0 108 -45 171
t-120 63q-76 0 -142 -66q-67 -67 -112 -207q-47 -146 -47 -278zM573 1419l117 -235h-115l-215 235h213z" />
    <glyph glyph-name="oacute" unicode="&#xf3;" horiz-adv-x="935" 
d="M668 98q-118 -118 -279 -118q-153 0 -241.5 105t-88.5 288q0 170 58 325q61 162 153 254q121 121 277 121q153 0 241.5 -105t88.5 -288q0 -171 -56.5 -328.5t-152.5 -253.5zM236 367q0 -108 45 -171t120 -63q76 0 142 66q66 69 112 209q47 146 47 276q0 108 -45 171
t-120 63q-76 0 -142 -66q-67 -67 -112 -207q-47 -146 -47 -278zM713 1419h229l-317 -235h-127z" />
    <glyph glyph-name="ocircumflex" unicode="&#xf4;" horiz-adv-x="935" 
d="M668 98q-118 -118 -279 -118q-153 0 -241.5 105t-88.5 288q0 170 58 325q61 162 153 254q121 121 277 121q153 0 241.5 -105t88.5 -288q0 -171 -56.5 -328.5t-152.5 -253.5zM236 367q0 -108 45 -171t120 -63q76 0 142 66q66 69 112 209q47 146 47 276q0 108 -45 171
t-120 63q-76 0 -142 -66q-67 -67 -112 -207q-47 -146 -47 -278zM838 1184h-109l-98 135l-156 -135h-121l226 237h139z" />
    <glyph glyph-name="otilde" unicode="&#xf5;" horiz-adv-x="935" 
d="M668 98q-118 -118 -279 -118q-153 0 -241.5 105t-88.5 288q0 170 58 325q61 162 153 254q121 121 277 121q153 0 241.5 -105t88.5 -288q0 -171 -56.5 -328.5t-152.5 -253.5zM236 367q0 -108 45 -171t120 -63q76 0 142 66q66 69 112 209q47 146 47 276q0 108 -45 171
t-120 63q-76 0 -142 -66q-67 -67 -112 -207q-47 -146 -47 -278zM610 1231q-50 31 -66 39t-30 8q-23 0 -41.5 -19t-60.5 -83l-80 34q55 104 97 144.5t93 40.5q26 0 47 -9.5t72 -42.5q50 -31 66 -39t30 -8q25 0 46.5 21.5t56.5 81.5l82 -37q-57 -104 -98.5 -144t-92.5 -40
q-26 0 -50 10.5t-71 42.5z" />
    <glyph glyph-name="odieresis" unicode="&#xf6;" horiz-adv-x="935" 
d="M668 98q-118 -118 -279 -118q-153 0 -241.5 105t-88.5 288q0 170 58 325q61 162 153 254q121 121 277 121q153 0 241.5 -105t88.5 -288q0 -171 -56.5 -328.5t-152.5 -253.5zM236 367q0 -108 45 -171t120 -63q76 0 142 66q66 69 112 209q47 146 47 276q0 108 -45 171
t-120 63q-76 0 -142 -66q-67 -67 -112 -207q-47 -146 -47 -278zM424 1366h145l-37 -174h-145zM702 1366h146l-37 -174h-145z" />
    <glyph glyph-name="divide" unicode="&#xf7;" horiz-adv-x="999" 
d="M551 1167h178l-39 -174h-176zM150 799h819l-31 -146l-410 2l-411 -2zM395 461h178l-38 -174h-177z" />
    <glyph glyph-name="oslash" unicode="&#xf8;" horiz-adv-x="935" 
d="M393 856q-68 -68 -117 -211q-47 -143 -47 -276q0 -63 15 -109l405 614q-42 48 -110 48q-80 0 -146 -66zM399 129q78 0 146 68t114 211q50 145 50 276q0 43 -15 109l-407 -615q40 -49 112 -49zM668 98q-118 -118 -279 -118q-109 0 -192 59l-93 -135h-133l152 217
q-64 103 -64 252q0 170 58 325q61 162 153 254q121 121 277 121q109 0 192 -59l92 133h134l-150 -215q62 -103 62 -252q0 -171 -56.5 -328.5t-152.5 -253.5z" />
    <glyph glyph-name="ugrave" unicode="&#xf9;" horiz-adv-x="976" 
d="M965 1051l-228 -1051h-141l-10 90q-144 -104 -277 -104q-113 0 -177 62.5t-64 172.5q0 63 16 129l149 701h179l-146 -684q-10 -42 -10 -86q0 -66 36.5 -102t102.5 -36q92 0 211 80l178 828h181zM596 1409l117 -235h-115l-215 235h213z" />
    <glyph glyph-name="uacute" unicode="&#xfa;" horiz-adv-x="976" 
d="M965 1051l-228 -1051h-141l-10 90q-144 -104 -277 -104q-113 0 -177 62.5t-64 172.5q0 63 16 129l149 701h179l-146 -684q-10 -42 -10 -86q0 -66 36.5 -102t102.5 -36q92 0 211 80l178 828h181zM735 1409h230l-318 -235h-127z" />
    <glyph glyph-name="ucircumflex" unicode="&#xfb;" horiz-adv-x="976" 
d="M965 1051l-228 -1051h-141l-10 90q-144 -104 -277 -104q-113 0 -177 62.5t-64 172.5q0 63 16 129l149 701h179l-146 -684q-10 -42 -10 -86q0 -66 36.5 -102t102.5 -36q92 0 211 80l178 828h181zM862 1182h-108l-99 135l-155 -135h-121l225 237h139z" />
    <glyph glyph-name="udieresis" unicode="&#xfc;" horiz-adv-x="976" 
d="M965 1051l-228 -1051h-141l-10 90q-144 -104 -277 -104q-113 0 -177 62.5t-64 172.5q0 63 16 129l149 701h179l-146 -684q-10 -42 -10 -86q0 -66 36.5 -102t102.5 -36q92 0 211 80l178 828h181zM449 1364h145l-37 -174h-145zM727 1364h145l-36 -174h-146z" />
    <glyph glyph-name="yacute" unicode="&#xfd;" horiz-adv-x="888" 
d="M-51 -360l-21 155q103 30 175.5 74t134.5 113l-84 1069h176l41 -889l407 889h187l-506 -1014q-87 -172 -205 -264q-111 -86 -305 -133zM694 1409h230l-318 -235h-127z" />
    <glyph glyph-name="thorn" unicode="&#xfe;" horiz-adv-x="958" 
d="M403 133q89 0 160 74q66 66 113 203q45 134 45 272q0 110 -45 171.5t-123 61.5q-76 0 -176 -65l-139 -641q82 -76 165 -76zM690 94q-110 -110 -256 -110q-118 0 -227 86l-90 -420h-180l395 1827h180l-109 -500q119 88 226 88q125 0 197.5 -95.5t72.5 -262.5
q0 -191 -57 -353q-55 -164 -152 -260z" />
    <glyph glyph-name="ydieresis" unicode="&#xff;" horiz-adv-x="888" 
d="M-51 -360l-21 155q103 30 175.5 74t134.5 113l-84 1069h176l41 -889l407 889h187l-506 -1014q-87 -172 -205 -264q-111 -86 -305 -133zM408 1364h145l-37 -174h-145zM686 1364h145l-36 -174h-146z" />
    <glyph glyph-name="Amacron" unicode="&#x100;" horiz-adv-x="1153" 
d="M739 1245l-368 -756h407zM887 1448l108 -1448h-192l-17 322h-497l-156 -322h-201l732 1448h223zM559 1651h520l-24 -107h-518z" />
    <glyph glyph-name="amacron" unicode="&#x101;" horiz-adv-x="913" 
d="M197 283q0 -67 39.5 -105.5t107.5 -38.5q93 0 197 66l69 297q-74 12 -139 12q-127 0 -200.5 -62.5t-73.5 -168.5zM713 186l-23 -186h-149l-11 96q-127 -110 -262 -110q-113 0 -179 73t-66 197q0 183 115 290t311 107q98 0 192 -20l16 69q11 45 11 80q0 62 -44.5 94.5
t-129.5 32.5q-113 0 -246 -47l-19 146q152 57 310 57q146 0 227.5 -66t81.5 -184q0 -47 -14 -115zM389 1309h465l-23 -105h-464z" />
    <glyph glyph-name="Abreve" unicode="&#x102;" horiz-adv-x="1153" 
d="M739 1245l-368 -756h407zM887 1448l108 -1448h-192l-17 322h-497l-156 -322h-201l732 1448h223zM813 1638q110 0 160 113h108q-31 -104 -106.5 -164.5t-175.5 -60.5q-103 0 -158 60.5t-47 164.5h102q9 -113 117 -113z" />
    <glyph glyph-name="abreve" unicode="&#x103;" horiz-adv-x="913" 
d="M197 283q0 -67 39.5 -105.5t107.5 -38.5q93 0 197 66l69 297q-74 12 -139 12q-127 0 -200.5 -62.5t-73.5 -168.5zM713 186l-23 -186h-149l-11 96q-127 -110 -262 -110q-113 0 -179 73t-66 197q0 183 115 290t311 107q98 0 192 -20l16 69q11 45 11 80q0 62 -44.5 94.5
t-129.5 32.5q-113 0 -246 -47l-19 146q152 57 310 57q146 0 227.5 -66t81.5 -184q0 -47 -14 -115zM614 1286q110 0 162 133h101q-26 -112 -101.5 -178.5t-175.5 -66.5q-104 0 -155.5 67t-34.5 178h94q0 -133 110 -133z" />
    <glyph glyph-name="Aogonek" unicode="&#x104;" horiz-adv-x="1153" 
d="M739 1245l-368 -756h407zM854 -145q0 -19 24 -30.5t85 -21.5l-29 -84q-127 6 -183.5 30t-56.5 71q0 37 31.5 77t110.5 103h-33l-17 322h-497l-156 -322h-201l732 1448h223l108 -1448h-39q-61 -67 -81.5 -96t-20.5 -49z" />
    <glyph glyph-name="aogonek" unicode="&#x105;" horiz-adv-x="913" 
d="M197 283q0 -67 39.5 -105.5t107.5 -38.5q93 0 197 66l69 297q-74 12 -139 12q-127 0 -200.5 -62.5t-73.5 -168.5zM571 -145q0 -19 24 -30.5t85 -21.5l-29 -84q-127 6 -183 30t-56 71q0 37 31.5 77t109.5 103h-12l-11 96q-127 -110 -262 -110q-113 0 -179 73t-66 197
q0 183 115 290t311 107q98 0 192 -20l16 69q11 45 11 80q0 62 -44.5 94.5t-129.5 32.5q-113 0 -246 -47l-19 146q152 57 310 57q146 0 227.5 -66t81.5 -184q0 -47 -14 -115l-121 -514l-23 -186h-16q-62 -68 -82.5 -96.5t-20.5 -48.5z" />
    <glyph glyph-name="Cacute" unicode="&#x106;" horiz-adv-x="997" 
d="M588 -14q-223 0 -348 142t-125 398q0 222 72.5 422.5t197.5 325.5q174 174 420 174q172 0 309 -70l-63 -170q-124 62 -250 62q-158 0 -279 -121q-98 -98 -155 -264q-58 -165 -58 -344t83 -278t235 -99q103 0 215 41v-174q-116 -45 -254 -45zM924 1735h241l-309 -197h-149
z" />
    <glyph glyph-name="cacute" unicode="&#x107;" horiz-adv-x="772" 
d="M610 176l6 -153q-103 -39 -200 -39q-171 0 -264 101.5t-93 289.5q0 167 55.5 319t149.5 246q127 127 307 127q123 0 242 -61l-59 -152q-92 51 -179 51q-98 0 -186 -82q-67 -67 -108 -184.5t-41 -239.5q0 -124 55.5 -189t161.5 -65q65 0 153 31zM719 1419h229l-317 -235
h-127z" />
    <glyph glyph-name="Ccircumflex" unicode="&#x108;" horiz-adv-x="997" 
d="M588 -14q-223 0 -348 142t-125 398q0 222 72.5 422.5t197.5 325.5q174 174 420 174q172 0 309 -70l-63 -170q-124 62 -250 62q-158 0 -279 -121q-98 -98 -155 -264q-58 -165 -58 -344t83 -278t235 -99q103 0 215 41v-174q-116 -45 -254 -45zM1073 1538h-123l-100 107
l-148 -107h-131l213 203h162z" />
    <glyph glyph-name="ccircumflex" unicode="&#x109;" horiz-adv-x="772" 
d="M610 176l6 -153q-103 -39 -200 -39q-171 0 -264 101.5t-93 289.5q0 167 55.5 319t149.5 246q127 127 307 127q123 0 242 -61l-59 -152q-92 51 -179 51q-98 0 -186 -82q-67 -67 -108 -184.5t-41 -239.5q0 -124 55.5 -189t161.5 -65q65 0 153 31zM844 1184h-109l-98 135
l-156 -135h-121l226 237h139z" />
    <glyph glyph-name="Cdotaccent" unicode="&#x10a;" horiz-adv-x="997" 
d="M588 -14q-223 0 -348 142t-125 398q0 222 72.5 422.5t197.5 325.5q174 174 420 174q172 0 309 -70l-63 -170q-124 62 -250 62q-158 0 -279 -121q-98 -98 -155 -264q-58 -165 -58 -344t83 -278t235 -99q103 0 215 41v-174q-116 -45 -254 -45zM778 1708h160l-35 -170h-162z
" />
    <glyph glyph-name="cdotaccent" unicode="&#x10b;" horiz-adv-x="772" 
d="M610 176l6 -153q-103 -39 -200 -39q-171 0 -264 101.5t-93 289.5q0 167 55.5 319t149.5 246q127 127 307 127q123 0 242 -61l-59 -152q-92 51 -179 51q-98 0 -186 -82q-67 -67 -108 -184.5t-41 -239.5q0 -124 55.5 -189t161.5 -65q65 0 153 31zM567 1366h152l-37 -174
h-152z" />
    <glyph glyph-name="Ccaron" unicode="&#x10c;" horiz-adv-x="997" 
d="M588 -14q-223 0 -348 142t-125 398q0 222 72.5 422.5t197.5 325.5q174 174 420 174q172 0 309 -70l-63 -170q-124 62 -250 62q-158 0 -279 -121q-98 -98 -155 -264q-58 -165 -58 -344t83 -278t235 -99q103 0 215 41v-174q-116 -45 -254 -45zM614 1741h123l101 -107
l147 107h131l-213 -203h-162z" />
    <glyph glyph-name="ccaron" unicode="&#x10d;" horiz-adv-x="772" 
d="M610 176l6 -153q-103 -39 -200 -39q-171 0 -264 101.5t-93 289.5q0 167 55.5 319t149.5 246q127 127 307 127q123 0 242 -61l-59 -152q-92 51 -179 51q-98 0 -186 -82q-67 -67 -108 -184.5t-41 -239.5q0 -124 55.5 -189t161.5 -65q65 0 153 31zM412 1421h110l96 -135
l158 135h121l-225 -237h-140z" />
    <glyph glyph-name="Dcaron" unicode="&#x10e;" horiz-adv-x="1173" 
d="M946 903q0 177 -90.5 270t-261.5 93h-96l-236 -1098h115q224 0 368 147q94 97 146 252q55 158 55 336zM344 0h-311l309 1434h252q264 0 405.5 -134.5t141.5 -386.5q0 -216 -67 -402t-189 -308q-203 -203 -541 -203zM571 1729h123l101 -107l147 107h131l-213 -203h-162z
" />
    <glyph glyph-name="dcaron" unicode="&#x10f;" horiz-adv-x="958" 
d="M240 369q0 -110 46 -173t126 -63q71 0 172 66l139 641q-84 75 -166 75q-95 0 -160 -71q-64 -61 -112 -203q-45 -131 -45 -272zM1038 1477l-319 -1477h-139l-11 86q-123 -102 -235 -102q-125 0 -200 97t-75 263q0 185 58 350q59 168 151 260q114 111 260 111
q116 0 226 -84l106 496h178zM1167 1477h123q-22 -107 -57 -170q-34 -66 -119 -148l-51 31q39 62 62.5 126t41.5 161z" />
    <glyph glyph-name="Dcroat" unicode="&#x110;" horiz-adv-x="1191" 
d="M416 803h258l-31 -139h-258l-106 -496h116q224 0 371 147q91 97 143 252q56 160 56 336q0 177 -91 270t-262 93h-98zM362 0h-311l144 664h-125l30 141h125l135 629h252q264 0 405.5 -134.5t141.5 -386.5q0 -217 -67.5 -404.5t-188.5 -305.5q-203 -203 -541 -203z" />
    <glyph glyph-name="dslash" unicode="&#x111;" horiz-adv-x="958" 
d="M240 365q0 -108 46 -170t126 -62q71 0 172 66l137 635q-85 73 -164 73q-91 0 -162 -71q-64 -61 -112 -201q-43 -130 -43 -270zM979 1200l-260 -1200h-139l-11 86q-123 -102 -235 -102q-125 0 -200 96.5t-75 261.5q0 183 57 346t152 258q111 111 258 111q117 0 226 -86
l49 229h-250l27 115h247l35 162h178l-34 -162h102l-27 -115h-100z" />
    <glyph glyph-name="Emacron" unicode="&#x112;" horiz-adv-x="1030" 
d="M870 172l-36 -172h-801l309 1434h788l-36 -172h-596l-95 -441h529l-37 -170h-528l-105 -479h608zM530 1642h521l-25 -106h-518z" />
    <glyph glyph-name="emacron" unicode="&#x113;" horiz-adv-x="897" 
d="M684 725q0 92 -39 144.5t-108 52.5q-86 0 -164 -92t-115 -238h412q14 72 14 133zM680 188l14 -145q-133 -59 -274 -59q-173 0 -267 100.5t-94 286.5q0 165 60 325q62 160 160 258q119 119 278 119q136 0 214.5 -95t78.5 -259q0 -145 -45 -273h-578q-1 -19 -2.5 -41
t-1.5 -30q0 -117 58 -177.5t168 -60.5q117 0 231 51zM391 1309h465l-22 -105h-465z" />
    <glyph glyph-name="Ebreve" unicode="&#x114;" horiz-adv-x="1030" 
d="M870 172l-36 -172h-801l309 1434h788l-36 -172h-596l-95 -441h529l-37 -170h-528l-105 -479h608zM784 1630q110 0 160 113h109q-31 -104 -107 -164.5t-176 -60.5q-103 0 -158 60.5t-47 164.5h103q9 -113 116 -113z" />
    <glyph glyph-name="ebreve" unicode="&#x115;" horiz-adv-x="897" 
d="M684 725q0 92 -39 144.5t-108 52.5q-86 0 -164 -92t-115 -238h412q14 72 14 133zM680 188l14 -145q-133 -59 -274 -59q-173 0 -267 100.5t-94 286.5q0 165 60 325q62 160 160 258q119 119 278 119q136 0 214.5 -95t78.5 -259q0 -145 -45 -273h-578q-1 -19 -2.5 -41
t-1.5 -30q0 -117 58 -177.5t168 -60.5q117 0 231 51zM616 1286q110 0 162 133h101q-26 -112 -101.5 -178.5t-175.5 -66.5q-104 0 -155.5 67t-34.5 178h94q0 -133 110 -133z" />
    <glyph glyph-name="Edotaccent" unicode="&#x116;" horiz-adv-x="1030" 
d="M870 172l-36 -172h-801l309 1434h788l-36 -172h-596l-95 -441h529l-37 -170h-528l-105 -479h608zM721 1696h160l-35 -170h-162z" />
    <glyph glyph-name="edotaccent" unicode="&#x117;" horiz-adv-x="897" 
d="M684 725q0 92 -39 144.5t-108 52.5q-86 0 -164 -92t-115 -238h412q14 72 14 133zM680 188l14 -145q-133 -59 -274 -59q-173 0 -267 100.5t-94 286.5q0 165 60 325q62 160 160 258q119 119 278 119q136 0 214.5 -95t78.5 -259q0 -145 -45 -273h-578q-1 -19 -2.5 -41
t-1.5 -30q0 -117 58 -177.5t168 -60.5q117 0 231 51zM561 1366h152l-37 -174h-152z" />
    <glyph glyph-name="Eogonek" unicode="&#x118;" horiz-adv-x="1030" 
d="M678 -145q0 -19 23.5 -30.5t84.5 -21.5l-28 -84q-127 6 -183.5 30t-56.5 71q0 37 31.5 77t109.5 103h-626l309 1434h788l-36 -172h-596l-95 -441h529l-37 -170h-528l-105 -479h608l-36 -172h-54q-61 -67 -81.5 -96t-20.5 -49z" />
    <glyph glyph-name="eogonek" unicode="&#x119;" horiz-adv-x="897" 
d="M684 725q0 92 -39 144.5t-108 52.5q-86 0 -164 -92t-115 -238h412q14 72 14 133zM545 -145q0 -19 23.5 -30.5t86.5 -21.5l-28 -84q-130 6 -185 29t-55 72q0 36 28 72.5t101 99.5q-41 -8 -96 -8q-173 0 -267 100.5t-94 286.5q0 165 60 325q62 160 160 258q119 119 278 119
q136 0 214.5 -95t78.5 -259q0 -145 -45 -273h-578q-1 -19 -2.5 -41t-1.5 -30q0 -117 58 -177.5t168 -60.5q117 0 231 51l14 -145q-89 -90 -119 -127.5t-30 -60.5z" />
    <glyph glyph-name="Ecaron" unicode="&#x11a;" horiz-adv-x="1030" 
d="M870 172l-36 -172h-801l309 1434h788l-36 -172h-596l-95 -441h529l-37 -170h-528l-105 -479h608zM557 1729h123l100 -107l148 107h131l-213 -203h-162z" />
    <glyph glyph-name="ecaron" unicode="&#x11b;" horiz-adv-x="897" 
d="M684 725q0 92 -39 144.5t-108 52.5q-86 0 -164 -92t-115 -238h412q14 72 14 133zM680 188l14 -145q-133 -59 -274 -59q-173 0 -267 100.5t-94 286.5q0 165 60 325q62 160 160 258q119 119 278 119q136 0 214.5 -95t78.5 -259q0 -145 -45 -273h-578q-1 -19 -2.5 -41
t-1.5 -30q0 -117 58 -177.5t168 -60.5q117 0 231 51zM406 1421h110l96 -135l158 135h121l-225 -237h-140z" />
    <glyph glyph-name="Gcircumflex" unicode="&#x11c;" horiz-adv-x="1163" 
d="M645 782h453l-160 -712q-159 -84 -350 -84q-225 0 -349 140t-124 392q0 220 71 424q74 202 199 328q180 180 432 180q199 0 369 -102l-76 -162q-169 88 -299 88q-167 0 -289 -125q-94 -93 -155 -275q-60 -183 -60 -362q0 -171 79.5 -264.5t225.5 -93.5q76 0 162 28
l96 428h-262zM1092 1538h-123l-101 107l-147 -107h-131l213 203h162z" />
    <glyph glyph-name="gcircumflex" unicode="&#x11d;" horiz-adv-x="956" 
d="M242 387q0 -108 45 -166.5t127 -58.5q74 0 172 61l131 619q-85 73 -164 73q-87 0 -158 -71q-62 -62 -110 -195q-43 -128 -43 -262zM276 -358q-170 0 -321 77l53 146q129 -72 264 -72q221 0 273 230l16 79q-111 -92 -223 -92q-128 0 -201.5 94t-73.5 258q0 182 55.5 342
t149.5 254q109 109 252 109q128 0 236 -102l47 86h141l-227 -1045q-76 -364 -441 -364zM877 1184h-109l-98 135l-156 -135h-121l225 237h140z" />
    <glyph glyph-name="Gbreve" unicode="&#x11e;" horiz-adv-x="1163" 
d="M645 782h453l-160 -712q-159 -84 -350 -84q-225 0 -349 140t-124 392q0 220 71 424q74 202 199 328q180 180 432 180q199 0 369 -102l-76 -162q-169 88 -299 88q-167 0 -289 -125q-94 -93 -155 -275q-60 -183 -60 -362q0 -171 79.5 -264.5t225.5 -93.5q76 0 162 28
l96 428h-262zM860 1642q110 0 160 113h108q-31 -104 -106.5 -164.5t-175.5 -60.5q-103 0 -158 60.5t-47 164.5h102q9 -113 117 -113z" />
    <glyph glyph-name="gbreve" unicode="&#x11f;" horiz-adv-x="956" 
d="M242 387q0 -108 45 -166.5t127 -58.5q74 0 172 61l131 619q-85 73 -164 73q-87 0 -158 -71q-62 -62 -110 -195q-43 -128 -43 -262zM276 -358q-170 0 -321 77l53 146q129 -72 264 -72q221 0 273 230l16 79q-111 -92 -223 -92q-128 0 -201.5 94t-73.5 258q0 182 55.5 342
t149.5 254q109 109 252 109q128 0 236 -102l47 86h141l-227 -1045q-76 -364 -441 -364zM655 1286q110 0 162 133h101q-26 -112 -101.5 -178.5t-175.5 -66.5q-104 0 -155.5 67t-34.5 178h94q0 -133 110 -133z" />
    <glyph glyph-name="Gdotaccent" unicode="&#x120;" horiz-adv-x="1163" 
d="M645 782h453l-160 -712q-159 -84 -350 -84q-225 0 -349 140t-124 392q0 220 71 424q74 202 199 328q180 180 432 180q199 0 369 -102l-76 -162q-169 88 -299 88q-167 0 -289 -125q-94 -93 -155 -275q-60 -183 -60 -362q0 -171 79.5 -264.5t225.5 -93.5q76 0 162 28
l96 428h-262zM797 1708h159l-34 -170h-162z" />
    <glyph glyph-name="gdotaccent" unicode="&#x121;" horiz-adv-x="956" 
d="M242 387q0 -108 45 -166.5t127 -58.5q74 0 172 61l131 619q-85 73 -164 73q-87 0 -158 -71q-62 -62 -110 -195q-43 -128 -43 -262zM276 -358q-170 0 -321 77l53 146q129 -72 264 -72q221 0 273 230l16 79q-111 -92 -223 -92q-128 0 -201.5 94t-73.5 258q0 182 55.5 342
t149.5 254q109 109 252 109q128 0 236 -102l47 86h141l-227 -1045q-76 -364 -441 -364zM600 1366h152l-37 -174h-152z" />
    <glyph glyph-name="uni0122" unicode="&#x122;" horiz-adv-x="1163" 
d="M645 782h453l-160 -712q-159 -84 -350 -84q-225 0 -349 140t-124 392q0 220 71 424q74 202 199 328q180 180 432 180q199 0 369 -102l-76 -162q-169 88 -299 88q-167 0 -289 -125q-94 -93 -155 -275q-60 -183 -60 -362q0 -171 79.5 -264.5t225.5 -93.5q76 0 162 28
l96 428h-262zM430 -201q0 31 -22 74l151 39q23 -45 23 -82q0 -125 -187 -219l-49 51q84 78 84 137z" />
    <glyph glyph-name="uni0123" unicode="&#x123;" horiz-adv-x="956" 
d="M242 387q0 -108 45 -166.5t127 -58.5q74 0 172 61l131 619q-85 73 -164 73q-87 0 -158 -71q-62 -62 -110 -195q-43 -128 -43 -262zM276 -358q-170 0 -321 77l53 146q129 -72 264 -72q221 0 273 230l16 79q-111 -92 -223 -92q-128 0 -201.5 94t-73.5 258q0 182 55.5 342
t149.5 254q109 109 252 109q128 0 236 -102l47 86h141l-227 -1045q-76 -364 -441 -364zM711 1286q0 -31 22 -74l-151 -38q-23 45 -23 81q0 126 186 220l50 -52q-84 -78 -84 -137z" />
    <glyph glyph-name="Hcircumflex" unicode="&#x124;" horiz-adv-x="1214" 
d="M1264 1434l-310 -1434h-192l139 647h-536l-140 -647h-192l309 1434h193l-132 -607h537l131 607h193zM1069 1526h-123l-100 106l-148 -106h-131l213 203h162z" />
    <glyph glyph-name="hcircumflex" unicode="&#x125;" horiz-adv-x="976" 
d="M721 770q0 66 -36.5 101.5t-102.5 35.5q-93 0 -209 -80l-180 -827h-181l320 1477h180l-111 -508q143 96 267 96q113 0 177 -63t64 -173q0 -63 -16 -129l-150 -700h-178l146 684q10 34 10 86zM680 1550h-109l-98 136l-156 -136h-120l225 238h139z" />
    <glyph glyph-name="Hbar" unicode="&#x126;" horiz-adv-x="1251" 
d="M481 1087l-59 -272h534l60 272h-535zM1208 1083l-233 -1083h-195l140 641h-535l-139 -641h-195l234 1083h-123l28 138h125l45 213h195l-47 -215h534l48 215h194l-45 -213h123l-31 -138h-123z" />
    <glyph glyph-name="hbar" unicode="&#x127;" horiz-adv-x="976" 
d="M719 762q0 66 -36.5 101.5t-102.5 35.5q-87 0 -209 -78l-178 -821h-181l260 1200h-104l27 115h102l35 162h180l-35 -162h246l-25 -115h-245l-54 -239q140 96 267 96q112 0 176.5 -63.5t64.5 -172.5q0 -47 -16 -129l-148 -692h-178l144 676q10 42 10 86z" />
    <glyph glyph-name="Itilde" unicode="&#x128;" horiz-adv-x="497" 
d="M348 1434h193l-310 -1434h-192zM477 1573q-41 26 -60 34.5t-38 8.5q-25 0 -47.5 -21t-59.5 -77l-84 36q58 100 101 139.5t96 39.5q23 0 45.5 -9.5t77.5 -42.5q44 -28 62 -36.5t36 -8.5q24 0 47 21t60 78l82 -37q-55 -98 -99.5 -138t-95.5 -40q-26 0 -51.5 11t-71.5 42z
" />
    <glyph glyph-name="itilde" unicode="&#x129;" horiz-adv-x="440" 
d="M244 1051h180l-227 -1051h-181zM375 1229q-50 31 -66 39t-30 8q-23 0 -42 -19t-61 -83l-80 34q55 104 97.5 144.5t93.5 40.5q26 0 47 -9.5t72 -42.5q50 -31 66 -39t30 -8q25 0 46 21.5t56 81.5l82 -37q-57 -104 -98 -144t-92 -40q-26 0 -50 10.5t-71 42.5z" />
    <glyph glyph-name="Imacron" unicode="&#x12a;" horiz-adv-x="497" 
d="M348 1434h193l-310 -1434h-192zM260 1642h457l-23 -106h-456z" />
    <glyph glyph-name="imacron" unicode="&#x12b;" horiz-adv-x="440" 
d="M244 1051h180l-227 -1051h-181zM180 1307h416l-25 -105h-413z" />
    <glyph glyph-name="Ibreve" unicode="&#x12c;" horiz-adv-x="497" 
d="M348 1434h193l-310 -1434h-192zM483 1630q110 0 160 113h109q-31 -104 -107 -164.5t-176 -60.5q-103 0 -158 60.5t-47 164.5h103q9 -113 116 -113z" />
    <glyph glyph-name="ibreve" unicode="&#x12d;" horiz-adv-x="440" 
d="M244 1051h180l-227 -1051h-181zM381 1284q110 0 162 133h100q-26 -112 -101 -179t-175 -67q-104 0 -156 67.5t-35 178.5h94q0 -133 111 -133z" />
    <glyph glyph-name="Iogonek" unicode="&#x12e;" horiz-adv-x="497" 
d="M104 -145q0 -19 24 -30.5t85 -21.5l-29 -84q-127 6 -183 30t-56 71q0 37 31.5 77t109.5 103h-47l309 1434h193l-310 -1434h-24q-62 -68 -82.5 -96.5t-20.5 -48.5z" />
    <glyph glyph-name="iogonek" unicode="&#x12f;" horiz-adv-x="440" 
d="M319 1427h193l-39 -180h-192zM72 -145q0 -19 23.5 -30.5t84.5 -21.5l-28 -84q-127 6 -183.5 30t-56.5 71q0 37 31.5 77t109.5 103h-37l228 1051h180l-227 -1051h-23q-61 -67 -81.5 -96t-20.5 -49z" />
    <glyph glyph-name="Idot" unicode="&#x130;" horiz-adv-x="497" 
d="M348 1434h193l-310 -1434h-192zM420 1696h160l-35 -170h-162z" />
    <glyph glyph-name="dotlessi" unicode="&#x131;" horiz-adv-x="440" 
d="M244 1051h180l-227 -1051h-181z" />
    <glyph glyph-name="Jcircumflex" unicode="&#x134;" horiz-adv-x="806" 
d="M674 1434h192l-221 -1041q-44 -201 -157.5 -303t-290.5 -102q-130 0 -254 53l55 162q96 -45 184 -45q218 0 279 276zM1040 1526h-122l-101 106l-147 -106h-131l213 203h161z" />
    <glyph glyph-name="jcircumflex" unicode="&#x135;" horiz-adv-x="442" 
d="M248 1051h178l-209 -983q-35 -157 -104 -250q-70 -98 -217 -185l-89 115q110 80 162 160t78 203zM606 1182h-108l-99 135l-155 -135h-121l225 237h139z" />
    <glyph glyph-name="uni0136" unicode="&#x136;" horiz-adv-x="1087" 
d="M584 729l370 -729h-213l-354 692h-12l-150 -692h-192l309 1434h193l-142 -652h10l623 652h229zM365 -180q0 29 -23 74l152 38q22 -43 22 -82q0 -125 -186 -219l-49 52q84 78 84 137z" />
    <glyph glyph-name="uni0137" unicode="&#x137;" horiz-adv-x="876" 
d="M487 535l261 -535h-193l-244 514h-8l-110 -514h-181l320 1477h180l-193 -893h9l426 467h209zM264 -180q0 31 -22 74l151 38q23 -45 23 -82q0 -125 -187 -219l-49 52q84 78 84 137z" />
    <glyph glyph-name="Lacute" unicode="&#x139;" horiz-adv-x="909" 
d="M791 174l-37 -174h-721l309 1434h193l-273 -1260h529zM567 1722h242l-309 -196h-150z" />
    <glyph glyph-name="lacute" unicode="&#x13a;" horiz-adv-x="440" 
d="M336 1477h180l-319 -1477h-181zM563 1810h230l-318 -235h-127z" />
    <glyph glyph-name="uni013B" unicode="&#x13b;" horiz-adv-x="909" 
d="M791 174l-37 -174h-721l309 1434h193l-273 -1260h529zM301 -188q0 30 -22 73l151 39q23 -45 23 -82q0 -125 -187 -219l-49 51q84 78 84 138z" />
    <glyph glyph-name="uni013C" unicode="&#x13c;" horiz-adv-x="440" 
d="M336 1477h180l-319 -1477h-181zM14 -188q0 30 -22 73l151 39q23 -45 23 -82q0 -125 -186 -219l-50 51q84 78 84 138z" />
    <glyph glyph-name="Lcaron" unicode="&#x13d;" horiz-adv-x="909" 
d="M791 174l-37 -174h-721l309 1434h193l-273 -1260h529zM682 1434h123q-22 -107 -57 -170q-34 -66 -119 -148l-51 31q39 62 62.5 126t41.5 161z" />
    <glyph glyph-name="lcaron" unicode="&#x13e;" horiz-adv-x="440" 
d="M336 1477h180l-319 -1477h-181zM643 1477h123q-22 -107 -57 -170q-34 -66 -119 -148l-51 31q39 62 62.5 126t41.5 161z" />
    <glyph glyph-name="Lslash" unicode="&#x141;" horiz-adv-x="927" 
d="M811 174l-39 -174h-721l123 565l-139 -67l35 168l139 65l151 703h193l-131 -607l293 146l-35 -168l-293 -143l-106 -488h530z" />
    <glyph glyph-name="lslash" unicode="&#x142;" horiz-adv-x="499" 
d="M379 709l-154 -707l-180 -4l133 616l-137 -73l33 153l137 72l154 709l180 4l-133 -619l139 74l-35 -154z" />
    <glyph glyph-name="Nacute" unicode="&#x143;" horiz-adv-x="1212" 
d="M739 0l-282 1135l-15 -78l-229 -1057h-180l309 1434h221l279 -1117l14 78l225 1039h181l-310 -1434h-213zM928 1714h241l-309 -196h-149z" />
    <glyph glyph-name="nacute" unicode="&#x144;" horiz-adv-x="976" 
d="M721 770q0 66 -36.5 101.5t-102.5 35.5q-97 0 -213 -80l-176 -827h-181l228 1051h141l10 -90q144 104 277 104q113 0 177 -63t64 -173q0 -63 -16 -129l-150 -700h-178l146 684q10 34 10 86zM741 1419h230l-318 -235h-127z" />
    <glyph glyph-name="uni0145" unicode="&#x145;" horiz-adv-x="1212" 
d="M739 0l-282 1135l-15 -78l-229 -1057h-180l309 1434h221l279 -1117l14 78l225 1039h181l-310 -1434h-213zM391 -180q0 31 -22 74l151 38q23 -45 23 -82q0 -125 -187 -219l-49 52q84 78 84 137z" />
    <glyph glyph-name="uni0146" unicode="&#x146;" horiz-adv-x="976" 
d="M721 770q0 66 -36.5 101.5t-102.5 35.5q-97 0 -213 -80l-176 -827h-181l228 1051h141l10 -90q144 104 277 104q113 0 177 -63t64 -173q0 -63 -16 -129l-150 -700h-178l146 684q10 34 10 86zM293 -180q0 29 -23 74l152 38q22 -43 22 -82q0 -125 -186 -219l-49 52
q84 78 84 137z" />
    <glyph glyph-name="Ncaron" unicode="&#x147;" horiz-adv-x="1212" 
d="M739 0l-282 1135l-15 -78l-229 -1057h-180l309 1434h221l279 -1117l14 78l225 1039h181l-310 -1434h-213zM618 1720h123l101 -106l147 106h131l-213 -202h-162z" />
    <glyph glyph-name="ncaron" unicode="&#x148;" horiz-adv-x="976" 
d="M721 770q0 66 -36.5 101.5t-102.5 35.5q-97 0 -213 -80l-176 -827h-181l228 1051h141l10 -90q144 104 277 104q113 0 177 -63t64 -173q0 -63 -16 -129l-150 -700h-178l146 684q10 34 10 86zM434 1421h111l96 -135l158 135h121l-226 -237h-139z" />
    <glyph glyph-name="Eng" unicode="&#x14a;" horiz-adv-x="1212" 
d="M569 -358q-96 0 -170 26l35 168q70 -24 135 -24q75 0 129 51t74 143l2 8l-321 1104l-7 -37l-233 -1081h-180l309 1434h205l309 -1051l8 47l217 1004h181l-308 -1436q-38 -176 -136.5 -266t-248.5 -90z" />
    <glyph glyph-name="eng" unicode="&#x14b;" horiz-adv-x="976" 
d="M440 -367l-92 115q109 76 162 158q53 78 80 205l121 573q10 42 10 86q0 66 -36.5 101.5t-102.5 35.5q-97 0 -213 -80l-176 -827h-181l228 1051h141l10 -90q144 104 277 104q113 0 177 -63t64 -173q0 -63 -16 -129l-133 -630q-36 -161 -105 -254q-72 -101 -215 -183z" />
    <glyph glyph-name="Omacron" unicode="&#x14c;" horiz-adv-x="1212" 
d="M907 137q-157 -157 -360 -157t-319.5 138t-116.5 382q0 236 75 452q76 219 201 344q158 158 363 158q202 0 318 -138t116 -382q0 -230 -78 -455q-78 -221 -199 -342zM991 948q0 161 -66.5 250.5t-185.5 89.5q-113 0 -209 -96q-93 -93 -161 -303q-66 -213 -66 -404
q0 -161 66.5 -250.5t185.5 -89.5q112 0 209 97q96 96 160 303q67 207 67 403zM569 1655h521l-25 -107h-518z" />
    <glyph glyph-name="omacron" unicode="&#x14d;" horiz-adv-x="935" 
d="M668 98q-118 -118 -279 -118q-153 0 -241.5 105t-88.5 288q0 170 58 325q61 162 153 254q121 121 277 121q153 0 241.5 -105t88.5 -288q0 -171 -56.5 -328.5t-152.5 -253.5zM236 367q0 -108 45 -171t120 -63q76 0 142 66q66 69 112 209q47 146 47 276q0 108 -45 171
t-120 63q-76 0 -142 -66q-67 -67 -112 -207q-47 -146 -47 -278zM391 1309h465l-22 -105h-465z" />
    <glyph glyph-name="Obreve" unicode="&#x14e;" horiz-adv-x="1212" 
d="M907 137q-157 -157 -360 -157t-319.5 138t-116.5 382q0 236 75 452q76 219 201 344q158 158 363 158q202 0 318 -138t116 -382q0 -230 -78 -455q-78 -221 -199 -342zM991 948q0 161 -66.5 250.5t-185.5 89.5q-113 0 -209 -96q-93 -93 -161 -303q-66 -213 -66 -404
q0 -161 66.5 -250.5t185.5 -89.5q112 0 209 97q96 96 160 303q67 207 67 403zM823 1642q110 0 160 113h109q-31 -104 -107 -164.5t-176 -60.5q-103 0 -158 60.5t-47 164.5h103q9 -113 116 -113z" />
    <glyph glyph-name="obreve" unicode="&#x14f;" horiz-adv-x="935" 
d="M668 98q-118 -118 -279 -118q-153 0 -241.5 105t-88.5 288q0 170 58 325q61 162 153 254q121 121 277 121q153 0 241.5 -105t88.5 -288q0 -171 -56.5 -328.5t-152.5 -253.5zM236 367q0 -108 45 -171t120 -63q76 0 142 66q66 69 112 209q47 146 47 276q0 108 -45 171
t-120 63q-76 0 -142 -66q-67 -67 -112 -207q-47 -146 -47 -278zM616 1286q110 0 162 133h101q-26 -112 -101.5 -178.5t-175.5 -66.5q-104 0 -155.5 67t-34.5 178h94q0 -133 110 -133z" />
    <glyph glyph-name="Ohungarumlaut" unicode="&#x150;" horiz-adv-x="1212" 
d="M907 137q-157 -157 -360 -157t-319.5 138t-116.5 382q0 236 75 452q76 219 201 344q158 158 363 158q202 0 318 -138t116 -382q0 -230 -78 -455q-78 -221 -199 -342zM991 948q0 161 -66.5 250.5t-185.5 89.5q-113 0 -209 -96q-93 -93 -161 -303q-66 -213 -66 -404
q0 -161 66.5 -250.5t185.5 -89.5q112 0 209 97q96 96 160 303q67 207 67 403zM805 1735h201l-291 -197h-135zM1065 1735h201l-291 -197h-135z" />
    <glyph glyph-name="ohungarumlaut" unicode="&#x151;" horiz-adv-x="935" 
d="M668 98q-118 -118 -279 -118q-153 0 -241.5 105t-88.5 288q0 170 58 325q61 162 153 254q121 121 277 121q153 0 241.5 -105t88.5 -288q0 -171 -56.5 -328.5t-152.5 -253.5zM236 367q0 -108 45 -171t120 -63q76 0 142 66q66 69 112 209q47 146 47 276q0 108 -45 171
t-120 63q-76 0 -142 -66q-67 -67 -112 -207q-47 -146 -47 -278zM612 1419h191l-297 -235h-119zM868 1419h191l-297 -235h-119z" />
    <glyph glyph-name="OE" unicode="&#x152;" horiz-adv-x="1710" 
d="M309 532q0 -172 93.5 -268t259.5 -96h94l233 1098h-110q-224 0 -369 -148q-92 -94 -146.5 -251.5t-54.5 -334.5zM1550 172l-37 -172h-849q-260 0 -404.5 137.5t-144.5 384.5q0 215 67 401t189 308q203 203 540 203h899l-36 -172h-592l-95 -441h525l-37 -170h-524
l-105 -479h604z" />
    <glyph glyph-name="oe" unicode="&#x153;" horiz-adv-x="1517" 
d="M1305 725q0 92 -39.5 144.5t-108.5 52.5q-86 0 -163.5 -92t-114.5 -238h411q15 77 15 133zM236 367q0 -108 45 -171t120 -63q76 0 142 66q66 69 112 209q47 146 47 276q0 109 -44.5 171.5t-122.5 62.5q-74 0 -140 -66q-67 -67 -112 -207q-47 -146 -47 -278zM725 188
q-22 -40 -70 -88q-120 -120 -272 -120q-148 0 -236 106.5t-88 286.5q0 168 56 325q62 165 151 254q121 121 275 121q106 0 182 -56.5t108 -160.5q38 58 78 98q119 119 271 119q135 0 212.5 -94t77.5 -260q0 -145 -45 -273h-577q-1 -19 -2.5 -41t-1.5 -30q0 -117 58 -177.5
t169 -60.5q115 0 229 51l15 -145q-133 -59 -271 -59q-119 0 -200.5 52t-118.5 152z" />
    <glyph glyph-name="Racute" unicode="&#x154;" horiz-adv-x="1126" 
d="M913 1057q0 100 -67.5 154.5t-190.5 54.5h-157l-119 -557h131q199 0 309 110q94 94 94 238zM430 543h-88l-117 -543h-192l309 1434h332q211 0 323.5 -90t112.5 -257q0 -182 -113.5 -311.5t-310.5 -173.5q52 -25 83 -66.5t60 -125.5l162 -410h-213l-141 387
q-32 88 -77 122t-130 34zM848 1722h242l-310 -196h-149z" />
    <glyph glyph-name="racute" unicode="&#x155;" horiz-adv-x="649" 
d="M354 748l-161 -748h-181l228 1051h139l-2 -162q159 176 348 176l-41 -188q-181 -9 -330 -129zM612 1417h230l-318 -235h-127z" />
    <glyph glyph-name="uni0156" unicode="&#x156;" horiz-adv-x="1126" 
d="M913 1057q0 100 -67.5 154.5t-190.5 54.5h-157l-119 -557h131q199 0 309 110q94 94 94 238zM430 543h-88l-117 -543h-192l309 1434h332q211 0 323.5 -90t112.5 -257q0 -182 -113.5 -311.5t-310.5 -173.5q52 -25 83 -66.5t60 -125.5l162 -410h-213l-141 387
q-32 88 -77 122t-130 34zM381 -180q0 29 -23 74l152 38q22 -43 22 -82q0 -125 -186 -219l-49 52q84 78 84 137z" />
    <glyph glyph-name="uni0157" unicode="&#x157;" horiz-adv-x="649" 
d="M354 748l-161 -748h-181l228 1051h139l-2 -162q159 176 348 176l-41 -188q-181 -9 -330 -129zM12 -188q0 30 -22 73l151 39q23 -45 23 -82q0 -125 -187 -219l-49 51q84 78 84 138z" />
    <glyph glyph-name="Rcaron" unicode="&#x158;" horiz-adv-x="1126" 
d="M913 1057q0 100 -67.5 154.5t-190.5 54.5h-157l-119 -557h131q199 0 309 110q94 94 94 238zM430 543h-88l-117 -543h-192l309 1434h332q211 0 323.5 -90t112.5 -257q0 -182 -113.5 -311.5t-310.5 -173.5q52 -25 83 -66.5t60 -125.5l162 -410h-213l-141 387
q-32 88 -77 122t-130 34zM539 1729h123l100 -107l147 107h131l-213 -203h-161z" />
    <glyph glyph-name="rcaron" unicode="&#x159;" horiz-adv-x="649" 
d="M354 748l-161 -748h-181l228 1051h139l-2 -162q159 176 348 176l-41 -188q-181 -9 -330 -129zM305 1419h111l96 -135l158 135h121l-226 -237h-139z" />
    <glyph glyph-name="Sacute" unicode="&#x15a;" horiz-adv-x="1013" 
d="M446 156q118 0 194.5 66t76.5 169q0 66 -45 123t-172 152q-167 110 -224 194q-59 86 -59 201q0 164 125 274q125 113 317 113q214 0 390 -113l-82 -159q-156 102 -314 102q-105 0 -174 -59.5t-69 -147.5q0 -62 39 -113q39 -50 174 -147q157 -103 223 -199q63 -86 63 -204
q0 -189 -131 -308q-128 -116 -342 -116q-243 0 -438 127l78 165q184 -120 370 -120zM831 1735h242l-309 -197h-150z" />
    <glyph glyph-name="sacute" unicode="&#x15b;" horiz-adv-x="821" 
d="M348 137q79 0 127.5 39.5t48.5 102.5q0 52 -32 92t-121 94q-124 73 -175 140.5t-51 158.5q0 132 97 217q100 86 252 86q160 0 311 -96l-68 -148q-140 90 -254 90q-72 0 -119 -38.5t-47 -98.5q0 -47 31 -82.5t125 -95.5q123 -69 174 -138.5t51 -166.5q0 -140 -96 -225.5
t-254 -85.5q-194 0 -368 112l65 150q158 -107 303 -107zM672 1419h229l-317 -235h-127z" />
    <glyph glyph-name="Scircumflex" unicode="&#x15c;" horiz-adv-x="1013" 
d="M446 156q118 0 194.5 66t76.5 169q0 66 -45 123t-172 152q-167 110 -224 194q-59 86 -59 201q0 164 125 274q125 113 317 113q214 0 390 -113l-82 -159q-156 102 -314 102q-105 0 -174 -59.5t-69 -147.5q0 -62 39 -113q39 -50 174 -147q157 -103 223 -199q63 -86 63 -204
q0 -189 -131 -308q-128 -116 -342 -116q-243 0 -438 127l78 165q184 -120 370 -120zM981 1538h-123l-100 107l-148 -107h-131l213 203h162z" />
    <glyph glyph-name="scircumflex" unicode="&#x15d;" horiz-adv-x="821" 
d="M348 137q79 0 127.5 39.5t48.5 102.5q0 52 -32 92t-121 94q-124 73 -175 140.5t-51 158.5q0 132 97 217q100 86 252 86q160 0 311 -96l-68 -148q-140 90 -254 90q-72 0 -119 -38.5t-47 -98.5q0 -47 31 -82.5t125 -95.5q123 -69 174 -138.5t51 -166.5q0 -140 -96 -225.5
t-254 -85.5q-194 0 -368 112l65 150q158 -107 303 -107zM797 1184h-109l-98 135l-156 -135h-121l226 237h139z" />
    <glyph glyph-name="uni015E" unicode="&#x15e;" horiz-adv-x="1013" 
d="M522 -168q0 -133 -348 -133l8 70q187 3 187 57q0 34 -105 31l-18 37l84 96q-190 25 -332 121l78 165q184 -120 370 -120q118 0 194.5 66t76.5 169q0 66 -45 123t-172 152q-167 110 -224 194q-59 86 -59 201q0 164 125 274q125 113 317 113q214 0 390 -113l-82 -159
q-156 102 -314 102q-105 0 -174 -59.5t-69 -147.5q0 -62 39 -113q39 -50 174 -147q157 -103 223 -199q63 -86 63 -204q0 -186 -129 -306q-127 -118 -334 -118l-63 -66q139 -3 139 -86z" />
    <glyph glyph-name="uni015F" unicode="&#x15f;" horiz-adv-x="821" 
d="M430 -168q0 -133 -348 -133l8 70q186 3 186 57q0 34 -104 31l-18 37l84 96q-140 25 -258 104l65 150q158 -107 303 -107q79 0 127.5 39.5t48.5 102.5q0 52 -32 92t-121 94q-124 73 -175 140.5t-51 158.5q0 132 97 217q100 86 252 86q160 0 311 -96l-68 -148
q-140 90 -254 90q-72 0 -119 -38.5t-47 -98.5q0 -47 31 -82.5t125 -95.5q123 -69 174 -138.5t51 -166.5q0 -139 -96 -225t-250 -86l-61 -64q139 -3 139 -86z" />
    <glyph glyph-name="Scaron" unicode="&#x160;" horiz-adv-x="1013" 
d="M446 156q118 0 194.5 66t76.5 169q0 66 -45 123t-172 152q-167 110 -224 194q-59 86 -59 201q0 164 125 274q125 113 317 113q214 0 390 -113l-82 -159q-156 102 -314 102q-105 0 -174 -59.5t-69 -147.5q0 -62 39 -113q39 -50 174 -147q157 -103 223 -199q63 -86 63 -204
q0 -189 -131 -308q-128 -116 -342 -116q-243 0 -438 127l78 165q184 -120 370 -120zM522 1741h123l100 -107l148 107h131l-213 -203h-162z" />
    <glyph glyph-name="scaron" unicode="&#x161;" horiz-adv-x="821" 
d="M348 137q79 0 127.5 39.5t48.5 102.5q0 52 -32 92t-121 94q-124 73 -175 140.5t-51 158.5q0 132 97 217q100 86 252 86q160 0 311 -96l-68 -148q-140 90 -254 90q-72 0 -119 -38.5t-47 -98.5q0 -47 31 -82.5t125 -95.5q123 -69 174 -138.5t51 -166.5q0 -140 -96 -225.5
t-254 -85.5q-194 0 -368 112l65 150q158 -107 303 -107zM365 1421h110l96 -135l158 135h121l-225 -237h-140z" />
    <glyph glyph-name="uni0162" unicode="&#x162;" horiz-adv-x="1038" 
d="M532 -168q0 -133 -348 -133l9 70q186 3 186 57q0 34 -105 31l-18 37l92 106h-41l275 1262h-383l39 172h954l-39 -172h-379l-272 -1262h-29l-80 -82q139 -3 139 -86z" />
    <glyph glyph-name="uni0163" unicode="&#x163;" horiz-adv-x="673" 
d="M430 -168q0 -133 -348 -133l8 70q186 3 186 57q0 34 -104 31l-18 37l96 110q-135 51 -135 203q0 40 14 117l129 573h-131l33 154h133l65 286h177l-66 -286h256l-33 -154h-258l-127 -567q-10 -39 -10 -78q0 -54 33.5 -82.5t93.5 -28.5q30 0 117 17l-33 -156
q-69 -16 -141 -16h-11l-65 -68q139 -3 139 -86z" />
    <glyph glyph-name="Tcaron" unicode="&#x164;" horiz-adv-x="1038" 
d="M238 1434h954l-39 -172h-379l-272 -1262h-195l275 1262h-383zM528 1729h123l101 -107l147 107h131l-213 -203h-162z" />
    <glyph glyph-name="tcaron" unicode="&#x165;" horiz-adv-x="673" 
d="M541 158l-33 -156q-69 -16 -141 -16q-121 0 -186.5 57.5t-65.5 163.5q0 40 14 117l129 573h-131l33 154h133l65 286h177l-66 -286h256l-33 -154h-258l-127 -567q-10 -39 -10 -78q0 -54 33.5 -82.5t93.5 -28.5q30 0 117 17zM690 1470h123q-22 -107 -57 -170
q-33 -64 -119 -147l-51 31q39 63 62.5 126t41.5 160z" />
    <glyph glyph-name="Tbar" unicode="&#x166;" horiz-adv-x="1038" 
d="M670 774h209l-31 -143h-211l-135 -631h-195l137 631h-211l33 143h209l107 488h-383l39 172h954l-39 -172h-379z" />
    <glyph glyph-name="tbar" unicode="&#x167;" horiz-adv-x="673" 
d="M541 156l-33 -154q-69 -16 -141 -16q-121 0 -186.5 57.5t-65.5 163.5q0 40 14 117l37 163h-115l27 117h115l67 295h-133l33 152h133l65 286h177l-66 -286h256l-33 -152h-256l-67 -295h194l-26 -117h-193l-37 -159q-10 -39 -10 -78q0 -54 33.5 -82.5t93.5 -28.5
q30 0 117 17z" />
    <glyph glyph-name="Utilde" unicode="&#x168;" horiz-adv-x="1183" 
d="M1051 1434h192l-211 -994q-51 -227 -178.5 -342.5t-325.5 -115.5q-191 0 -300 102.5t-109 282.5q0 85 22 178l189 889h192l-194 -924q-17 -73 -17 -129q0 -108 61 -169.5t167 -61.5q113 0 191.5 79t113.5 228zM811 1573q-41 26 -60 34.5t-38 8.5q-25 0 -47.5 -21
t-59.5 -77l-84 36q58 100 101 139.5t96 39.5q23 0 45.5 -9.5t77.5 -42.5q44 -28 62 -36.5t36 -8.5q24 0 47 21t60 78l81 -37q-55 -98 -99 -138t-95 -40q-26 0 -51.5 11t-71.5 42z" />
    <glyph glyph-name="utilde" unicode="&#x169;" horiz-adv-x="976" 
d="M965 1051l-228 -1051h-141l-10 90q-144 -104 -277 -104q-113 0 -177 62.5t-64 172.5q0 63 16 129l149 701h179l-146 -684q-10 -42 -10 -86q0 -66 36.5 -102t102.5 -36q92 0 211 80l178 828h181zM635 1229q-50 31 -66 39t-30 8q-23 0 -42 -19t-61 -83l-80 34
q55 104 97.5 144.5t93.5 40.5q26 0 47 -9.5t72 -42.5q50 -31 66 -39t30 -8q25 0 46 21.5t56 81.5l82 -37q-57 -104 -98 -144t-92 -40q-26 0 -50 10.5t-71 42.5z" />
    <glyph glyph-name="Umacron" unicode="&#x16a;" horiz-adv-x="1183" 
d="M1051 1434h192l-211 -994q-51 -227 -178.5 -342.5t-325.5 -115.5q-191 0 -300 102.5t-109 282.5q0 85 22 178l189 889h192l-194 -924q-17 -73 -17 -129q0 -108 61 -169.5t167 -61.5q113 0 191.5 79t113.5 228zM563 1642h520l-24 -106h-518z" />
    <glyph glyph-name="umacron" unicode="&#x16b;" horiz-adv-x="976" 
d="M965 1051l-228 -1051h-141l-10 90q-144 -104 -277 -104q-113 0 -177 62.5t-64 172.5q0 63 16 129l149 701h179l-146 -684q-10 -42 -10 -86q0 -66 36.5 -102t102.5 -36q92 0 211 80l178 828h181zM416 1307h465l-23 -105h-465z" />
    <glyph glyph-name="Ubreve" unicode="&#x16c;" horiz-adv-x="1183" 
d="M1051 1434h192l-211 -994q-51 -227 -178.5 -342.5t-325.5 -115.5q-191 0 -300 102.5t-109 282.5q0 85 22 178l189 889h192l-194 -924q-17 -73 -17 -129q0 -108 61 -169.5t167 -61.5q113 0 191.5 79t113.5 228zM815 1622q110 0 160 113h108q-31 -104 -106.5 -165
t-175.5 -61q-103 0 -158 61t-47 165h102q9 -113 117 -113z" />
    <glyph glyph-name="ubreve" unicode="&#x16d;" horiz-adv-x="976" 
d="M965 1051l-228 -1051h-141l-10 90q-144 -104 -277 -104q-113 0 -177 62.5t-64 172.5q0 63 16 129l149 701h179l-146 -684q-10 -42 -10 -86q0 -66 36.5 -102t102.5 -36q92 0 211 80l178 828h181zM639 1276q110 0 162 133h100q-26 -112 -101 -179t-175 -67
q-104 0 -156 67.5t-35 178.5h94q0 -133 111 -133z" />
    <glyph glyph-name="Uring" unicode="&#x16e;" horiz-adv-x="1183" 
d="M1051 1434h192l-211 -994q-51 -227 -178.5 -342.5t-325.5 -115.5q-191 0 -300 102.5t-109 282.5q0 85 22 178l189 889h192l-194 -924q-17 -73 -17 -129q0 -108 61 -169.5t167 -61.5q113 0 191.5 79t113.5 228zM629 1663q0 88 65.5 149.5t161.5 61.5q75 0 124.5 -44.5
t49.5 -113.5q0 -85 -67 -149q-65 -62 -160 -62q-75 0 -124.5 44.5t-49.5 113.5zM700 1667q0 -45 30 -72.5t79 -27.5q62 0 105.5 42.5t43.5 102.5q0 44 -29.5 71t-78.5 27q-63 0 -106.5 -41.5t-43.5 -101.5z" />
    <glyph glyph-name="uring" unicode="&#x16f;" horiz-adv-x="976" 
d="M965 1051l-228 -1051h-141l-10 90q-144 -104 -277 -104q-113 0 -177 62.5t-64 172.5q0 63 16 129l149 701h179l-146 -684q-10 -42 -10 -86q0 -66 36.5 -102t102.5 -36q92 0 211 80l178 828h181zM844 1372q0 -87 -62.5 -149t-152.5 -62q-72 0 -118 43t-46 111q0 87 63 147
q64 64 154 64q72 0 117 -43t45 -111zM535 1319q0 -45 27.5 -71.5t74.5 -26.5q57 0 97 42.5t40 102.5q0 45 -26.5 72.5t-73.5 27.5q-57 0 -98 -43.5t-41 -103.5z" />
    <glyph glyph-name="Uhungarumlaut" unicode="&#x170;" horiz-adv-x="1183" 
d="M1051 1434h192l-211 -994q-51 -227 -178.5 -342.5t-325.5 -115.5q-191 0 -300 102.5t-109 282.5q0 85 22 178l189 889h192l-194 -924q-17 -73 -17 -129q0 -108 61 -169.5t167 -61.5q113 0 191.5 79t113.5 228zM799 1722h200l-290 -196h-136zM1059 1722h201l-291 -196
h-135z" />
    <glyph glyph-name="uhungarumlaut" unicode="&#x171;" horiz-adv-x="976" 
d="M965 1051l-228 -1051h-141l-10 90q-144 -104 -277 -104q-113 0 -177 62.5t-64 172.5q0 63 16 129l149 701h179l-146 -684q-10 -42 -10 -86q0 -66 36.5 -102t102.5 -36q92 0 211 80l178 828h181zM637 1417h190l-297 -235h-118zM893 1417h190l-297 -235h-118z" />
    <glyph glyph-name="Uogonek" unicode="&#x172;" horiz-adv-x="1183" 
d="M586 -197l-29 -84q-127 6 -183.5 30t-56.5 71q0 35 27.5 71.5t99.5 96.5q-154 23 -239.5 122t-85.5 257q0 85 22 178l189 889h192l-194 -924q-17 -73 -17 -129q0 -108 61 -169.5t167 -61.5q113 0 191.5 79t113.5 228l207 977h192l-211 -994q-47 -217 -165 -332.5
t-302 -125.5q-51 -55 -69.5 -82t-18.5 -45q0 -19 24 -30.5t85 -21.5z" />
    <glyph glyph-name="uogonek" unicode="&#x173;" horiz-adv-x="976" 
d="M623 -145q0 -19 23.5 -30.5t84.5 -21.5l-29 -84q-127 6 -183 30t-56 71q0 37 31.5 77t109.5 103h-8l-10 90q-144 -104 -277 -104q-113 0 -177 62.5t-64 172.5q0 63 16 129l149 701h179l-146 -684q-10 -42 -10 -86q0 -66 36.5 -102t102.5 -36q92 0 211 80l178 828h181
l-228 -1051h-12q-61 -67 -81.5 -96t-20.5 -49z" />
    <glyph glyph-name="Wcircumflex" unicode="&#x174;" horiz-adv-x="1705" 
d="M1847 1434l-624 -1444h-213l-27 1161l-528 -1161h-211l2 1444h192l-26 -1162l526 1162h213l18 -1162l480 1162h198zM1311 1526h-123l-101 106l-147 -106h-131l213 203h162z" />
    <glyph glyph-name="wcircumflex" unicode="&#x175;" horiz-adv-x="1366" 
d="M1436 1051l-482 -1059h-182l-29 819l-383 -819h-186l-18 1059h172l-13 -846l392 846h174l20 -844l354 844h181zM1061 1182h-109l-98 135l-156 -135h-120l225 237h139z" />
    <glyph glyph-name="Ycircumflex" unicode="&#x176;" horiz-adv-x="1077" 
d="M1249 1434l-612 -881l-119 -553h-192l120 559l-231 875h199l166 -689l454 689h215zM991 1526h-123l-100 106l-147 -106h-132l213 203h162z" />
    <glyph glyph-name="ycircumflex" unicode="&#x177;" horiz-adv-x="888" 
d="M-51 -360l-21 155q103 30 175.5 74t134.5 113l-84 1069h176l41 -889l407 889h187l-506 -1014q-87 -172 -205 -264q-111 -86 -305 -133zM821 1182h-108l-99 135l-155 -135h-121l225 237h139z" />
    <glyph glyph-name="Ydieresis" unicode="&#x178;" horiz-adv-x="1077" 
d="M1249 1434l-612 -881l-119 -553h-192l120 559l-231 875h199l166 -689l454 689h215zM551 1696h154l-35 -170h-154zM848 1696h153l-36 -170h-154z" />
    <glyph glyph-name="Zacute" unicode="&#x179;" horiz-adv-x="1011" 
d="M233 172h646l-37 -172h-871l33 160l858 1102h-618l37 172h841l-32 -160zM813 1722h242l-310 -196h-149z" />
    <glyph glyph-name="zacute" unicode="&#x17a;" horiz-adv-x="821" 
d="M188 152h490l-35 -152h-684l29 141l633 758h-463l35 152h661l-31 -142zM668 1417h229l-317 -235h-127z" />
    <glyph glyph-name="Zdotaccent" unicode="&#x17b;" horiz-adv-x="1011" 
d="M233 172h646l-37 -172h-871l33 160l858 1102h-618l37 172h841l-32 -160zM668 1696h159l-34 -170h-162z" />
    <glyph glyph-name="zdotaccent" unicode="&#x17c;" horiz-adv-x="821" 
d="M188 152h490l-35 -152h-684l29 141l633 758h-463l35 152h661l-31 -142zM516 1364h152l-37 -174h-152z" />
    <glyph glyph-name="Zcaron" unicode="&#x17d;" horiz-adv-x="1011" 
d="M233 172h646l-37 -172h-871l33 160l858 1102h-618l37 172h841l-32 -160zM504 1729h123l100 -107l147 107h132l-213 -203h-162z" />
    <glyph glyph-name="zcaron" unicode="&#x17e;" horiz-adv-x="821" 
d="M188 152h490l-35 -152h-684l29 141l633 758h-463l35 152h661l-31 -142zM360 1419h111l96 -135l158 135h121l-225 -237h-140z" />
    <glyph glyph-name="uni018F" unicode="&#x18f;" horiz-adv-x="1148" 
d="M838 137q-151 -157 -365 -157q-177 0 -275 127t-98 358q0 152 45 350h777q8 55 8 129q0 165 -71 253.5t-202 88.5q-146 0 -305 -90l-35 154q181 104 375 104q207 0 318.5 -129.5t111.5 -370.5q0 -225 -80 -460q-76 -229 -204 -357zM291 453q0 -147 54 -227.5t153 -80.5
q109 0 202 93q57 57 108.5 167.5t82.5 243.5h-582q-18 -95 -18 -196z" />
    <glyph glyph-name="Ohorn" unicode="&#x1a0;" horiz-adv-x="1212" 
d="M907 137q-157 -157 -360 -157t-319.5 137.5t-116.5 378.5q0 237 75 450q76 216 201 344q158 158 381 158q11 0 23 -0.5t32 -1.5t39 -2q23 0 46.5 -1t29.5 -1q123 0 189 43t67 125q2 15 -6 57l133 37q12 -40 12 -80q0 -118 -82.5 -193t-228.5 -85q162 -138 162 -418
q0 -227 -78 -449q-78 -221 -199 -342zM991 948q0 158 -66.5 247t-185.5 89q-113 0 -209 -96q-93 -90 -161 -301q-66 -213 -66 -406q0 -158 66.5 -247t185.5 -89q112 0 209 97q96 96 160 303q67 207 67 403z" />
    <glyph glyph-name="ohorn" unicode="&#x1a1;" horiz-adv-x="935" 
d="M668 98q-118 -118 -279 -118q-152 0 -241 104.5t-89 284.5q0 168 57.5 325t153.5 250q115 121 287 121q20 0 45 -2q31 -2 55 -2q100 0 160 44t62 118q3 25 -5 47l125 37q13 -41 13 -74q0 -100 -65.5 -168.5t-180.5 -87.5q111 -111 111 -303q0 -167 -57.5 -324.5
t-151.5 -251.5zM236 367q0 -108 45 -171t120 -63q76 0 142 66q65 65 112 207q47 146 47 274q0 108 -45 170.5t-120 62.5t-142 -67t-112 -207q-47 -143 -47 -272z" />
    <glyph glyph-name="Uhorn" unicode="&#x1af;" horiz-adv-x="1236" 
d="M528 -18q-191 0 -300 102.5t-109 282.5q0 85 22 178l189 889h192l-194 -924q-17 -73 -17 -129q0 -108 61 -169.5t167 -61.5q113 0 191.5 79t113.5 228l207 977h26q128 0 199 46t76 128q0 32 -9 59l134 37q14 -43 14 -82q0 -103 -70.5 -175.5t-195.5 -98.5l-193 -908
q-51 -227 -178.5 -342.5t-325.5 -115.5z" />
    <glyph glyph-name="uhorn" unicode="&#x1b0;" horiz-adv-x="1017" 
d="M737 0h-141l-10 90q-144 -104 -277 -104q-113 0 -177 62.5t-64 172.5q0 63 16 129l149 701h179l-146 -684q-10 -42 -10 -86q0 -66 36.5 -102t102.5 -36q92 0 211 80l178 828h19q114 0 180 46t68 122q3 25 -4 53l124 35q13 -41 13 -74q0 -96 -62.5 -165t-173.5 -95z" />
    <glyph glyph-name="uni01CD" unicode="&#x1cd;" horiz-adv-x="1153" 
d="M739 1245l-368 -756h407zM887 1448l108 -1448h-192l-17 322h-497l-156 -322h-201l732 1448h223zM586 1737h123l100 -107l147 107h131l-213 -203h-161z" />
    <glyph glyph-name="uni01CE" unicode="&#x1ce;" horiz-adv-x="913" 
d="M197 283q0 -67 39.5 -105.5t107.5 -38.5q93 0 197 66l69 297q-74 12 -139 12q-127 0 -200.5 -62.5t-73.5 -168.5zM713 186l-23 -186h-149l-11 96q-127 -110 -262 -110q-113 0 -179 73t-66 197q0 183 115 290t311 107q98 0 192 -20l16 69q11 45 11 80q0 62 -44.5 94.5
t-129.5 32.5q-113 0 -246 -47l-19 146q152 57 310 57q146 0 227.5 -66t81.5 -184q0 -47 -14 -115zM403 1421h111l96 -135l158 135h121l-225 -237h-140z" />
    <glyph glyph-name="uni01CF" unicode="&#x1cf;" horiz-adv-x="497" 
d="M348 1434h193l-310 -1434h-192zM256 1729h123l100 -107l148 107h131l-213 -203h-162z" />
    <glyph glyph-name="uni01D0" unicode="&#x1d0;" horiz-adv-x="440" 
d="M244 1051h180l-227 -1051h-181zM170 1419h111l96 -135l158 135h120l-225 -237h-139z" />
    <glyph glyph-name="uni01D1" unicode="&#x1d1;" horiz-adv-x="1212" 
d="M907 137q-157 -157 -360 -157t-319.5 138t-116.5 382q0 236 75 452q76 219 201 344q158 158 363 158q202 0 318 -138t116 -382q0 -230 -78 -455q-78 -221 -199 -342zM991 948q0 161 -66.5 250.5t-185.5 89.5q-113 0 -209 -96q-93 -93 -161 -303q-66 -213 -66 -404
q0 -161 66.5 -250.5t185.5 -89.5q112 0 209 97q96 96 160 303q67 207 67 403zM596 1741h123l100 -107l148 107h131l-213 -203h-162z" />
    <glyph glyph-name="uni01D2" unicode="&#x1d2;" horiz-adv-x="935" 
d="M668 98q-118 -118 -279 -118q-153 0 -241.5 105t-88.5 288q0 170 58 325q61 162 153 254q121 121 277 121q153 0 241.5 -105t88.5 -288q0 -171 -56.5 -328.5t-152.5 -253.5zM236 367q0 -108 45 -171t120 -63q76 0 142 66q66 69 112 209q47 146 47 276q0 108 -45 171
t-120 63q-76 0 -142 -66q-67 -67 -112 -207q-47 -146 -47 -278zM406 1421h110l96 -135l158 135h121l-225 -237h-140z" />
    <glyph glyph-name="uni01D3" unicode="&#x1d3;" horiz-adv-x="1183" 
d="M1051 1434h192l-211 -994q-51 -227 -178.5 -342.5t-325.5 -115.5q-191 0 -300 102.5t-109 282.5q0 85 22 178l189 889h192l-194 -924q-17 -73 -17 -129q0 -108 61 -169.5t167 -61.5q113 0 191.5 79t113.5 228zM588 1720h123l100 -106l147 106h132l-213 -202h-162z" />
    <glyph glyph-name="uni01D4" unicode="&#x1d4;" horiz-adv-x="976" 
d="M965 1051l-228 -1051h-141l-10 90q-144 -104 -277 -104q-113 0 -177 62.5t-64 172.5q0 63 16 129l149 701h179l-146 -684q-10 -42 -10 -86q0 -66 36.5 -102t102.5 -36q92 0 211 80l178 828h181zM428 1411h111l96 -135l158 135h120l-225 -237h-139z" />
    <glyph glyph-name="uni01D5" unicode="&#x1d5;" horiz-adv-x="1183" 
d="M1051 1434h192l-211 -994q-51 -227 -178.5 -342.5t-325.5 -115.5q-191 0 -300 102.5t-109 282.5q0 85 22 178l189 889h192l-194 -924q-17 -73 -17 -129q0 -108 61 -169.5t167 -61.5q113 0 191.5 79t113.5 228zM631 1870h483l-22 -105h-484zM608 1694h154l-35 -168h-154z
M905 1694h154l-37 -168h-154z" />
    <glyph glyph-name="uni01D6" unicode="&#x1d6;" horiz-adv-x="976" 
d="M965 1051l-228 -1051h-141l-10 90q-144 -104 -277 -104q-113 0 -177 62.5t-64 172.5q0 63 16 129l149 701h179l-146 -684q-10 -42 -10 -86q0 -66 36.5 -102t102.5 -36q92 0 211 80l178 828h181zM473 1542h453l-23 -102h-450zM449 1362h145l-37 -172h-145zM727 1362h145
l-36 -172h-146z" />
    <glyph glyph-name="uni01D7" unicode="&#x1d7;" horiz-adv-x="1183" 
d="M1051 1434h192l-211 -994q-51 -227 -178.5 -342.5t-325.5 -115.5q-191 0 -300 102.5t-109 282.5q0 85 22 178l189 889h192l-194 -924q-17 -73 -17 -129q0 -108 61 -169.5t167 -61.5q113 0 191.5 79t113.5 228zM934 1925h240l-281 -170h-150zM608 1694h154l-35 -168h-154z
M905 1694h154l-37 -168h-154z" />
    <glyph glyph-name="uni01D8" unicode="&#x1d8;" horiz-adv-x="976" 
d="M965 1051l-228 -1051h-141l-10 90q-144 -104 -277 -104q-113 0 -177 62.5t-64 172.5q0 63 16 129l149 701h179l-146 -684q-10 -42 -10 -86q0 -66 36.5 -102t102.5 -36q92 0 211 80l178 828h181zM766 1626h223l-280 -196h-125zM449 1362h145l-37 -172h-145zM727 1362h145
l-36 -172h-146z" />
    <glyph glyph-name="uni01D9" unicode="&#x1d9;" horiz-adv-x="1183" 
d="M1051 1434h192l-211 -994q-51 -227 -178.5 -342.5t-325.5 -115.5q-191 0 -300 102.5t-109 282.5q0 85 22 178l189 889h192l-194 -924q-17 -73 -17 -129q0 -108 61 -169.5t167 -61.5q113 0 191.5 79t113.5 228zM1008 1931h131l-211 -176h-160l-135 176h123l106 -82z
M608 1694h154l-35 -168h-154zM905 1694h154l-37 -168h-154z" />
    <glyph glyph-name="uni01DA" unicode="&#x1da;" horiz-adv-x="976" 
d="M965 1051l-228 -1051h-141l-10 90q-144 -104 -277 -104q-113 0 -177 62.5t-64 172.5q0 63 16 129l149 701h179l-146 -684q-10 -42 -10 -86q0 -66 36.5 -102t102.5 -36q92 0 211 80l178 828h181zM842 1628h121l-220 -198h-137l-133 198h111l106 -100zM449 1362h145
l-37 -172h-145zM727 1362h145l-36 -172h-146z" />
    <glyph glyph-name="uni01DB" unicode="&#x1db;" horiz-adv-x="1183" 
d="M1051 1434h192l-211 -994q-51 -227 -178.5 -342.5t-325.5 -115.5q-191 0 -300 102.5t-109 282.5q0 85 22 178l189 889h192l-194 -924q-17 -73 -17 -129q0 -108 61 -169.5t167 -61.5q113 0 191.5 79t113.5 228zM602 1925h221l123 -170h-137zM608 1694h154l-35 -168h-154z
M905 1694h154l-37 -168h-154z" />
    <glyph glyph-name="uni01DC" unicode="&#x1dc;" horiz-adv-x="976" 
d="M965 1051l-228 -1051h-141l-10 90q-144 -104 -277 -104q-113 0 -177 62.5t-64 172.5q0 63 16 129l149 701h179l-146 -684q-10 -42 -10 -86q0 -66 36.5 -102t102.5 -36q92 0 211 80l178 828h181zM662 1626l98 -196h-113l-194 196h209zM449 1362h145l-37 -172h-145z
M727 1362h145l-36 -172h-146z" />
    <glyph glyph-name="Gcaron" unicode="&#x1e6;" horiz-adv-x="1163" 
d="M645 782h453l-160 -712q-159 -84 -350 -84q-225 0 -349 140t-124 392q0 220 71 424q74 202 199 328q180 180 432 180q199 0 369 -102l-76 -162q-169 88 -299 88q-167 0 -289 -125q-94 -93 -155 -275q-60 -183 -60 -362q0 -171 79.5 -264.5t225.5 -93.5q76 0 162 28
l96 428h-262zM633 1741h123l100 -107l148 107h131l-213 -203h-162z" />
    <glyph glyph-name="gcaron" unicode="&#x1e7;" horiz-adv-x="956" 
d="M242 387q0 -108 45 -166.5t127 -58.5q74 0 172 61l131 619q-85 73 -164 73q-87 0 -158 -71q-62 -62 -110 -195q-43 -128 -43 -262zM276 -358q-170 0 -321 77l53 146q129 -72 264 -72q221 0 273 230l16 79q-111 -92 -223 -92q-128 0 -201.5 94t-73.5 258q0 182 55.5 342
t149.5 254q109 109 252 109q128 0 236 -102l47 86h141l-227 -1045q-76 -364 -441 -364zM444 1421h111l96 -135l158 135h121l-225 -237h-140z" />
    <glyph glyph-name="uni01EA" unicode="&#x1ea;" horiz-adv-x="1212" 
d="M602 -197l-29 -84q-127 6 -183 30t-56 71q0 34 28 70t99 98q-166 29 -258 163t-92 349q0 236 75 452q76 219 201 344q158 158 363 158q202 0 318 -138t116 -382q0 -230 -78 -455q-78 -221 -199 -342q-146 -146 -327 -155q-50 -57 -68 -83t-18 -44q0 -19 23.5 -30.5
t84.5 -21.5zM991 948q0 161 -66.5 250.5t-185.5 89.5q-113 0 -209 -96q-93 -93 -161 -303q-66 -213 -66 -404q0 -161 66.5 -250.5t185.5 -89.5q112 0 209 97q96 96 160 303q67 207 67 403z" />
    <glyph glyph-name="uni01EB" unicode="&#x1eb;" horiz-adv-x="935" 
d="M467 -197l-29 -84q-127 6 -183 30t-56 71q0 35 28 71.5t97 94.5q-124 23 -194.5 125.5t-70.5 261.5q0 170 58 325q61 162 153 254q121 121 277 121q153 0 241.5 -105t88.5 -288q0 -171 -56.5 -328.5t-152.5 -253.5q-99 -99 -222 -114q-50 -54 -69 -82t-19 -47t24 -30.5
t85 -21.5zM236 367q0 -108 45 -171t120 -63q76 0 142 66q66 69 112 209q47 146 47 276q0 108 -45 171t-120 63q-76 0 -142 -66q-67 -67 -112 -207q-47 -146 -47 -278z" />
    <glyph glyph-name="uni01F0" unicode="&#x1f0;" horiz-adv-x="442" 
d="M248 1051h178l-209 -983q-35 -157 -104 -250q-70 -98 -217 -185l-89 115q110 80 162 160t78 203zM174 1419h111l96 -135l158 135h120l-225 -237h-139z" />
    <glyph glyph-name="uni01F8" unicode="&#x1f8;" horiz-adv-x="1212" 
d="M739 0l-282 1135l-15 -78l-229 -1057h-180l309 1434h221l279 -1117l14 78l225 1039h181l-310 -1434h-213zM799 1714l137 -196h-139l-224 196h226z" />
    <glyph glyph-name="uni01F9" unicode="&#x1f9;" horiz-adv-x="976" 
d="M721 770q0 66 -36.5 101.5t-102.5 35.5q-97 0 -213 -80l-176 -827h-181l228 1051h141l10 -90q144 104 277 104q113 0 177 -63t64 -173q0 -63 -16 -129l-150 -700h-178l146 684q10 34 10 86zM602 1419l117 -235h-115l-215 235h213z" />
    <glyph glyph-name="Aringacute" unicode="&#x1fa;" horiz-adv-x="1153" 
d="M905 1939h232l-250 -151h-152zM666 1528q0 -45 29.5 -73t78.5 -28q63 0 106.5 42t43.5 102q0 45 -30 72.5t-79 27.5q-63 0 -106 -41.5t-43 -101.5zM737 1249l-366 -760h407zM893 1401l102 -1401h-192l-17 322h-497l-156 -322h-201l713 1409q-51 42 -51 113
q0 88 65.5 149.5t161.5 61.5q75 0 123.5 -44.5t48.5 -113.5q0 -51 -26.5 -98t-73.5 -76z" />
    <glyph glyph-name="aringacute" unicode="&#x1fb;" horiz-adv-x="913" 
d="M197 283q0 -67 39.5 -105.5t107.5 -38.5q93 0 197 66l69 297q-74 12 -139 12q-127 0 -200.5 -62.5t-73.5 -168.5zM713 186l-23 -186h-149l-11 96q-127 -110 -262 -110q-113 0 -179 73t-66 197q0 183 115 290t311 107q98 0 192 -20l16 69q11 45 11 80q0 62 -44.5 94.5
t-129.5 32.5q-113 0 -246 -47l-19 146q152 57 310 57q146 0 227.5 -66t81.5 -184q0 -47 -14 -115zM575 1577l170 154h226l-256 -154h-140zM817 1372q0 -81 -63 -141t-150 -60q-72 0 -117 42t-45 108q0 80 62.5 140.5t148.5 60.5q72 0 118 -42t46 -108zM510 1325
q0 -42 27.5 -68t72.5 -26q57 0 97.5 40.5t40.5 96.5q0 42 -28 68t-73 26q-55 0 -96 -41t-41 -96z" />
    <glyph glyph-name="AEacute" unicode="&#x1fc;" horiz-adv-x="1716" 
d="M981 1266l-526 -777h376l166 777h-16zM1556 172l-36 -172h-795l70 322h-453l-219 -322h-211l983 1434h924l-39 -172h-590l-94 -441h524l-39 -170h-522l-105 -479h602zM1325 1722h242l-310 -196h-149z" />
    <glyph glyph-name="aeacute" unicode="&#x1fd;" horiz-adv-x="1435" 
d="M1225 725q0 94 -39 145.5t-111 51.5q-86 0 -163.5 -92t-114.5 -238h411q17 83 17 133zM197 283q0 -67 40 -105.5t109 -38.5q115 0 264 115q-12 52 -12 117q0 67 12 131q-74 12 -139 12q-127 0 -200.5 -62.5t-73.5 -168.5zM1219 188l16 -145q-130 -59 -277 -59
q-218 0 -305 153q-104 -79 -190 -115t-172 -36q-123 0 -195.5 73t-72.5 197q0 183 115 290t311 107q100 0 190 -20l16 72q11 43 11 77q0 62 -45.5 94.5t-131.5 32.5q-108 0 -241 -47l-19 146q146 57 293 57q112 0 185.5 -42t99.5 -120q126 170 293 170q135 0 212 -94
t77 -260q0 -142 -46 -273h-575q-1 -19 -2.5 -41t-1.5 -30q0 -117 57.5 -177.5t167.5 -60.5q116 0 230 51zM999 1417h230l-318 -235h-127z" />
    <glyph glyph-name="Oslashacute" unicode="&#x1fe;" horiz-adv-x="1212" 
d="M528 1192q-93 -93 -161 -303t-68 -402q0 -93 23 -161l600 878q-66 84 -183 84q-121 0 -211 -96zM555 145q116 0 213 97q96 96 160 301q67 207 67 403q0 90 -22 164l-600 -881q66 -84 182 -84zM907 137q-157 -157 -360 -157q-172 0 -279 98l-125 -174h-151l196 268
q-77 133 -77 328q0 236 75 452q76 219 201 344q158 158 363 158q168 0 278 -98l123 174h152l-197 -268q78 -135 78 -328q0 -230 -78 -455q-78 -221 -199 -342zM905 1735h242l-309 -197h-150z" />
    <glyph glyph-name="oslashacute" unicode="&#x1ff;" horiz-adv-x="935" 
d="M393 856q-68 -68 -117 -211q-47 -143 -47 -276q0 -63 15 -109l405 614q-42 48 -110 48q-80 0 -146 -66zM399 129q78 0 146 68t114 211q50 145 50 276q0 43 -15 109l-407 -615q40 -49 112 -49zM668 98q-118 -118 -279 -118q-109 0 -192 59l-93 -135h-133l152 217
q-64 103 -64 252q0 170 58 325q61 162 153 254q121 121 277 121q109 0 192 -59l92 133h134l-150 -215q62 -103 62 -252q0 -171 -56.5 -328.5t-152.5 -253.5zM713 1419h229l-317 -235h-127z" />
    <glyph glyph-name="uni0218" unicode="&#x218;" horiz-adv-x="1013" 
d="M446 156q118 0 194.5 66t76.5 169q0 66 -45 123t-172 152q-167 110 -224 194q-59 86 -59 201q0 164 125 274q125 113 317 113q214 0 390 -113l-82 -159q-156 102 -314 102q-105 0 -174 -59.5t-69 -147.5q0 -62 39 -113q39 -50 174 -147q157 -103 223 -199q63 -86 63 -204
q0 -189 -131 -308q-128 -116 -342 -116q-243 0 -438 127l78 165q184 -120 370 -120zM305 -201q0 31 -22 74l151 39q23 -45 23 -82q0 -125 -187 -219l-49 51q84 78 84 137z" />
    <glyph glyph-name="uni0219" unicode="&#x219;" horiz-adv-x="821" 
d="M348 137q79 0 127.5 39.5t48.5 102.5q0 52 -32 92t-121 94q-124 73 -175 140.5t-51 158.5q0 132 97 217q100 86 252 86q160 0 311 -96l-68 -148q-140 90 -254 90q-72 0 -119 -38.5t-47 -98.5q0 -47 31 -82.5t125 -95.5q123 -69 174 -138.5t51 -166.5q0 -140 -96 -225.5
t-254 -85.5q-194 0 -368 112l65 150q158 -107 303 -107zM215 -190q0 30 -22 73l151 39q23 -45 23 -82q0 -125 -187 -219l-49 51q84 78 84 138z" />
    <glyph glyph-name="uni021A" unicode="&#x21a;" horiz-adv-x="1038" 
d="M238 1434h954l-39 -172h-379l-272 -1262h-195l275 1262h-383zM315 -188q0 30 -22 73l151 39q23 -45 23 -82q0 -125 -186 -219l-50 51q84 78 84 138z" />
    <glyph glyph-name="uni021B" unicode="&#x21b;" horiz-adv-x="673" 
d="M541 158l-33 -156q-69 -16 -141 -16q-121 0 -186.5 57.5t-65.5 163.5q0 40 14 117l129 573h-131l33 154h133l65 286h177l-66 -286h256l-33 -154h-258l-127 -567q-10 -39 -10 -78q0 -54 33.5 -82.5t93.5 -28.5q30 0 117 17zM201 -190q0 28 -23 73l152 39q22 -43 22 -82
q0 -125 -186 -219l-49 51q84 78 84 138z" />
    <glyph glyph-name="uni0226" unicode="&#x226;" horiz-adv-x="1153" 
d="M739 1245l-368 -756h407zM887 1448l108 -1448h-192l-17 322h-497l-156 -322h-201l732 1448h223zM750 1704h159l-35 -170h-161z" />
    <glyph glyph-name="uni0227" unicode="&#x227;" horiz-adv-x="913" 
d="M197 283q0 -67 39.5 -105.5t107.5 -38.5q93 0 197 66l69 297q-74 12 -139 12q-127 0 -200.5 -62.5t-73.5 -168.5zM713 186l-23 -186h-149l-11 96q-127 -110 -262 -110q-113 0 -179 73t-66 197q0 183 115 290t311 107q98 0 192 -20l16 69q11 45 11 80q0 62 -44.5 94.5
t-129.5 32.5q-113 0 -246 -47l-19 146q152 57 310 57q146 0 227.5 -66t81.5 -184q0 -47 -14 -115zM559 1366h152l-37 -174h-152z" />
    <glyph glyph-name="uni022E" unicode="&#x22e;" horiz-adv-x="1212" 
d="M907 137q-157 -157 -360 -157t-319.5 138t-116.5 382q0 236 75 452q76 219 201 344q158 158 363 158q202 0 318 -138t116 -382q0 -230 -78 -455q-78 -221 -199 -342zM991 948q0 161 -66.5 250.5t-185.5 89.5q-113 0 -209 -96q-93 -93 -161 -303q-66 -213 -66 -404
q0 -161 66.5 -250.5t185.5 -89.5q112 0 209 97q96 96 160 303q67 207 67 403zM760 1708h160l-35 -170h-162z" />
    <glyph glyph-name="uni022F" unicode="&#x22f;" horiz-adv-x="935" 
d="M668 98q-118 -118 -279 -118q-153 0 -241.5 105t-88.5 288q0 170 58 325q61 162 153 254q121 121 277 121q153 0 241.5 -105t88.5 -288q0 -171 -56.5 -328.5t-152.5 -253.5zM236 367q0 -108 45 -171t120 -63q76 0 142 66q66 69 112 209q47 146 47 276q0 108 -45 171
t-120 63q-76 0 -142 -66q-67 -67 -112 -207q-47 -146 -47 -278zM561 1366h152l-37 -174h-152z" />
    <glyph glyph-name="uni0232" unicode="&#x232;" horiz-adv-x="1077" 
d="M1249 1434l-612 -881l-119 -553h-192l120 559l-231 875h199l166 -689l454 689h215zM506 1642h520l-25 -106h-518z" />
    <glyph glyph-name="uni0233" unicode="&#x233;" horiz-adv-x="888" 
d="M-51 -360l-21 155q103 30 175.5 74t134.5 113l-84 1069h176l41 -889l407 889h187l-506 -1014q-87 -172 -205 -264q-111 -86 -305 -133zM375 1307h465l-23 -105h-465z" />
    <glyph glyph-name="uni0237" unicode="&#x237;" horiz-adv-x="442" 
d="M248 1051h178l-209 -983q-35 -157 -104 -250q-70 -98 -217 -185l-89 115q110 80 162 160t78 203z" />
    <glyph glyph-name="uni0259" unicode="&#x259;" horiz-adv-x="894" 
d="M211 326q0 -92 39 -144.5t108 -52.5q86 0 164 92t115 238h-412q-14 -72 -14 -133zM215 862l-14 146q133 59 274 59q173 0 267 -100.5t94 -286.5q0 -168 -62 -328q-59 -157 -158 -256q-119 -119 -278 -119q-136 0 -214.5 95t-78.5 260q0 144 45 272h578q1 19 2.5 41.5
t1.5 30.5q0 117 -57.5 177t-168.5 60q-117 0 -231 -51z" />
    <glyph glyph-name="uni02B9" unicode="&#x2b9;" horiz-adv-x="430" 
d="M385 1477h207v-2l-359 -521l-71 23z" />
    <glyph glyph-name="uni02BA" unicode="&#x2ba;" horiz-adv-x="735" 
d="M702 1477h193v-2l-346 -521l-70 23zM387 1477h193v-2l-347 -521l-71 23z" />
    <glyph glyph-name="uni02BB" unicode="&#x2bb;" horiz-adv-x="376" 
d="M334 965h-180q29 166 105.5 285.5t227.5 234.5l56 -45q-92 -115 -133 -209q-42 -97 -76 -266z" />
    <glyph glyph-name="uni02BC" unicode="&#x2bc;" horiz-adv-x="376" 
d="M346 1477h180q-29 -166 -106 -286.5t-230 -236.5l-53 47q91 114 133 211q40 91 76 265z" />
    <glyph glyph-name="uni02BE" unicode="&#x2be;" horiz-adv-x="364" 
d="M172 1106l29 121q79 1 130.5 52t51.5 126q0 54 -31 84t-88 35l27 118q105 -5 165 -62.5t60 -156.5q0 -135 -96 -225q-95 -89 -248 -92z" />
    <glyph glyph-name="uni02BF" unicode="&#x2bf;" horiz-adv-x="364" 
d="M557 1642l-29 -120q-79 -1 -130.5 -52.5t-51.5 -126.5q0 -54 30.5 -83.5t88.5 -34.5l-27 -119q-105 5 -165 63t-60 156q0 137 96 227t248 90z" />
    <glyph glyph-name="circumflex" unicode="&#x2c6;" horiz-adv-x="1024" 
d="M895 1182h-109l-98 135l-156 -135h-120l225 237h139z" />
    <glyph glyph-name="caron" unicode="&#x2c7;" horiz-adv-x="1024" 
d="M463 1419h110l97 -135l157 135h121l-225 -237h-139z" />
    <glyph glyph-name="uni02C8" unicode="&#x2c8;" horiz-adv-x="284" 
d="M449 1632l-111 -514h-137l110 514h138z" />
    <glyph glyph-name="uni02CC" unicode="&#x2cc;" horiz-adv-x="284" 
d="M164 315l-111 -514h-137l111 514h137z" />
    <glyph glyph-name="uni02CD" unicode="&#x2cd;" horiz-adv-x="1024" 
d="M143 -102h465l-22 -105h-465z" />
    <glyph glyph-name="breve" unicode="&#x2d8;" horiz-adv-x="1024" 
d="M674 1284q110 0 162 133h100q-26 -112 -101.5 -179t-175.5 -67q-104 0 -155.5 67.5t-34.5 178.5h94q0 -133 111 -133z" />
    <glyph glyph-name="dotaccent" unicode="&#x2d9;" horiz-adv-x="1024" 
d="M618 1364h152l-37 -174h-151z" />
    <glyph glyph-name="ring" unicode="&#x2da;" horiz-adv-x="1024" 
d="M879 1380q0 -87 -62.5 -149t-152.5 -62q-72 0 -118 43t-46 111q0 87 63 147q64 64 154 64q72 0 117 -43t45 -111zM569 1327q0 -44 28 -71t75 -27q57 0 97 42.5t40 102.5q0 45 -27 73t-73 28q-57 0 -98.5 -44t-41.5 -104z" />
    <glyph glyph-name="ogonek" unicode="&#x2db;" horiz-adv-x="1024" 
d="M367 -145q0 -19 23.5 -30.5t84.5 -21.5l-29 -84q-127 6 -183 30t-56 71q0 38 37.5 82t134.5 123l98 -17q-64 -70 -87 -101.5t-23 -51.5z" />
    <glyph glyph-name="tilde" unicode="&#x2dc;" horiz-adv-x="1024" 
d="M668 1229q-49 31 -66 39t-31 8q-23 0 -41.5 -19t-60.5 -83l-80 34q55 104 97.5 144.5t93.5 40.5q26 0 46.5 -9.5t71.5 -42.5q49 -31 66 -39t31 -8q25 0 46 21.5t56 81.5l82 -37q-57 -104 -98.5 -144t-92.5 -40q-26 0 -49 10.5t-71 42.5z" />
    <glyph glyph-name="hungarumlaut" unicode="&#x2dd;" horiz-adv-x="1024" 
d="M670 1417h190l-297 -235h-119zM926 1417h190l-297 -235h-119z" />
    <glyph glyph-name="uni0300" unicode="&#x300;" 
d="M119 1417l117 -235h-115l-215 235h213z" />
    <glyph glyph-name="uni0301" unicode="&#x301;" 
d="M258 1417h229l-317 -235h-127z" />
    <glyph glyph-name="uni0302" unicode="&#x302;" 
d="M383 1182h-109l-98 135l-156 -135h-120l225 237h139z" />
    <glyph glyph-name="uni0303" unicode="&#x303;" 
d="M156 1229q-49 31 -66 39t-31 8q-23 0 -41.5 -19t-60.5 -83l-80 34q55 104 97.5 144.5t93.5 40.5q26 0 46.5 -9.5t71.5 -42.5q49 -31 66 -39t31 -8q25 0 46 21.5t56 81.5l82 -37q-57 -104 -98.5 -144t-92.5 -40q-26 0 -49 10.5t-71 42.5z" />
    <glyph glyph-name="uni0304" unicode="&#x304;" 
d="M-63 1307h464l-22 -105h-465z" />
    <glyph glyph-name="uni0306" unicode="&#x306;" 
d="M160 1284q110 0 162 133h100q-26 -112 -101.5 -179t-175.5 -67q-104 0 -155.5 67.5t-34.5 178.5h94q0 -133 111 -133z" />
    <glyph glyph-name="uni0307" unicode="&#x307;" 
d="M106 1364h152l-37 -174h-151z" />
    <glyph glyph-name="uni0308" unicode="&#x308;" 
d="M-31 1364h146l-37 -174h-146zM248 1364h145l-37 -174h-145z" />
    <glyph glyph-name="uni0309" unicode="&#x309;" 
d="M-4 1348l-4 96q101 35 205 35q90 0 139 -29t49 -80q0 -61 -63.5 -108t-210.5 -97l-19 76q97 40 129.5 59.5t32.5 42.5q0 33 -82 33q-84 0 -176 -28z" />
    <glyph glyph-name="uni030A" unicode="&#x30a;" 
d="M367 1380q0 -87 -62.5 -149t-152.5 -62q-72 0 -118 43t-46 111q0 87 63 147q64 64 154 64q72 0 117 -43t45 -111zM57 1327q0 -44 28 -71t75 -27q57 0 97 42.5t40 102.5q0 45 -27 73t-73 28q-57 0 -98.5 -44t-41.5 -104z" />
    <glyph glyph-name="uni030B" unicode="&#x30b;" 
d="M158 1417h190l-297 -235h-119zM414 1417h190l-297 -235h-119z" />
    <glyph glyph-name="uni030C" unicode="&#x30c;" 
d="M-49 1419h110l97 -135l157 135h121l-225 -237h-139z" />
    <glyph glyph-name="uni0312" unicode="&#x312;" 
d="M217 1284q0 -29 23 -74l-152 -39q-22 43 -22 82q0 126 186 220l49 -52q-84 -78 -84 -137z" />
    <glyph glyph-name="uni0315" unicode="&#x315;" 
d="M207 1477h123q-21 -104 -58 -170q-35 -68 -118 -148l-52 31q39 63 63 127t42 160z" />
    <glyph glyph-name="uni0323" unicode="&#x323;" 
d="M-209 -92h152l-37 -174h-152z" />
    <glyph glyph-name="uni0324" unicode="&#x324;" 
d="M-346 -92h145l-37 -174h-145zM-68 -92h146l-37 -174h-145z" />
    <glyph glyph-name="uni0326" unicode="&#x326;" 
d="M-205 -188q0 30 -22 73l151 39q23 -45 23 -82q0 -125 -187 -219l-49 51q84 78 84 138z" />
    <glyph glyph-name="uni0327" unicode="&#x327;" 
d="M14 -168q0 -133 -348 -133l8 70q187 3 187 57q0 34 -105 31l-18 37l108 124l117 -10l-88 -90q139 -3 139 -86z" />
    <glyph glyph-name="uni0328" unicode="&#x328;" 
d="M-145 -145q0 -19 23.5 -30.5t84.5 -21.5l-29 -84q-127 6 -183 30t-56 71q0 38 37.5 82t134.5 123l98 -17q-64 -70 -87 -101.5t-23 -51.5z" />
    <glyph glyph-name="uni032D" unicode="&#x32d;" 
d="M57 -330h-108l-99 135l-155 -135h-121l225 238h140z" />
    <glyph glyph-name="uni032E" unicode="&#x32e;" 
d="M-164 -225q110 0 162 133h100q-26 -112 -101 -179t-175 -67q-104 0 -156 67.5t-35 178.5h95q0 -133 110 -133z" />
    <glyph glyph-name="uni0331" unicode="&#x331;" 
d="M-369 -102h465l-22 -105h-465z" />
    <glyph glyph-name="uni0E3F" unicode="&#xe3f;" horiz-adv-x="1142" 
d="M520 0l-45 -201h-115l46 201h-373l309 1434h373l35 159h114l-35 -163q152 -17 234 -93.5t82 -199.5q0 -152 -91 -256.5t-257 -147.5q117 -32 178 -108t61 -187q0 -190 -139 -311q-139 -118 -377 -127zM696 1282h-209l-104 -471h211zM965 1106q0 76 -47.5 121.5
t-137.5 52.5l-100 -465q129 17 207 96.5t78 194.5zM563 668h-211l-110 -518h211zM860 446q0 88 -55.5 145.5t-157.5 70.5l-108 -512q141 6 231 89t90 207z" />
    <glyph glyph-name="uni1E06" unicode="&#x1e06;" horiz-adv-x="1103" 
d="M909 1090q0 85 -62 130.5t-177 45.5h-172l-95 -445h156q157 0 253.5 75t96.5 194zM801 449q0 98 -75.5 153t-209.5 55h-149l-105 -489h191q161 0 254.5 76t93.5 205zM422 0h-389l309 1434h352q197 0 306.5 -82t109.5 -230q0 -146 -92 -250t-252 -141q111 -35 170 -111.5
t59 -185.5q0 -200 -153 -317t-420 -117zM209 -102h465l-23 -105h-465z" />
    <glyph glyph-name="uni1E07" unicode="&#x1e07;" horiz-adv-x="958" 
d="M690 94q-110 -110 -254 -110q-127 0 -235 102l-47 -86h-142l320 1477h180l-109 -500q119 88 226 88q125 0 197.5 -95.5t72.5 -262.5q0 -191 -57 -353q-55 -164 -152 -260zM403 133q86 0 160 74q66 66 113 203q45 134 45 272q0 110 -44.5 171.5t-123.5 61.5
q-82 0 -176 -67l-139 -637q84 -78 165 -78zM90 -104h465l-23 -105h-464z" />
    <glyph glyph-name="uni1E0C" unicode="&#x1e0c;" horiz-adv-x="1173" 
d="M946 903q0 177 -90.5 270t-261.5 93h-96l-236 -1098h115q224 0 368 147q94 97 146 252q55 158 55 336zM344 0h-311l309 1434h252q264 0 405.5 -134.5t141.5 -386.5q0 -216 -67 -402t-189 -308q-203 -203 -541 -203zM360 -92h152l-37 -174h-151z" />
    <glyph glyph-name="uni1E0D" unicode="&#x1e0d;" horiz-adv-x="958" 
d="M240 369q0 -110 46 -173t126 -63q71 0 172 66l139 641q-84 75 -166 75q-95 0 -160 -71q-64 -61 -112 -203q-45 -131 -45 -272zM1038 1477l-319 -1477h-139l-11 86q-123 -102 -235 -102q-125 0 -200 97t-75 263q0 185 58 350q59 168 151 260q114 111 260 111
q116 0 226 -84l106 496h178zM289 -94h151l-37 -174h-151z" />
    <glyph glyph-name="uni1E0E" unicode="&#x1e0e;" horiz-adv-x="1173" 
d="M946 903q0 177 -90.5 270t-261.5 93h-96l-236 -1098h115q224 0 368 147q94 97 146 252q55 158 55 336zM344 0h-311l309 1434h252q264 0 405.5 -134.5t141.5 -386.5q0 -216 -67 -402t-189 -308q-203 -203 -541 -203zM201 -102h465l-23 -105h-465z" />
    <glyph glyph-name="uni1E0F" unicode="&#x1e0f;" horiz-adv-x="958" 
d="M240 369q0 -110 46 -173t126 -63q71 0 172 66l139 641q-84 75 -166 75q-95 0 -160 -71q-64 -61 -112 -203q-45 -131 -45 -272zM1038 1477l-319 -1477h-139l-11 86q-123 -102 -235 -102q-125 0 -200 97t-75 263q0 185 58 350q59 168 151 260q114 111 260 111
q116 0 226 -84l106 496h178zM129 -104h465l-23 -105h-465z" />
    <glyph glyph-name="uni1E12" unicode="&#x1e12;" horiz-adv-x="1173" 
d="M946 903q0 177 -90.5 270t-261.5 93h-96l-236 -1098h115q224 0 368 147q94 97 146 252q55 158 55 336zM344 0h-311l309 1434h252q264 0 405.5 -134.5t141.5 -386.5q0 -216 -67 -402t-189 -308q-203 -203 -541 -203zM627 -330h-109l-98 135l-156 -135h-121l226 238h139z
" />
    <glyph glyph-name="uni1E13" unicode="&#x1e13;" horiz-adv-x="958" 
d="M240 369q0 -110 46 -173t126 -63q71 0 172 66l139 641q-84 75 -166 75q-95 0 -160 -71q-64 -61 -112 -203q-45 -131 -45 -272zM1038 1477l-319 -1477h-139l-11 86q-123 -102 -235 -102q-125 0 -200 97t-75 263q0 185 58 350q59 168 151 260q114 111 260 111
q116 0 226 -84l106 496h178zM555 -332h-109l-98 135l-155 -135h-121l225 238h139z" />
    <glyph glyph-name="uni1E20" unicode="&#x1e20;" horiz-adv-x="1163" 
d="M645 782h453l-160 -712q-159 -84 -350 -84q-225 0 -349 140t-124 392q0 220 71 424q74 202 199 328q180 180 432 180q199 0 369 -102l-76 -162q-169 88 -299 88q-167 0 -289 -125q-94 -93 -155 -275q-60 -183 -60 -362q0 -171 79.5 -264.5t225.5 -93.5q76 0 162 28
l96 428h-262zM606 1655h520l-24 -107h-518z" />
    <glyph glyph-name="uni1E21" unicode="&#x1e21;" horiz-adv-x="956" 
d="M242 387q0 -108 45 -166.5t127 -58.5q74 0 172 61l131 619q-85 73 -164 73q-87 0 -158 -71q-62 -62 -110 -195q-43 -128 -43 -262zM276 -358q-170 0 -321 77l53 146q129 -72 264 -72q221 0 273 230l16 79q-111 -92 -223 -92q-128 0 -201.5 94t-73.5 258q0 182 55.5 342
t149.5 254q109 109 252 109q128 0 236 -102l47 86h141l-227 -1045q-76 -364 -441 -364zM430 1309h465l-23 -105h-464z" />
    <glyph glyph-name="uni1E24" unicode="&#x1e24;" horiz-adv-x="1214" 
d="M1264 1434l-310 -1434h-192l139 647h-536l-140 -647h-192l309 1434h193l-132 -607h537l131 607h193zM401 -84h152l-37 -174h-151z" />
    <glyph glyph-name="uni1E25" unicode="&#x1e25;" horiz-adv-x="976" 
d="M721 770q0 66 -36.5 101.5t-102.5 35.5q-93 0 -209 -80l-180 -827h-181l320 1477h180l-111 -508q143 96 267 96q113 0 177 -63t64 -173q0 -63 -16 -129l-150 -700h-178l146 684q10 34 10 86zM287 -84h151l-37 -174h-151z" />
    <glyph glyph-name="uni1E28" unicode="&#x1e28;" horiz-adv-x="1214" 
d="M256 -168q0 -133 -348 -133l8 70q186 3 186 57q0 34 -104 31l-18 37l92 106h-39l309 1434h193l-132 -607h537l131 607h193l-310 -1434h-192l139 647h-536l-140 -647h-28l-80 -82q139 -3 139 -86z" />
    <glyph glyph-name="uni1E29" unicode="&#x1e29;" horiz-adv-x="976" 
d="M229 -168q0 -133 -348 -133l8 70q187 3 187 57q0 34 -105 31l-18 37l92 106h-33l320 1477h180l-111 -508q143 96 267 96q113 0 177 -63t64 -173q0 -63 -16 -129l-150 -700h-178l146 684q10 34 10 86q0 66 -36.5 101.5t-102.5 35.5q-93 0 -209 -80l-180 -827h-23l-80 -82
q139 -3 139 -86z" />
    <glyph glyph-name="uni1E2A" unicode="&#x1e2a;" horiz-adv-x="1214" 
d="M1264 1434l-310 -1434h-192l139 647h-536l-140 -647h-192l309 1434h193l-132 -607h537l131 607h193zM444 -225q110 0 162 133h101q-26 -112 -101.5 -179t-175.5 -67q-104 0 -155.5 67.5t-34.5 178.5h94q0 -133 110 -133z" />
    <glyph glyph-name="uni1E2B" unicode="&#x1e2b;" horiz-adv-x="976" 
d="M721 770q0 66 -36.5 101.5t-102.5 35.5q-93 0 -209 -80l-180 -827h-181l320 1477h180l-111 -508q143 96 267 96q113 0 177 -63t64 -173q0 -63 -16 -129l-150 -700h-178l146 684q10 34 10 86zM330 -225q110 0 162 133h100q-26 -112 -101.5 -179t-175.5 -67
q-104 0 -155.5 67.5t-34.5 178.5h94q0 -133 111 -133z" />
    <glyph glyph-name="uni1E32" unicode="&#x1e32;" horiz-adv-x="1087" 
d="M584 729l370 -729h-213l-354 692h-12l-150 -692h-192l309 1434h193l-142 -652h10l623 652h229zM360 -84h152l-37 -174h-151z" />
    <glyph glyph-name="uni1E33" unicode="&#x1e33;" horiz-adv-x="876" 
d="M487 535l261 -535h-193l-244 514h-8l-110 -514h-181l320 1477h180l-193 -893h9l426 467h209zM260 -84h152l-37 -174h-152z" />
    <glyph glyph-name="uni1E34" unicode="&#x1e34;" horiz-adv-x="1087" 
d="M584 729l370 -729h-213l-354 692h-12l-150 -692h-192l309 1434h193l-142 -652h10l623 652h229zM201 -102h465l-23 -105h-465z" />
    <glyph glyph-name="uni1E35" unicode="&#x1e35;" horiz-adv-x="876" 
d="M487 535l261 -535h-193l-244 514h-8l-110 -514h-181l320 1477h180l-193 -893h9l426 467h209zM98 -102h465l-22 -105h-465z" />
    <glyph glyph-name="uni1E36" unicode="&#x1e36;" horiz-adv-x="909" 
d="M791 174l-37 -174h-721l309 1434h193l-273 -1260h529zM297 -92h152l-37 -174h-152z" />
    <glyph glyph-name="uni1E37" unicode="&#x1e37;" horiz-adv-x="440" 
d="M336 1477h180l-319 -1477h-181zM10 -92h152l-37 -174h-152z" />
    <glyph glyph-name="uni1E38" unicode="&#x1e38;" horiz-adv-x="909" 
d="M791 174l-37 -174h-721l309 1434h193l-273 -1260h529zM262 1642h457l-23 -106h-456zM297 -92h152l-37 -174h-152z" />
    <glyph glyph-name="uni1E39" unicode="&#x1e39;" horiz-adv-x="440" 
d="M336 1477h180l-319 -1477h-181zM266 1700h416l-25 -105h-413zM10 -92h152l-37 -174h-152z" />
    <glyph glyph-name="uni1E3A" unicode="&#x1e3a;" horiz-adv-x="909" 
d="M791 174l-37 -174h-721l309 1434h193l-273 -1260h529zM137 -102h465l-22 -105h-465z" />
    <glyph glyph-name="uni1E3B" unicode="&#x1e3b;" horiz-adv-x="440" 
d="M336 1477h180l-319 -1477h-181zM-125 -102h416l-25 -105h-413z" />
    <glyph glyph-name="uni1E3C" unicode="&#x1e3c;" horiz-adv-x="909" 
d="M791 174l-37 -174h-721l309 1434h193l-273 -1260h529zM563 -330h-108l-99 135l-155 -135h-121l225 238h139z" />
    <glyph glyph-name="uni1E3D" unicode="&#x1e3d;" horiz-adv-x="440" 
d="M336 1477h180l-319 -1477h-181zM276 -330h-108l-98 135l-156 -135h-121l225 238h140z" />
    <glyph glyph-name="uni1E3E" unicode="&#x1e3e;" horiz-adv-x="1576" 
d="M1593 1434l-252 -1434h-188l217 1194l-612 -1196h-180l-86 1198l-302 -1196h-178l367 1434h260l82 -1174l592 1174h280zM1083 1714h242l-309 -196h-150z" />
    <glyph glyph-name="uni1E3F" unicode="&#x1e3f;" horiz-adv-x="1507" 
d="M711 774q0 63 -35 98t-101 35q-87 0 -206 -80l-176 -827h-181l228 1051h141l10 -90q146 104 271 104q163 0 217 -123q183 123 325 123q111 0 174.5 -61.5t63.5 -169.5q0 -42 -17 -129l-151 -705h-178l147 688q10 51 10 86q0 64 -34.5 98.5t-100.5 34.5q-95 0 -219 -86
q-2 -57 -16 -116l-150 -705h-180l147 688q11 37 11 86zM1012 1419h229l-317 -235h-127z" />
    <glyph glyph-name="uni1E40" unicode="&#x1e40;" horiz-adv-x="1576" 
d="M1593 1434l-252 -1434h-188l217 1194l-612 -1196h-180l-86 1198l-302 -1196h-178l367 1434h260l82 -1174l592 1174h280zM938 1688h160l-35 -170h-162z" />
    <glyph glyph-name="uni1E41" unicode="&#x1e41;" horiz-adv-x="1507" 
d="M711 774q0 63 -35 98t-101 35q-87 0 -206 -80l-176 -827h-181l228 1051h141l10 -90q146 104 271 104q163 0 217 -123q183 123 325 123q111 0 174.5 -61.5t63.5 -169.5q0 -42 -17 -129l-151 -705h-178l147 688q10 51 10 86q0 64 -34.5 98.5t-100.5 34.5q-95 0 -219 -86
q-2 -57 -16 -116l-150 -705h-180l147 688q11 37 11 86zM860 1366h152l-37 -174h-152z" />
    <glyph glyph-name="uni1E42" unicode="&#x1e42;" horiz-adv-x="1576" 
d="M1593 1434l-252 -1434h-188l217 1194l-612 -1196h-180l-86 1198l-302 -1196h-178l367 1434h260l82 -1174l592 1174h280zM573 -92h152l-37 -174h-151z" />
    <glyph glyph-name="uni1E43" unicode="&#x1e43;" horiz-adv-x="1507" 
d="M711 774q0 63 -35 98t-101 35q-87 0 -206 -80l-176 -827h-181l228 1051h141l10 -90q146 104 271 104q163 0 217 -123q183 123 325 123q111 0 174.5 -61.5t63.5 -169.5q0 -42 -17 -129l-151 -705h-178l147 688q10 51 10 86q0 64 -34.5 98.5t-100.5 34.5q-95 0 -219 -86
q-2 -57 -16 -116l-150 -705h-180l147 688q11 37 11 86zM547 -92h151l-36 -174h-152z" />
    <glyph glyph-name="uni1E44" unicode="&#x1e44;" horiz-adv-x="1212" 
d="M739 0l-282 1135l-15 -78l-229 -1057h-180l309 1434h221l279 -1117l14 78l225 1039h181l-310 -1434h-213zM782 1688h160l-35 -170h-162z" />
    <glyph glyph-name="uni1E45" unicode="&#x1e45;" horiz-adv-x="976" 
d="M721 770q0 66 -36.5 101.5t-102.5 35.5q-97 0 -213 -80l-176 -827h-181l228 1051h141l10 -90q144 104 277 104q113 0 177 -63t64 -173q0 -63 -16 -129l-150 -700h-178l146 684q10 34 10 86zM590 1366h151l-36 -174h-152z" />
    <glyph glyph-name="uni1E46" unicode="&#x1e46;" horiz-adv-x="1212" 
d="M739 0l-282 1135l-15 -78l-229 -1057h-180l309 1434h221l279 -1117l14 78l225 1039h181l-310 -1434h-213zM387 -84h152l-37 -174h-152z" />
    <glyph glyph-name="uni1E47" unicode="&#x1e47;" horiz-adv-x="976" 
d="M721 770q0 66 -36.5 101.5t-102.5 35.5q-97 0 -213 -80l-176 -827h-181l228 1051h141l10 -90q144 104 277 104q113 0 177 -63t64 -173q0 -63 -16 -129l-150 -700h-178l146 684q10 34 10 86zM289 -84h151l-37 -174h-151z" />
    <glyph glyph-name="uni1E48" unicode="&#x1e48;" horiz-adv-x="1212" 
d="M739 0l-282 1135l-15 -78l-229 -1057h-180l309 1434h221l279 -1117l14 78l225 1039h181l-310 -1434h-213zM227 -102h465l-22 -105h-465z" />
    <glyph glyph-name="uni1E49" unicode="&#x1e49;" horiz-adv-x="976" 
d="M721 770q0 66 -36.5 101.5t-102.5 35.5q-97 0 -213 -80l-176 -827h-181l228 1051h141l10 -90q144 104 277 104q113 0 177 -63t64 -173q0 -63 -16 -129l-150 -700h-178l146 684q10 34 10 86zM127 -102h465l-23 -105h-465z" />
    <glyph glyph-name="uni1E4A" unicode="&#x1e4a;" horiz-adv-x="1212" 
d="M739 0l-282 1135l-15 -78l-229 -1057h-180l309 1434h221l279 -1117l14 78l225 1039h181l-310 -1434h-213zM653 -322h-108l-99 136l-155 -136h-121l225 238h140z" />
    <glyph glyph-name="uni1E4B" unicode="&#x1e4b;" horiz-adv-x="976" 
d="M721 770q0 66 -36.5 101.5t-102.5 35.5q-97 0 -213 -80l-176 -827h-181l228 1051h141l10 -90q144 104 277 104q113 0 177 -63t64 -173q0 -63 -16 -129l-150 -700h-178l146 684q10 34 10 86zM555 -322h-109l-98 136l-155 -136h-121l225 238h139z" />
    <glyph glyph-name="uni1E58" unicode="&#x1e58;" horiz-adv-x="1126" 
d="M913 1057q0 100 -67.5 154.5t-190.5 54.5h-157l-119 -557h131q199 0 309 110q94 94 94 238zM430 543h-88l-117 -543h-192l309 1434h332q211 0 323.5 -90t112.5 -257q0 -182 -113.5 -311.5t-310.5 -173.5q52 -25 83 -66.5t60 -125.5l162 -410h-213l-141 387
q-32 88 -77 122t-130 34zM702 1696h160l-35 -170h-161z" />
    <glyph glyph-name="uni1E59" unicode="&#x1e59;" horiz-adv-x="649" 
d="M354 748l-161 -748h-181l228 1051h139l-2 -162q159 176 348 176l-41 -188q-181 -9 -330 -129zM461 1364h151l-37 -174h-151z" />
    <glyph glyph-name="uni1E5A" unicode="&#x1e5a;" horiz-adv-x="1126" 
d="M913 1057q0 100 -67.5 154.5t-190.5 54.5h-157l-119 -557h131q199 0 309 110q94 94 94 238zM430 543h-88l-117 -543h-192l309 1434h332q211 0 323.5 -90t112.5 -257q0 -182 -113.5 -311.5t-310.5 -173.5q52 -25 83 -66.5t60 -125.5l162 -410h-213l-141 387
q-32 88 -77 122t-130 34zM377 -84h151l-36 -174h-152z" />
    <glyph glyph-name="uni1E5B" unicode="&#x1e5b;" horiz-adv-x="649" 
d="M354 748l-161 -748h-181l228 1051h139l-2 -162q159 176 348 176l-41 -188q-181 -9 -330 -129zM8 -92h152l-37 -174h-152z" />
    <glyph glyph-name="uni1E5C" unicode="&#x1e5c;" horiz-adv-x="1126" 
d="M913 1057q0 100 -67.5 154.5t-190.5 54.5h-157l-119 -557h131q199 0 309 110q94 94 94 238zM430 543h-88l-117 -543h-192l309 1434h332q211 0 323.5 -90t112.5 -257q0 -182 -113.5 -311.5t-310.5 -173.5q52 -25 83 -66.5t60 -125.5l162 -410h-213l-141 387
q-32 88 -77 122t-130 34zM512 1642h520l-24 -106h-519zM377 -84h151l-36 -174h-152z" />
    <glyph glyph-name="uni1E5D" unicode="&#x1e5d;" horiz-adv-x="649" 
d="M354 748l-161 -748h-181l228 1051h139l-2 -162q159 176 348 176l-41 -188q-181 -9 -330 -129zM315 1307h416l-24 -105h-414zM8 -92h152l-37 -174h-152z" />
    <glyph glyph-name="uni1E5E" unicode="&#x1e5e;" horiz-adv-x="1126" 
d="M913 1057q0 100 -67.5 154.5t-190.5 54.5h-157l-119 -557h131q199 0 309 110q94 94 94 238zM430 543h-88l-117 -543h-192l309 1434h332q211 0 323.5 -90t112.5 -257q0 -182 -113.5 -311.5t-310.5 -173.5q52 -25 83 -66.5t60 -125.5l162 -410h-213l-141 387
q-32 88 -77 122t-130 34zM215 -102h465l-23 -105h-464z" />
    <glyph glyph-name="uni1E5F" unicode="&#x1e5f;" horiz-adv-x="649" 
d="M354 748l-161 -748h-181l228 1051h139l-2 -162q159 176 348 176l-41 -188q-181 -9 -330 -129zM-127 -102h416l-25 -105h-414z" />
    <glyph glyph-name="uni1E62" unicode="&#x1e62;" horiz-adv-x="1013" 
d="M446 156q118 0 194.5 66t76.5 169q0 66 -45 123t-172 152q-167 110 -224 194q-59 86 -59 201q0 164 125 274q125 113 317 113q214 0 390 -113l-82 -159q-156 102 -314 102q-105 0 -174 -59.5t-69 -147.5q0 -62 39 -113q39 -50 174 -147q157 -103 223 -199q63 -86 63 -204
q0 -189 -131 -308q-128 -116 -342 -116q-243 0 -438 127l78 165q184 -120 370 -120zM301 -104h152l-37 -175h-152z" />
    <glyph glyph-name="uni1E63" unicode="&#x1e63;" horiz-adv-x="821" 
d="M348 137q79 0 127.5 39.5t48.5 102.5q0 52 -32 92t-121 94q-124 73 -175 140.5t-51 158.5q0 132 97 217q100 86 252 86q160 0 311 -96l-68 -148q-140 90 -254 90q-72 0 -119 -38.5t-47 -98.5q0 -47 31 -82.5t125 -95.5q123 -69 174 -138.5t51 -166.5q0 -140 -96 -225.5
t-254 -85.5q-194 0 -368 112l65 150q158 -107 303 -107zM211 -94h151l-36 -174h-152z" />
    <glyph glyph-name="uni1E6C" unicode="&#x1e6c;" horiz-adv-x="1038" 
d="M238 1434h954l-39 -172h-379l-272 -1262h-195l275 1262h-383zM311 -92h152l-37 -174h-152z" />
    <glyph glyph-name="uni1E6D" unicode="&#x1e6d;" horiz-adv-x="673" 
d="M541 158l-33 -156q-69 -16 -141 -16q-121 0 -186.5 57.5t-65.5 163.5q0 40 14 117l129 573h-131l33 154h133l65 286h177l-66 -286h256l-33 -154h-258l-127 -567q-10 -39 -10 -78q0 -54 33.5 -82.5t93.5 -28.5q30 0 117 17zM197 -94h151l-37 -174h-151z" />
    <glyph glyph-name="uni1E6E" unicode="&#x1e6e;" horiz-adv-x="1038" 
d="M238 1434h954l-39 -172h-379l-272 -1262h-195l275 1262h-383zM152 -102h464l-22 -105h-465z" />
    <glyph glyph-name="uni1E6F" unicode="&#x1e6f;" horiz-adv-x="673" 
d="M541 158l-33 -156q-69 -16 -141 -16q-121 0 -186.5 57.5t-65.5 163.5q0 40 14 117l129 573h-131l33 154h133l65 286h177l-66 -286h256l-33 -154h-258l-127 -567q-10 -39 -10 -78q0 -54 33.5 -82.5t93.5 -28.5q30 0 117 17zM61 -104h416l-24 -105h-414z" />
    <glyph glyph-name="uni1E70" unicode="&#x1e70;" horiz-adv-x="1038" 
d="M238 1434h954l-39 -172h-379l-272 -1262h-195l275 1262h-383zM578 -330h-109l-98 135l-156 -135h-121l225 238h140z" />
    <glyph glyph-name="uni1E71" unicode="&#x1e71;" horiz-adv-x="673" 
d="M541 158l-33 -156q-69 -16 -141 -16q-121 0 -186.5 57.5t-65.5 163.5q0 40 14 117l129 573h-131l33 154h133l65 286h177l-66 -286h256l-33 -154h-258l-127 -567q-10 -39 -10 -78q0 -54 33.5 -82.5t93.5 -28.5q30 0 117 17zM463 -332h-109l-98 135l-156 -135h-120l225 238
h139z" />
    <glyph glyph-name="uni1E7E" unicode="&#x1e7e;" horiz-adv-x="1128" 
d="M1067 1434h211l-729 -1448h-209l-102 1448h196l62 -1201zM352 -100h152l-37 -174h-152z" />
    <glyph glyph-name="uni1E7F" unicode="&#x1e7f;" horiz-adv-x="882" 
d="M774 1051h182l-534 -1061h-195l-77 1061h174l38 -877zM231 -94h152l-37 -174h-151z" />
    <glyph glyph-name="Wgrave" unicode="&#x1e80;" horiz-adv-x="1705" 
d="M1847 1434l-624 -1444h-213l-27 1161l-528 -1161h-211l2 1444h192l-26 -1162l526 1162h213l18 -1162l480 1162h198zM1032 1722l137 -196h-139l-223 196h225z" />
    <glyph glyph-name="wgrave" unicode="&#x1e81;" horiz-adv-x="1366" 
d="M1436 1051l-482 -1059h-182l-29 819l-383 -819h-186l-18 1059h172l-13 -846l392 846h174l20 -844l354 844h181zM797 1417l116 -235h-114l-215 235h213z" />
    <glyph glyph-name="Wacute" unicode="&#x1e82;" horiz-adv-x="1705" 
d="M1847 1434l-624 -1444h-213l-27 1161l-528 -1161h-211l2 1444h192l-26 -1162l526 1162h213l18 -1162l480 1162h198zM1161 1722h242l-309 -196h-150z" />
    <glyph glyph-name="wacute" unicode="&#x1e83;" horiz-adv-x="1366" 
d="M1436 1051l-482 -1059h-182l-29 819l-383 -819h-186l-18 1059h172l-13 -846l392 846h174l20 -844l354 844h181zM936 1417h229l-317 -235h-127z" />
    <glyph glyph-name="Wdieresis" unicode="&#x1e84;" horiz-adv-x="1705" 
d="M1847 1434l-624 -1444h-213l-27 1161l-528 -1161h-211l2 1444h192l-26 -1162l526 1162h213l18 -1162l480 1162h198zM870 1696h154l-35 -170h-153zM1167 1696h154l-37 -170h-154z" />
    <glyph glyph-name="wdieresis" unicode="&#x1e85;" horiz-adv-x="1366" 
d="M1436 1051l-482 -1059h-182l-29 819l-383 -819h-186l-18 1059h172l-13 -846l392 846h174l20 -844l354 844h181zM647 1364h146l-37 -174h-146zM926 1364h145l-37 -174h-145z" />
    <glyph glyph-name="uni1E8C" unicode="&#x1e8c;" horiz-adv-x="1087" 
d="M743 0l-182 594l-405 -594h-217l530 743l-219 691h201l161 -553l381 553h219l-507 -703l239 -731h-201zM553 1696h154l-35 -170h-154zM850 1696h154l-37 -170h-154z" />
    <glyph glyph-name="uni1E8D" unicode="&#x1e8d;" horiz-adv-x="874" 
d="M547 532l180 -532h-182l-125 420l-291 -420h-201l406 545l-174 506h184l119 -392l270 392h199zM399 1364h146l-37 -174h-146zM678 1364h145l-37 -174h-145z" />
    <glyph glyph-name="uni1E8E" unicode="&#x1e8e;" horiz-adv-x="1077" 
d="M1249 1434l-612 -881l-119 -553h-192l120 559l-231 875h199l166 -689l454 689h215zM694 1688h160l-35 -170h-162z" />
    <glyph glyph-name="uni1E8F" unicode="&#x1e8f;" horiz-adv-x="888" 
d="M-51 -360l-21 155q103 30 175.5 74t134.5 113l-84 1069h176l41 -889l407 889h187l-506 -1014q-87 -172 -205 -264q-111 -86 -305 -133zM543 1356h151l-37 -174h-151z" />
    <glyph glyph-name="uni1E90" unicode="&#x1e90;" horiz-adv-x="1011" 
d="M233 172h646l-37 -172h-871l33 160l858 1102h-618l37 172h841l-32 -160zM963 1526h-123l-101 106l-147 -106h-131l213 203h162z" />
    <glyph glyph-name="uni1E91" unicode="&#x1e91;" horiz-adv-x="821" 
d="M188 152h490l-35 -152h-684l29 141l633 758h-463l35 152h661l-31 -142zM793 1182h-109l-98 135l-156 -135h-121l226 237h139z" />
    <glyph glyph-name="uni1E92" unicode="&#x1e92;" horiz-adv-x="1011" 
d="M233 172h646l-37 -172h-871l33 160l858 1102h-618l37 172h841l-32 -160zM317 -92h152l-37 -174h-151z" />
    <glyph glyph-name="uni1E93" unicode="&#x1e93;" horiz-adv-x="821" 
d="M188 152h490l-35 -152h-684l29 141l633 758h-463l35 152h661l-31 -142zM219 -92h152l-37 -174h-152z" />
    <glyph glyph-name="uni1E94" unicode="&#x1e94;" horiz-adv-x="1011" 
d="M233 172h646l-37 -172h-871l33 160l858 1102h-618l37 172h841l-32 -160zM158 -102h465l-23 -105h-465z" />
    <glyph glyph-name="uni1E95" unicode="&#x1e95;" horiz-adv-x="821" 
d="M188 152h490l-35 -152h-684l29 141l633 758h-463l35 152h661l-31 -142zM59 -102h465l-22 -105h-465z" />
    <glyph glyph-name="uni1E96" unicode="&#x1e96;" horiz-adv-x="976" 
d="M721 770q0 66 -36.5 101.5t-102.5 35.5q-93 0 -209 -80l-180 -827h-181l320 1477h180l-111 -508q143 96 267 96q113 0 177 -63t64 -173q0 -63 -16 -129l-150 -700h-178l146 684q10 34 10 86zM125 -102h465l-23 -105h-465z" />
    <glyph glyph-name="uni1E9E" unicode="&#x1e9e;" horiz-adv-x="1161" 
d="M1044 379q0 -173 -120 -287q-119 -113 -306 -110q-135 0 -231 45l37 166q88 -43 186 -43q104 0 172 61t68 154q0 78 -67.5 145t-207.5 129l25 119l385 438q-88 88 -223 88q-128 0 -219.5 -88t-126.5 -246l-203 -950h-193l207 971q51 227 196.5 354t354.5 127
q143 0 259.5 -60.5t185.5 -172.5l-4 -11l-420 -481q245 -137 245 -348z" />
    <glyph glyph-name="uni1EA0" unicode="&#x1ea0;" horiz-adv-x="1153" 
d="M739 1245l-368 -756h407zM887 1448l108 -1448h-192l-17 322h-497l-156 -322h-201l732 1448h223zM381 -84h151l-36 -174h-152z" />
    <glyph glyph-name="uni1EA1" unicode="&#x1ea1;" horiz-adv-x="913" 
d="M197 283q0 -67 39.5 -105.5t107.5 -38.5q93 0 197 66l69 297q-74 12 -139 12q-127 0 -200.5 -62.5t-73.5 -168.5zM713 186l-23 -186h-149l-11 96q-127 -110 -262 -110q-113 0 -179 73t-66 197q0 183 115 290t311 107q98 0 192 -20l16 69q11 45 11 80q0 62 -44.5 94.5
t-129.5 32.5q-113 0 -246 -47l-19 146q152 57 310 57q146 0 227.5 -66t81.5 -184q0 -47 -14 -115zM246 -94h151l-37 -174h-151z" />
    <glyph glyph-name="uni1EA2" unicode="&#x1ea2;" horiz-adv-x="1153" 
d="M739 1245l-368 -756h407zM887 1448l108 -1448h-192l-17 322h-497l-156 -322h-201l732 1448h223zM625 1686l-4 98q106 28 221 28q99 0 153 -26.5t54 -75.5q0 -61 -67 -105t-222 -87l-12 79q96 30 131.5 48.5t35.5 35.5q0 31 -94 31q-89 0 -196 -26z" />
    <glyph glyph-name="uni1EA3" unicode="&#x1ea3;" horiz-adv-x="913" 
d="M197 283q0 -67 39.5 -105.5t107.5 -38.5q93 0 197 66l69 297q-74 12 -139 12q-127 0 -200.5 -62.5t-73.5 -168.5zM713 186l-23 -186h-149l-11 96q-127 -110 -262 -110q-113 0 -179 73t-66 197q0 183 115 290t311 107q98 0 192 -20l16 69q11 45 11 80q0 62 -44.5 94.5
t-129.5 32.5q-113 0 -246 -47l-19 146q152 57 310 57q146 0 227.5 -66t81.5 -184q0 -47 -14 -115zM449 1350l-5 96q101 35 205 35q90 0 139.5 -29t49.5 -80q0 -61 -63.5 -108t-211.5 -97l-18 76q96 39 129 59.5t33 43.5q0 32 -82 32q-84 0 -176 -28z" />
    <glyph glyph-name="uni1EA4" unicode="&#x1ea4;" horiz-adv-x="1153" 
d="M739 1245l-368 -756h407zM887 1448l108 -1448h-192l-17 322h-497l-156 -322h-201l732 1448h223zM1208 1870h224l-281 -168h-133zM1049 1534h-123l-109 88l-147 -88h-131l213 182h159z" />
    <glyph glyph-name="uni1EA5" unicode="&#x1ea5;" horiz-adv-x="913" 
d="M197 283q0 -67 39.5 -105.5t107.5 -38.5q93 0 197 66l69 297q-74 12 -139 12q-127 0 -200.5 -62.5t-73.5 -168.5zM713 186l-23 -186h-149l-11 96q-127 -110 -262 -110q-113 0 -179 73t-66 197q0 183 115 290t311 107q98 0 192 -20l16 69q11 45 11 80q0 62 -44.5 94.5
t-129.5 32.5q-113 0 -246 -47l-19 146q152 57 310 57q146 0 227.5 -66t81.5 -184q0 -47 -14 -115zM1004 1565h210l-282 -197h-111zM842 1184h-111l-106 112l-156 -112h-121l223 213h140z" />
    <glyph glyph-name="uni1EA6" unicode="&#x1ea6;" horiz-adv-x="1153" 
d="M739 1245l-368 -756h407zM887 1448l108 -1448h-192l-17 322h-497l-156 -322h-201l732 1448h223zM897 1870h211l121 -168h-125zM1049 1534h-123l-109 88l-147 -88h-131l213 182h159z" />
    <glyph glyph-name="uni1EA7" unicode="&#x1ea7;" horiz-adv-x="913" 
d="M197 283q0 -67 39.5 -105.5t107.5 -38.5q93 0 197 66l69 297q-74 12 -139 12q-127 0 -200.5 -62.5t-73.5 -168.5zM713 186l-23 -186h-149l-11 96q-127 -110 -262 -110q-113 0 -179 73t-66 197q0 183 115 290t311 107q98 0 192 -20l16 69q11 45 11 80q0 62 -44.5 94.5
t-129.5 32.5q-113 0 -246 -47l-19 146q152 57 310 57q146 0 227.5 -66t81.5 -184q0 -47 -14 -115zM895 1565l98 -197h-100l-193 197h195zM842 1184h-111l-106 112l-156 -112h-121l223 213h140z" />
    <glyph glyph-name="uni1EA8" unicode="&#x1ea8;" horiz-adv-x="1153" 
d="M739 1245l-368 -756h407zM887 1448l108 -1448h-192l-17 322h-497l-156 -322h-201l732 1448h223zM950 1819l-2 88q82 24 172 24q82 0 125 -25.5t39 -72.5q-4 -53 -58 -90t-177 -74l-11 72q73 26 101 41.5t28 29.5q2 14 -15 20.5t-52 6.5q-71 0 -150 -20zM1049 1534h-123
l-109 88l-147 -88h-131l213 182h159z" />
    <glyph glyph-name="uni1EA9" unicode="&#x1ea9;" horiz-adv-x="913" 
d="M197 283q0 -67 39.5 -105.5t107.5 -38.5q93 0 197 66l69 297q-74 12 -139 12q-127 0 -200.5 -62.5t-73.5 -168.5zM713 186l-23 -186h-149l-11 96q-127 -110 -262 -110q-113 0 -179 73t-66 197q0 183 115 290t311 107q98 0 192 -20l16 69q11 45 11 80q0 62 -44.5 94.5
t-129.5 32.5q-113 0 -246 -47l-19 146q152 57 310 57q146 0 227.5 -66t81.5 -184q0 -47 -14 -115zM772 1497l-6 88q77 27 166 27q72 0 112.5 -26t40.5 -70q0 -54 -53 -97t-172 -86l-16 66q70 31 98.5 51.5t28.5 40.5q0 29 -66 29q-56 0 -133 -23zM842 1184h-111l-106 112
l-156 -112h-121l223 213h140z" />
    <glyph glyph-name="uni1EAA" unicode="&#x1eaa;" horiz-adv-x="1153" 
d="M739 1245l-368 -756h407zM887 1448l108 -1448h-192l-17 322h-497l-156 -322h-201l732 1448h223zM770 1837q-20 0 -40.5 -19t-51.5 -67l-82 35q51 88 91.5 125t84.5 37q25 0 47 -8.5t66 -34.5q42 -25 57.5 -32t32.5 -7q20 0 40 18.5t52 67.5l80 -37q-50 -86 -91 -124
t-85 -38q-26 0 -48.5 8.5t-64.5 36.5q-59 39 -88 39zM1053 1534h-125l-111 82l-149 -82h-131l215 174h159z" />
    <glyph glyph-name="uni1EAB" unicode="&#x1eab;" horiz-adv-x="913" 
d="M197 283q0 -67 39.5 -105.5t107.5 -38.5q93 0 197 66l69 297q-74 12 -139 12q-127 0 -200.5 -62.5t-73.5 -168.5zM713 186l-23 -186h-149l-11 96q-127 -110 -262 -110q-113 0 -179 73t-66 197q0 183 115 290t311 107q98 0 192 -20l16 69q11 45 11 80q0 62 -44.5 94.5
t-129.5 32.5q-113 0 -246 -47l-19 146q152 57 310 57q146 0 227.5 -66t81.5 -184q0 -47 -14 -115zM584 1518q-20 0 -40.5 -19t-51.5 -67l-78 34q51 88 89.5 124t82.5 36q21 0 41.5 -8.5t66.5 -36.5q56 -37 84 -37q20 0 40 19t50 65l78 -33q-50 -88 -89 -124.5t-83 -36.5
q-21 0 -41.5 8.5t-66.5 36.5q-58 39 -82 39zM844 1184h-111l-108 102l-160 -102h-121l225 200h140z" />
    <glyph glyph-name="uni1EAC" unicode="&#x1eac;" horiz-adv-x="1153" 
d="M739 1245l-368 -756h407zM887 1448l108 -1448h-192l-17 322h-497l-156 -322h-201l732 1448h223zM1044 1534h-122l-101 106l-147 -106h-131l213 203h162zM381 -84h151l-36 -174h-152z" />
    <glyph glyph-name="uni1EAD" unicode="&#x1ead;" horiz-adv-x="913" 
d="M197 283q0 -67 39.5 -105.5t107.5 -38.5q93 0 197 66l69 297q-74 12 -139 12q-127 0 -200.5 -62.5t-73.5 -168.5zM713 186l-23 -186h-149l-11 96q-127 -110 -262 -110q-113 0 -179 73t-66 197q0 183 115 290t311 107q98 0 192 -20l16 69q11 45 11 80q0 62 -44.5 94.5
t-129.5 32.5q-113 0 -246 -47l-19 146q152 57 310 57q146 0 227.5 -66t81.5 -184q0 -47 -14 -115zM836 1184h-109l-98 135l-156 -135h-121l226 237h139zM246 -94h151l-37 -174h-151z" />
    <glyph glyph-name="uni1EAE" unicode="&#x1eae;" horiz-adv-x="1153" 
d="M739 1245l-368 -756h407zM887 1448l108 -1448h-192l-17 322h-497l-156 -322h-201l732 1448h223zM930 1927h239l-280 -168h-150zM813 1634q109 0 158 90h108q-29 -92 -104.5 -145t-175.5 -53q-103 0 -161 53.5t-52 144.5h100q6 -43 39 -66.5t88 -23.5z" />
    <glyph glyph-name="uni1EAF" unicode="&#x1eaf;" horiz-adv-x="913" 
d="M197 283q0 -67 39.5 -105.5t107.5 -38.5q93 0 197 66l69 297q-74 12 -139 12q-127 0 -200.5 -62.5t-73.5 -168.5zM713 186l-23 -186h-149l-11 96q-127 -110 -262 -110q-113 0 -179 73t-66 197q0 183 115 290t311 107q98 0 192 -20l16 69q11 45 11 80q0 62 -44.5 94.5
t-129.5 32.5q-113 0 -246 -47l-19 146q152 57 310 57q146 0 227.5 -66t81.5 -184q0 -47 -14 -115zM741 1620h224l-283 -197h-125zM614 1284q114 0 160 107h100q-25 -99 -98.5 -158t-175.5 -59q-104 0 -158.5 59.5t-40.5 157.5h95q3 -107 118 -107z" />
    <glyph glyph-name="uni1EB0" unicode="&#x1eb0;" horiz-adv-x="1153" 
d="M739 1245l-368 -756h407zM887 1448l108 -1448h-192l-17 322h-497l-156 -322h-201l732 1448h223zM594 1927h223l123 -168h-137zM813 1634q109 0 158 90h108q-29 -92 -104.5 -145t-175.5 -53q-103 0 -161 53.5t-52 144.5h100q6 -43 39 -66.5t88 -23.5z" />
    <glyph glyph-name="uni1EB1" unicode="&#x1eb1;" horiz-adv-x="913" 
d="M197 283q0 -67 39.5 -105.5t107.5 -38.5q93 0 197 66l69 297q-74 12 -139 12q-127 0 -200.5 -62.5t-73.5 -168.5zM713 186l-23 -186h-149l-11 96q-127 -110 -262 -110q-113 0 -179 73t-66 197q0 183 115 290t311 107q98 0 192 -20l16 69q11 45 11 80q0 62 -44.5 94.5
t-129.5 32.5q-113 0 -246 -47l-19 146q152 57 310 57q146 0 227.5 -66t81.5 -184q0 -47 -14 -115zM631 1620l98 -197h-113l-194 197h209zM614 1284q114 0 160 107h100q-25 -99 -98.5 -158t-175.5 -59q-104 0 -158.5 59.5t-40.5 157.5h95q3 -107 118 -107z" />
    <glyph glyph-name="uni1EB2" unicode="&#x1eb2;" horiz-adv-x="1153" 
d="M739 1245l-368 -756h407zM887 1448l108 -1448h-192l-17 322h-497l-156 -322h-201l732 1448h223zM692 1880l-4 90q100 27 195 27q92 0 140 -26t44 -73q-4 -53 -64.5 -91.5t-195.5 -77.5l-12 73q82 28 112 42.5t31 31.5q0 27 -76 27t-170 -23zM813 1634q109 0 158 90h108
q-29 -92 -104.5 -145t-175.5 -53q-103 0 -161 53.5t-52 144.5h100q6 -43 39 -66.5t88 -23.5z" />
    <glyph glyph-name="uni1EB3" unicode="&#x1eb3;" horiz-adv-x="913" 
d="M197 283q0 -67 39.5 -105.5t107.5 -38.5q93 0 197 66l69 297q-74 12 -139 12q-127 0 -200.5 -62.5t-73.5 -168.5zM713 186l-23 -186h-149l-11 96q-127 -110 -262 -110q-113 0 -179 73t-66 197q0 183 115 290t311 107q98 0 192 -20l16 69q11 45 11 80q0 62 -44.5 94.5
t-129.5 32.5q-113 0 -246 -47l-19 146q152 57 310 57q146 0 227.5 -66t81.5 -184q0 -47 -14 -115zM518 1550l-4 90q89 29 176 29q80 0 124 -26.5t40 -73.5q-5 -52 -60.5 -94t-181.5 -86l-12 67q75 32 104 51.5t29 38.5q0 31 -69 31q-53 0 -146 -27zM614 1284q114 0 160 107
h100q-25 -99 -98.5 -158t-175.5 -59q-104 0 -158.5 59.5t-40.5 157.5h95q3 -107 118 -107z" />
    <glyph glyph-name="uni1EB4" unicode="&#x1eb4;" horiz-adv-x="1153" 
d="M739 1245l-368 -756h407zM887 1448l108 -1448h-192l-17 322h-497l-156 -322h-201l732 1448h223zM770 1855q-23 0 -43.5 -19t-50.5 -67l-80 35q54 91 93 126.5t83 35.5q43 0 113 -43q59 -39 88 -39q21 0 41.5 18.5t52.5 67.5l78 -37q-51 -87 -91.5 -124t-84.5 -37
q-25 0 -48 8.5t-63 36.5q-58 38 -88 38zM813 1634q109 0 158 90h108q-29 -92 -104.5 -145t-175.5 -53q-103 0 -161 53.5t-52 144.5h100q6 -43 39 -66.5t88 -23.5z" />
    <glyph glyph-name="uni1EB5" unicode="&#x1eb5;" horiz-adv-x="913" 
d="M197 283q0 -67 39.5 -105.5t107.5 -38.5q93 0 197 66l69 297q-74 12 -139 12q-127 0 -200.5 -62.5t-73.5 -168.5zM713 186l-23 -186h-149l-11 96q-127 -110 -262 -110q-113 0 -179 73t-66 197q0 183 115 290t311 107q98 0 192 -20l16 69q11 45 11 80q0 62 -44.5 94.5
t-129.5 32.5q-113 0 -246 -47l-19 146q152 57 310 57q146 0 227.5 -66t81.5 -184q0 -47 -14 -115zM580 1530q-20 0 -40 -19t-51 -67l-77 35q49 87 88 123t84 36q21 0 41.5 -8.5t66.5 -36.5q36 -23 51 -30t31 -7q23 0 42.5 18t49.5 66l78 -32q-50 -89 -89.5 -125.5
t-82.5 -36.5q-24 0 -44.5 8.5t-63.5 36.5q-60 39 -84 39zM614 1284q114 0 160 107h100q-25 -99 -98.5 -158t-175.5 -59q-104 0 -158.5 59.5t-40.5 157.5h95q5 -54 33 -80.5t85 -26.5z" />
    <glyph glyph-name="uni1EB6" unicode="&#x1eb6;" horiz-adv-x="1153" 
d="M739 1245l-368 -756h407zM887 1448l108 -1448h-192l-17 322h-497l-156 -322h-201l732 1448h223zM813 1638q110 0 160 113h108q-31 -104 -106.5 -164.5t-175.5 -60.5q-103 0 -158 60.5t-47 164.5h102q9 -113 117 -113zM381 -84h151l-36 -174h-152z" />
    <glyph glyph-name="uni1EB7" unicode="&#x1eb7;" horiz-adv-x="913" 
d="M197 283q0 -67 39.5 -105.5t107.5 -38.5q93 0 197 66l69 297q-74 12 -139 12q-127 0 -200.5 -62.5t-73.5 -168.5zM713 186l-23 -186h-149l-11 96q-127 -110 -262 -110q-113 0 -179 73t-66 197q0 183 115 290t311 107q98 0 192 -20l16 69q11 45 11 80q0 62 -44.5 94.5
t-129.5 32.5q-113 0 -246 -47l-19 146q152 57 310 57q146 0 227.5 -66t81.5 -184q0 -47 -14 -115zM614 1286q110 0 162 133h101q-26 -112 -101.5 -178.5t-175.5 -66.5q-104 0 -155.5 67t-34.5 178h94q0 -133 110 -133zM246 -94h151l-37 -174h-151z" />
    <glyph glyph-name="uni1EB8" unicode="&#x1eb8;" horiz-adv-x="1030" 
d="M870 172l-36 -172h-801l309 1434h788l-36 -172h-596l-95 -441h529l-37 -170h-528l-105 -479h608zM354 -92h152l-37 -174h-152z" />
    <glyph glyph-name="uni1EB9" unicode="&#x1eb9;" horiz-adv-x="897" 
d="M684 725q0 92 -39 144.5t-108 52.5q-86 0 -164 -92t-115 -238h412q14 72 14 133zM680 188l14 -145q-133 -59 -274 -59q-173 0 -267 100.5t-94 286.5q0 165 60 325q62 160 160 258q119 119 278 119q136 0 214.5 -95t78.5 -259q0 -145 -45 -273h-578q-1 -19 -2.5 -41
t-1.5 -30q0 -117 58 -177.5t168 -60.5q117 0 231 51zM260 -94h152l-37 -174h-152z" />
    <glyph glyph-name="uni1EBA" unicode="&#x1eba;" horiz-adv-x="1030" 
d="M870 172l-36 -172h-801l309 1434h788l-36 -172h-596l-95 -441h529l-37 -170h-528l-105 -479h608zM596 1677l-4 99q106 28 221 28q99 0 153 -26.5t54 -75.5q0 -61 -67 -105.5t-222 -87.5l-12 80q96 31 132 49t36 35q0 31 -94 31q-86 0 -197 -27z" />
    <glyph glyph-name="uni1EBB" unicode="&#x1ebb;" horiz-adv-x="897" 
d="M684 725q0 92 -39 144.5t-108 52.5q-86 0 -164 -92t-115 -238h412q14 72 14 133zM680 188l14 -145q-133 -59 -274 -59q-173 0 -267 100.5t-94 286.5q0 165 60 325q62 160 160 258q119 119 278 119q136 0 214.5 -95t78.5 -259q0 -145 -45 -273h-578q-1 -19 -2.5 -41
t-1.5 -30q0 -117 58 -177.5t168 -60.5q117 0 231 51zM451 1350l-5 96q101 35 205 35q90 0 139.5 -29t49.5 -80q0 -61 -63.5 -108t-211.5 -97l-18 76q96 39 129 59.5t33 43.5q0 32 -82 32q-84 0 -176 -28z" />
    <glyph glyph-name="uni1EBC" unicode="&#x1ebc;" horiz-adv-x="1030" 
d="M870 172l-36 -172h-801l309 1434h788l-36 -172h-596l-95 -441h529l-37 -170h-528l-105 -479h608zM778 1573q-41 26 -60 34.5t-38 8.5q-25 0 -47.5 -21t-59.5 -77l-84 36q58 100 101 139.5t96 39.5q23 0 45.5 -9.5t77.5 -42.5q44 -28 62 -36.5t36 -8.5q24 0 47 21t60 78
l82 -37q-55 -98 -99.5 -138t-95.5 -40q-26 0 -51.5 11t-71.5 42z" />
    <glyph glyph-name="uni1EBD" unicode="&#x1ebd;" horiz-adv-x="897" 
d="M684 725q0 92 -39 144.5t-108 52.5q-86 0 -164 -92t-115 -238h412q14 72 14 133zM680 188l14 -145q-133 -59 -274 -59q-173 0 -267 100.5t-94 286.5q0 165 60 325q62 160 160 258q119 119 278 119q136 0 214.5 -95t78.5 -259q0 -145 -45 -273h-578q-1 -19 -2.5 -41
t-1.5 -30q0 -117 58 -177.5t168 -60.5q117 0 231 51zM610 1231q-50 31 -66 39t-30 8q-23 0 -41.5 -19t-60.5 -83l-80 34q55 104 97 144.5t93 40.5q26 0 47 -9.5t72 -42.5q50 -31 66 -39t30 -8q25 0 46.5 21.5t56.5 81.5l82 -37q-57 -104 -98.5 -144t-92.5 -40
q-26 0 -50 10.5t-71 42.5z" />
    <glyph glyph-name="uni1EBE" unicode="&#x1ebe;" horiz-adv-x="1030" 
d="M870 172l-36 -172h-801l309 1434h788l-36 -172h-596l-95 -441h529l-37 -170h-528l-105 -479h608zM1180 1862h223l-281 -168h-133zM1020 1526h-123l-109 88l-147 -88h-131l213 182h160z" />
    <glyph glyph-name="uni1EBF" unicode="&#x1ebf;" horiz-adv-x="897" 
d="M684 725q0 92 -39 144.5t-108 52.5q-86 0 -164 -92t-115 -238h412q14 72 14 133zM680 188l14 -145q-133 -59 -274 -59q-173 0 -267 100.5t-94 286.5q0 165 60 325q62 160 160 258q119 119 278 119q136 0 214.5 -95t78.5 -259q0 -145 -45 -273h-578q-1 -19 -2.5 -41
t-1.5 -30q0 -117 58 -177.5t168 -60.5q117 0 231 51zM1006 1565h211l-283 -197h-111zM844 1184h-111l-106 112l-156 -112h-121l223 213h140z" />
    <glyph glyph-name="uni1EC0" unicode="&#x1ec0;" horiz-adv-x="1030" 
d="M870 172l-36 -172h-801l309 1434h788l-36 -172h-596l-95 -441h529l-37 -170h-528l-105 -479h608zM868 1862h211l121 -168h-125zM1020 1526h-123l-109 88l-147 -88h-131l213 182h160z" />
    <glyph glyph-name="uni1EC1" unicode="&#x1ec1;" horiz-adv-x="897" 
d="M684 725q0 92 -39 144.5t-108 52.5q-86 0 -164 -92t-115 -238h412q14 72 14 133zM680 188l14 -145q-133 -59 -274 -59q-173 0 -267 100.5t-94 286.5q0 165 60 325q62 160 160 258q119 119 278 119q136 0 214.5 -95t78.5 -259q0 -145 -45 -273h-578q-1 -19 -2.5 -41
t-1.5 -30q0 -117 58 -177.5t168 -60.5q117 0 231 51zM897 1565l98 -197h-100l-193 197h195zM844 1184h-111l-106 112l-156 -112h-121l223 213h140z" />
    <glyph glyph-name="uni1EC2" unicode="&#x1ec2;" horiz-adv-x="1030" 
d="M870 172l-36 -172h-801l309 1434h788l-36 -172h-596l-95 -441h529l-37 -170h-528l-105 -479h608zM922 1810l-2 88q86 25 172 25q82 0 124.5 -25.5t38.5 -72.5q-4 -53 -58 -90t-177 -74l-10 72q73 26 101 41.5t28 29.5q3 27 -68 27q-67 0 -149 -21zM1020 1526h-123
l-109 88l-147 -88h-131l213 182h160z" />
    <glyph glyph-name="uni1EC3" unicode="&#x1ec3;" horiz-adv-x="897" 
d="M684 725q0 92 -39 144.5t-108 52.5q-86 0 -164 -92t-115 -238h412q14 72 14 133zM680 188l14 -145q-133 -59 -274 -59q-173 0 -267 100.5t-94 286.5q0 165 60 325q62 160 160 258q119 119 278 119q136 0 214.5 -95t78.5 -259q0 -145 -45 -273h-578q-1 -19 -2.5 -41
t-1.5 -30q0 -117 58 -177.5t168 -60.5q117 0 231 51zM774 1497l-6 88q76 27 166 27q72 0 112.5 -26t40.5 -70q0 -54 -53 -97t-172 -86l-16 66q70 31 98.5 51.5t28.5 40.5q0 29 -66 29q-56 0 -133 -23zM844 1184h-111l-106 112l-156 -112h-121l223 213h140z" />
    <glyph glyph-name="uni1EC4" unicode="&#x1ec4;" horiz-adv-x="1030" 
d="M870 172l-36 -172h-801l309 1434h788l-36 -172h-596l-95 -441h529l-37 -170h-528l-105 -479h608zM741 1829q-20 0 -40.5 -19t-51.5 -67l-82 35q51 87 91.5 124t84.5 37q25 0 47 -8.5t66 -34.5q41 -25 57 -31.5t33 -6.5q20 0 40 18.5t52 67.5l80 -37q-50 -86 -91 -124
t-85 -38q-26 0 -48.5 8.5t-64.5 36.5q-59 39 -88 39zM1024 1526h-125l-111 82l-149 -82h-131l215 174h160z" />
    <glyph glyph-name="uni1EC5" unicode="&#x1ec5;" horiz-adv-x="897" 
d="M684 725q0 92 -39 144.5t-108 52.5q-86 0 -164 -92t-115 -238h412q14 72 14 133zM680 188l14 -145q-133 -59 -274 -59q-173 0 -267 100.5t-94 286.5q0 165 60 325q62 160 160 258q119 119 278 119q136 0 214.5 -95t78.5 -259q0 -145 -45 -273h-578q-1 -19 -2.5 -41
t-1.5 -30q0 -117 58 -177.5t168 -60.5q117 0 231 51zM586 1518q-20 0 -40.5 -19t-51.5 -67l-78 34q51 88 89.5 124t82.5 36q21 0 41.5 -8.5t66.5 -36.5q56 -37 84 -37q20 0 40 19t50 65l78 -33q-50 -88 -89 -124.5t-83 -36.5q-21 0 -41.5 8.5t-66.5 36.5q-58 39 -82 39z
M846 1184h-111l-108 102l-160 -102h-121l225 200h140z" />
    <glyph glyph-name="uni1EC6" unicode="&#x1ec6;" horiz-adv-x="1030" 
d="M870 172l-36 -172h-801l309 1434h788l-36 -172h-596l-95 -441h529l-37 -170h-528l-105 -479h608zM1016 1526h-123l-100 106l-148 -106h-131l213 203h162zM354 -92h152l-37 -174h-152z" />
    <glyph glyph-name="uni1EC7" unicode="&#x1ec7;" horiz-adv-x="897" 
d="M684 725q0 92 -39 144.5t-108 52.5q-86 0 -164 -92t-115 -238h412q14 72 14 133zM680 188l14 -145q-133 -59 -274 -59q-173 0 -267 100.5t-94 286.5q0 165 60 325q62 160 160 258q119 119 278 119q136 0 214.5 -95t78.5 -259q0 -145 -45 -273h-578q-1 -19 -2.5 -41
t-1.5 -30q0 -117 58 -177.5t168 -60.5q117 0 231 51zM838 1184h-109l-98 135l-156 -135h-121l226 237h139zM260 -94h152l-37 -174h-152z" />
    <glyph glyph-name="uni1EC8" unicode="&#x1ec8;" horiz-adv-x="497" 
d="M348 1434h193l-310 -1434h-192zM295 1677l-4 99q106 28 221 28q99 0 153 -26.5t54 -75.5q0 -61 -67 -105.5t-222 -87.5l-12 80q96 31 132 49t36 35q0 31 -94 31q-86 0 -197 -27z" />
    <glyph glyph-name="uni1EC9" unicode="&#x1ec9;" horiz-adv-x="440" 
d="M244 1051h180l-227 -1051h-181zM215 1348l-4 96q101 35 205 35q90 0 139 -29t49 -80q0 -61 -63.5 -108t-210.5 -97l-19 76q97 40 129.5 59.5t32.5 42.5q0 33 -82 33q-84 0 -176 -28z" />
    <glyph glyph-name="uni1ECA" unicode="&#x1eca;" horiz-adv-x="497" 
d="M348 1434h193l-310 -1434h-192zM41 -92h152l-37 -174h-152z" />
    <glyph glyph-name="uni1ECB" unicode="&#x1ecb;" horiz-adv-x="440" 
d="M319 1427h193l-39 -180h-192zM244 1051h180l-227 -1051h-181zM10 -92h152l-37 -174h-152z" />
    <glyph glyph-name="uni1ECC" unicode="&#x1ecc;" horiz-adv-x="1212" 
d="M907 137q-157 -157 -360 -157t-319.5 138t-116.5 382q0 236 75 452q76 219 201 344q158 158 363 158q202 0 318 -138t116 -382q0 -230 -78 -455q-78 -221 -199 -342zM991 948q0 161 -66.5 250.5t-185.5 89.5q-113 0 -209 -96q-93 -93 -161 -303q-66 -213 -66 -404
q0 -161 66.5 -250.5t185.5 -89.5q112 0 209 97q96 96 160 303q67 207 67 403zM406 -104h151l-37 -175h-151z" />
    <glyph glyph-name="uni1ECD" unicode="&#x1ecd;" horiz-adv-x="935" 
d="M668 98q-118 -118 -279 -118q-153 0 -241.5 105t-88.5 288q0 170 58 325q61 162 153 254q121 121 277 121q153 0 241.5 -105t88.5 -288q0 -171 -56.5 -328.5t-152.5 -253.5zM236 367q0 -108 45 -171t120 -63q76 0 142 66q66 69 112 209q47 146 47 276q0 108 -45 171
t-120 63q-76 0 -142 -66q-67 -67 -112 -207q-47 -146 -47 -278zM270 -94h152l-37 -174h-152z" />
    <glyph glyph-name="uni1ECE" unicode="&#x1ece;" horiz-adv-x="1212" 
d="M907 137q-157 -157 -360 -157t-319.5 138t-116.5 382q0 236 75 452q76 219 201 344q158 158 363 158q202 0 318 -138t116 -382q0 -230 -78 -455q-78 -221 -199 -342zM991 948q0 161 -66.5 250.5t-185.5 89.5q-113 0 -209 -96q-93 -93 -161 -303q-66 -213 -66 -404
q0 -161 66.5 -250.5t185.5 -89.5q112 0 209 97q96 96 160 303q67 207 67 403zM635 1690l-4 98q110 29 221 29q99 0 153 -27t54 -76q0 -61 -67 -105t-222 -87l-12 80q96 31 132 49t36 35q0 30 -95 30q-89 0 -196 -26z" />
    <glyph glyph-name="uni1ECF" unicode="&#x1ecf;" horiz-adv-x="935" 
d="M668 98q-118 -118 -279 -118q-153 0 -241.5 105t-88.5 288q0 170 58 325q61 162 153 254q121 121 277 121q153 0 241.5 -105t88.5 -288q0 -171 -56.5 -328.5t-152.5 -253.5zM236 367q0 -108 45 -171t120 -63q76 0 142 66q66 69 112 209q47 146 47 276q0 108 -45 171
t-120 63q-76 0 -142 -66q-67 -67 -112 -207q-47 -146 -47 -278zM449 1350l-5 96q101 35 205 35q90 0 139.5 -29t49.5 -80q0 -61 -63.5 -108t-211.5 -97l-18 76q96 39 129 59.5t33 43.5q0 32 -82 32q-84 0 -176 -28z" />
    <glyph glyph-name="uni1ED0" unicode="&#x1ed0;" horiz-adv-x="1212" 
d="M907 137q-157 -157 -360 -157t-319.5 138t-116.5 382q0 236 75 452q76 219 201 344q158 158 363 158q202 0 318 -138t116 -382q0 -230 -78 -455q-78 -221 -199 -342zM991 948q0 161 -66.5 250.5t-185.5 89.5q-113 0 -209 -96q-93 -93 -161 -303q-66 -213 -66 -404
q0 -161 66.5 -250.5t185.5 -89.5q112 0 209 97q96 96 160 303q67 207 67 403zM1219 1874h223l-281 -168h-133zM1059 1538h-123l-109 88l-147 -88h-131l213 182h160z" />
    <glyph glyph-name="uni1ED1" unicode="&#x1ed1;" horiz-adv-x="935" 
d="M668 98q-118 -118 -279 -118q-153 0 -241.5 105t-88.5 288q0 170 58 325q61 162 153 254q121 121 277 121q153 0 241.5 -105t88.5 -288q0 -171 -56.5 -328.5t-152.5 -253.5zM236 367q0 -108 45 -171t120 -63q76 0 142 66q66 69 112 209q47 146 47 276q0 108 -45 171
t-120 63q-76 0 -142 -66q-67 -67 -112 -207q-47 -146 -47 -278zM1006 1565h211l-283 -197h-111zM844 1184h-111l-106 112l-156 -112h-121l223 213h140z" />
    <glyph glyph-name="uni1ED2" unicode="&#x1ed2;" horiz-adv-x="1212" 
d="M907 137q-157 -157 -360 -157t-319.5 138t-116.5 382q0 236 75 452q76 219 201 344q158 158 363 158q202 0 318 -138t116 -382q0 -230 -78 -455q-78 -221 -199 -342zM991 948q0 161 -66.5 250.5t-185.5 89.5q-113 0 -209 -96q-93 -93 -161 -303q-66 -213 -66 -404
q0 -161 66.5 -250.5t185.5 -89.5q112 0 209 97q96 96 160 303q67 207 67 403zM907 1874h211l121 -168h-125zM1059 1538h-123l-109 88l-147 -88h-131l213 182h160z" />
    <glyph glyph-name="uni1ED3" unicode="&#x1ed3;" horiz-adv-x="935" 
d="M668 98q-118 -118 -279 -118q-153 0 -241.5 105t-88.5 288q0 170 58 325q61 162 153 254q121 121 277 121q153 0 241.5 -105t88.5 -288q0 -171 -56.5 -328.5t-152.5 -253.5zM236 367q0 -108 45 -171t120 -63q76 0 142 66q66 69 112 209q47 146 47 276q0 108 -45 171
t-120 63q-76 0 -142 -66q-67 -67 -112 -207q-47 -146 -47 -278zM897 1565l98 -197h-100l-193 197h195zM844 1184h-111l-106 112l-156 -112h-121l223 213h140z" />
    <glyph glyph-name="uni1ED4" unicode="&#x1ed4;" horiz-adv-x="1212" 
d="M907 137q-157 -157 -360 -157t-319.5 138t-116.5 382q0 236 75 452q76 219 201 344q158 158 363 158q202 0 318 -138t116 -382q0 -230 -78 -455q-78 -221 -199 -342zM991 948q0 161 -66.5 250.5t-185.5 89.5q-113 0 -209 -96q-93 -93 -161 -303q-66 -213 -66 -404
q0 -161 66.5 -250.5t185.5 -89.5q112 0 209 97q96 96 160 303q67 207 67 403zM961 1823l-3 88q83 24 172 24q82 0 125 -25.5t39 -72.5q-4 -53 -58 -90t-177 -74l-10 72q129 45 129 72q3 26 -68 26q-70 0 -149 -20zM1059 1538h-123l-109 88l-147 -88h-131l213 182h160z" />
    <glyph glyph-name="uni1ED5" unicode="&#x1ed5;" horiz-adv-x="935" 
d="M668 98q-118 -118 -279 -118q-153 0 -241.5 105t-88.5 288q0 170 58 325q61 162 153 254q121 121 277 121q153 0 241.5 -105t88.5 -288q0 -171 -56.5 -328.5t-152.5 -253.5zM236 367q0 -108 45 -171t120 -63q76 0 142 66q66 69 112 209q47 146 47 276q0 108 -45 171
t-120 63q-76 0 -142 -66q-67 -67 -112 -207q-47 -146 -47 -278zM774 1497l-6 88q76 27 166 27q72 0 112.5 -26t40.5 -70q0 -54 -53 -97t-172 -86l-16 66q70 31 98.5 51.5t28.5 40.5q0 29 -66 29q-56 0 -133 -23zM844 1184h-111l-106 112l-156 -112h-121l223 213h140z" />
    <glyph glyph-name="uni1ED6" unicode="&#x1ed6;" horiz-adv-x="1212" 
d="M907 137q-157 -157 -360 -157t-319.5 138t-116.5 382q0 236 75 452q76 219 201 344q158 158 363 158q202 0 318 -138t116 -382q0 -230 -78 -455q-78 -221 -199 -342zM991 948q0 161 -66.5 250.5t-185.5 89.5q-113 0 -209 -96q-93 -93 -161 -303q-66 -213 -66 -404
q0 -161 66.5 -250.5t185.5 -89.5q112 0 209 97q96 96 160 303q67 207 67 403zM780 1841q-20 0 -40.5 -19t-51.5 -67l-82 35q51 88 91.5 125t84.5 37q25 0 47 -8.5t66 -34.5q42 -25 57.5 -32t32.5 -7q20 0 40 18.5t52 67.5l80 -37q-50 -86 -91 -124t-85 -38q-26 0 -48.5 8.5
t-64.5 36.5q-59 39 -88 39zM1063 1538h-125l-111 82l-149 -82h-131l215 174h160z" />
    <glyph glyph-name="uni1ED7" unicode="&#x1ed7;" horiz-adv-x="935" 
d="M668 98q-118 -118 -279 -118q-153 0 -241.5 105t-88.5 288q0 170 58 325q61 162 153 254q121 121 277 121q153 0 241.5 -105t88.5 -288q0 -171 -56.5 -328.5t-152.5 -253.5zM236 367q0 -108 45 -171t120 -63q76 0 142 66q66 69 112 209q47 146 47 276q0 108 -45 171
t-120 63q-76 0 -142 -66q-67 -67 -112 -207q-47 -146 -47 -278zM586 1518q-20 0 -40.5 -19t-51.5 -67l-78 34q51 88 89.5 124t82.5 36q21 0 41.5 -8.5t66.5 -36.5q56 -37 84 -37q20 0 40 19t50 65l78 -33q-50 -88 -89 -124.5t-83 -36.5q-21 0 -41.5 8.5t-66.5 36.5
q-58 39 -82 39zM846 1184h-111l-108 102l-160 -102h-121l225 200h140z" />
    <glyph glyph-name="uni1ED8" unicode="&#x1ed8;" horiz-adv-x="1212" 
d="M907 137q-157 -157 -360 -157t-319.5 138t-116.5 382q0 236 75 452q76 219 201 344q158 158 363 158q202 0 318 -138t116 -382q0 -230 -78 -455q-78 -221 -199 -342zM991 948q0 161 -66.5 250.5t-185.5 89.5q-113 0 -209 -96q-93 -93 -161 -303q-66 -213 -66 -404
q0 -161 66.5 -250.5t185.5 -89.5q112 0 209 97q96 96 160 303q67 207 67 403zM1055 1538h-123l-101 107l-147 -107h-131l213 203h162zM406 -104h151l-37 -175h-151z" />
    <glyph glyph-name="uni1ED9" unicode="&#x1ed9;" horiz-adv-x="935" 
d="M668 98q-118 -118 -279 -118q-153 0 -241.5 105t-88.5 288q0 170 58 325q61 162 153 254q121 121 277 121q153 0 241.5 -105t88.5 -288q0 -171 -56.5 -328.5t-152.5 -253.5zM236 367q0 -108 45 -171t120 -63q76 0 142 66q66 69 112 209q47 146 47 276q0 108 -45 171
t-120 63q-76 0 -142 -66q-67 -67 -112 -207q-47 -146 -47 -278zM838 1184h-109l-98 135l-156 -135h-121l226 237h139zM270 -94h152l-37 -174h-152z" />
    <glyph glyph-name="uni1EDA" unicode="&#x1eda;" horiz-adv-x="1212" 
d="M889 1737h227l-291 -197h-151zM907 137q-157 -157 -360 -157t-319.5 137.5t-116.5 378.5q0 237 75 450q76 216 201 344q158 158 381 158q11 0 23 -0.5t32 -1.5t39 -2q23 0 46.5 -1t29.5 -1q123 0 189 43t67 125q2 15 -6 57l133 37q12 -40 12 -80q0 -118 -82.5 -193
t-228.5 -85q162 -138 162 -418q0 -227 -78 -449q-78 -221 -199 -342zM991 948q0 158 -66.5 247t-185.5 89q-113 0 -209 -96q-93 -90 -161 -301q-66 -213 -66 -406q0 -158 66.5 -247t185.5 -89q112 0 209 97q96 96 160 303q67 207 67 403z" />
    <glyph glyph-name="uni1EDB" unicode="&#x1edb;" horiz-adv-x="935" 
d="M688 1419h205l-291 -235h-131zM668 98q-118 -118 -279 -118q-152 0 -241 104.5t-89 284.5q0 168 57.5 325t153.5 250q115 121 287 121q20 0 45 -2q31 -2 55 -2q100 0 160 44t62 118q3 25 -5 47l125 37q13 -41 13 -74q0 -100 -65.5 -168.5t-180.5 -87.5q111 -111 111 -303
q0 -167 -57.5 -324.5t-151.5 -251.5zM236 367q0 -108 45 -171t120 -63q76 0 142 66q65 65 112 207q47 146 47 274q0 108 -45 170.5t-120 62.5t-142 -67t-112 -207q-47 -143 -47 -272z" />
    <glyph glyph-name="uni1EDC" unicode="&#x1edc;" horiz-adv-x="1212" 
d="M907 137q-157 -157 -360 -157t-319.5 137.5t-116.5 378.5q0 237 75 450q76 216 201 344q158 158 381 158q11 0 23 -0.5t32 -1.5t39 -2q23 0 46.5 -1t29.5 -1q123 0 189 43t67 125q2 15 -6 57l133 37q12 -40 12 -80q0 -118 -82.5 -193t-228.5 -85q162 -138 162 -418
q0 -227 -78 -449q-78 -221 -199 -342zM991 948q0 158 -66.5 247t-185.5 89q-113 0 -209 -96q-93 -90 -161 -301q-66 -213 -66 -406q0 -158 66.5 -247t185.5 -89q112 0 209 97q96 96 160 303q67 207 67 403zM776 1735l137 -197h-139l-223 197h225z" />
    <glyph glyph-name="uni1EDD" unicode="&#x1edd;" horiz-adv-x="935" 
d="M668 98q-118 -118 -279 -118q-152 0 -241 104.5t-89 284.5q0 168 57.5 325t153.5 250q115 121 287 121q20 0 45 -2q31 -2 55 -2q100 0 160 44t62 118q3 25 -5 47l125 37q13 -41 13 -74q0 -100 -65.5 -168.5t-180.5 -87.5q111 -111 111 -303q0 -167 -57.5 -324.5
t-151.5 -251.5zM236 367q0 -108 45 -171t120 -63q76 0 142 66q65 65 112 207q47 146 47 274q0 108 -45 170.5t-120 62.5t-142 -67t-112 -207q-47 -143 -47 -272zM573 1419l117 -235h-115l-215 235h213z" />
    <glyph glyph-name="uni1EDE" unicode="&#x1ede;" horiz-adv-x="1212" 
d="M907 137q-157 -157 -360 -157t-319.5 137.5t-116.5 378.5q0 237 75 450q76 216 201 344q158 158 381 158q11 0 23 -0.5t32 -1.5t39 -2q23 0 46.5 -1t29.5 -1q123 0 189 43t67 125q2 15 -6 57l133 37q12 -40 12 -80q0 -118 -82.5 -193t-228.5 -85q162 -138 162 -418
q0 -227 -78 -449q-78 -221 -199 -342zM991 948q0 158 -66.5 247t-185.5 89q-113 0 -209 -96q-93 -90 -161 -301q-66 -213 -66 -406q0 -158 66.5 -247t185.5 -89q112 0 209 97q96 96 160 303q67 207 67 403zM635 1690l-4 98q110 29 221 29q99 0 153 -27t54 -76
q0 -61 -67 -105t-222 -87l-12 80q96 31 132 49t36 35q0 30 -95 30q-89 0 -196 -26z" />
    <glyph glyph-name="uni1EDF" unicode="&#x1edf;" horiz-adv-x="935" 
d="M442 1350l-2 98q90 33 197 33q180 0 180 -109q0 -61 -63 -109t-203 -96l-14 78q88 37 121.5 59t33.5 42q0 34 -78 34q-62 0 -172 -30zM668 98q-118 -118 -279 -118q-152 0 -241 104.5t-89 284.5q0 168 57.5 325t153.5 250q115 121 287 121q20 0 45 -2q31 -2 55 -2
q100 0 160 44t62 118q3 25 -5 47l125 37q13 -41 13 -74q0 -100 -65.5 -168.5t-180.5 -87.5q111 -111 111 -303q0 -167 -57.5 -324.5t-151.5 -251.5zM236 367q0 -108 45 -171t120 -63q76 0 142 66q65 65 112 207q47 146 47 274q0 108 -45 170.5t-120 62.5t-142 -67t-112 -207
q-47 -143 -47 -272z" />
    <glyph glyph-name="uni1EE0" unicode="&#x1ee0;" horiz-adv-x="1212" 
d="M791 1585q-37 28 -55 36.5t-38 8.5q-21 0 -42.5 -22t-53.5 -76l-82 37q54 99 95 138.5t90 39.5q23 0 44.5 -10t69.5 -43q39 -27 56 -35t36 -8q21 0 43.5 22t53.5 76l79 -37q-51 -97 -92 -137.5t-88 -40.5q-27 0 -51.5 10.5t-64.5 40.5zM907 137q-157 -157 -360 -157
t-319.5 137.5t-116.5 378.5q0 237 75 450q76 216 201 344q158 158 381 158q11 0 23 -0.5t32 -1.5t39 -2q23 0 46.5 -1t29.5 -1q123 0 189 43t67 125q2 15 -6 57l133 37q12 -40 12 -80q0 -118 -82.5 -193t-228.5 -85q162 -138 162 -418q0 -227 -78 -449q-78 -221 -199 -342z
M991 948q0 158 -66.5 247t-185.5 89q-113 0 -209 -96q-93 -90 -161 -301q-66 -213 -66 -406q0 -158 66.5 -247t185.5 -89q112 0 209 97q96 96 160 303q67 207 67 403z" />
    <glyph glyph-name="uni1EE1" unicode="&#x1ee1;" horiz-adv-x="935" 
d="M571 1231q-61 47 -82 47q-19 0 -38 -22.5t-50 -79.5l-75 34q47 103 84.5 145t81.5 42q20 0 38.5 -9.5t65.5 -44.5q43 -31 57.5 -39t26.5 -8q18 0 37 23t49 80l78 -33q-51 -106 -87 -147t-79 -41q-22 0 -41 9t-66 44zM668 98q-118 -118 -279 -118q-152 0 -241 104.5
t-89 284.5q0 168 57.5 325t153.5 250q115 121 287 121q20 0 45 -2q31 -2 55 -2q100 0 160 44t62 118q3 25 -5 47l125 37q13 -41 13 -74q0 -100 -65.5 -168.5t-180.5 -87.5q111 -111 111 -303q0 -167 -57.5 -324.5t-151.5 -251.5zM236 367q0 -108 45 -171t120 -63
q76 0 142 66q65 65 112 207q47 146 47 274q0 108 -45 170.5t-120 62.5t-142 -67t-112 -207q-47 -143 -47 -272z" />
    <glyph glyph-name="uni1EE2" unicode="&#x1ee2;" horiz-adv-x="1212" 
d="M907 137q-157 -157 -360 -157t-319.5 137.5t-116.5 378.5q0 237 75 450q76 216 201 344q158 158 381 158q11 0 23 -0.5t32 -1.5t39 -2q23 0 46.5 -1t29.5 -1q123 0 189 43t67 125q2 15 -6 57l133 37q12 -40 12 -80q0 -118 -82.5 -193t-228.5 -85q162 -138 162 -418
q0 -227 -78 -449q-78 -221 -199 -342zM991 948q0 158 -66.5 247t-185.5 89q-113 0 -209 -96q-93 -90 -161 -301q-66 -213 -66 -406q0 -158 66.5 -247t185.5 -89q112 0 209 97q96 96 160 303q67 207 67 403zM403 -104h152l-37 -175h-151z" />
    <glyph glyph-name="uni1EE3" unicode="&#x1ee3;" horiz-adv-x="935" 
d="M668 98q-118 -118 -279 -118q-152 0 -241 104.5t-89 284.5q0 168 57.5 325t153.5 250q115 121 287 121q20 0 45 -2q31 -2 55 -2q100 0 160 44t62 118q3 25 -5 47l125 37q13 -41 13 -74q0 -100 -65.5 -168.5t-180.5 -87.5q111 -111 111 -303q0 -167 -57.5 -324.5
t-151.5 -251.5zM236 367q0 -108 45 -171t120 -63q76 0 142 66q65 65 112 207q47 146 47 274q0 108 -45 170.5t-120 62.5t-142 -67t-112 -207q-47 -143 -47 -272zM268 -94h152l-37 -174h-152z" />
    <glyph glyph-name="uni1EE4" unicode="&#x1ee4;" horiz-adv-x="1183" 
d="M1051 1434h192l-211 -994q-51 -227 -178.5 -342.5t-325.5 -115.5q-191 0 -300 102.5t-109 282.5q0 85 22 178l189 889h192l-194 -924q-17 -73 -17 -129q0 -108 61 -169.5t167 -61.5q113 0 191.5 79t113.5 228zM385 -104h152l-37 -175h-152z" />
    <glyph glyph-name="uni1EE5" unicode="&#x1ee5;" horiz-adv-x="976" 
d="M965 1051l-228 -1051h-141l-10 90q-144 -104 -277 -104q-113 0 -177 62.5t-64 172.5q0 63 16 129l149 701h179l-146 -684q-10 -42 -10 -86q0 -66 36.5 -102t102.5 -36q92 0 211 80l178 828h181zM283 -94h151l-37 -174h-151z" />
    <glyph glyph-name="uni1EE6" unicode="&#x1ee6;" horiz-adv-x="1183" 
d="M1051 1434h192l-211 -994q-51 -227 -178.5 -342.5t-325.5 -115.5q-191 0 -300 102.5t-109 282.5q0 85 22 178l189 889h192l-194 -924q-17 -73 -17 -129q0 -108 61 -169.5t167 -61.5q113 0 191.5 79t113.5 228zM627 1669l-4 98q110 29 221 29q99 0 153 -26.5t54 -75.5
q0 -61 -67 -105.5t-222 -87.5l-12 80q96 31 132 49t36 35q0 31 -95 31q-85 0 -196 -27z" />
    <glyph glyph-name="uni1EE7" unicode="&#x1ee7;" horiz-adv-x="976" 
d="M965 1051l-228 -1051h-141l-10 90q-144 -104 -277 -104q-113 0 -177 62.5t-64 172.5q0 63 16 129l149 701h179l-146 -684q-10 -42 -10 -86q0 -66 36.5 -102t102.5 -36q92 0 211 80l178 828h181zM473 1339l-4 97q98 34 205 34q90 0 139 -28.5t49 -79.5q0 -61 -63.5 -108
t-210.5 -97l-19 76q97 40 129.5 59.5t32.5 42.5q0 33 -82 33q-81 0 -176 -29z" />
    <glyph glyph-name="uni1EE8" unicode="&#x1ee8;" horiz-adv-x="1236" 
d="M528 -18q-191 0 -300 102.5t-109 282.5q0 85 22 178l189 889h192l-194 -924q-17 -73 -17 -129q0 -108 61 -169.5t167 -61.5q113 0 191.5 79t113.5 228l207 977h26q128 0 199 46t76 128q0 32 -9 59l134 37q14 -43 14 -82q0 -103 -70.5 -175.5t-195.5 -98.5l-193 -908
q-51 -227 -178.5 -342.5t-325.5 -115.5zM897 1714h242l-310 -196h-149z" />
    <glyph glyph-name="uni1EE9" unicode="&#x1ee9;" horiz-adv-x="1017" 
d="M727 1413h225l-315 -235h-127zM737 0h-141l-10 90q-144 -104 -277 -104q-113 0 -177 62.5t-64 172.5q0 63 16 129l149 701h179l-146 -684q-10 -42 -10 -86q0 -66 36.5 -102t102.5 -36q92 0 211 80l178 828h19q114 0 180 46t68 122q3 25 -4 53l124 35q13 -41 13 -74
q0 -96 -62.5 -165t-173.5 -95z" />
    <glyph glyph-name="uni1EEA" unicode="&#x1eea;" horiz-adv-x="1236" 
d="M528 -18q-191 0 -300 102.5t-109 282.5q0 85 22 178l189 889h192l-194 -924q-17 -73 -17 -129q0 -108 61 -169.5t167 -61.5q113 0 191.5 79t113.5 228l207 977h26q128 0 199 46t76 128q0 32 -9 59l134 37q14 -43 14 -82q0 -103 -70.5 -175.5t-195.5 -98.5l-193 -908
q-51 -227 -178.5 -342.5t-325.5 -115.5zM768 1714l137 -196h-139l-223 196h225z" />
    <glyph glyph-name="uni1EEB" unicode="&#x1eeb;" horiz-adv-x="1017" 
d="M737 0h-141l-10 90q-144 -104 -277 -104q-113 0 -177 62.5t-64 172.5q0 63 16 129l149 701h179l-146 -684q-10 -42 -10 -86q0 -66 36.5 -102t102.5 -36q92 0 211 80l178 828h19q114 0 180 46t68 122q3 25 -4 53l124 35q13 -41 13 -74q0 -96 -62.5 -165t-173.5 -95z
M598 1409l117 -235h-115l-215 235h213z" />
    <glyph glyph-name="uni1EEC" unicode="&#x1eec;" horiz-adv-x="1236" 
d="M528 -18q-191 0 -300 102.5t-109 282.5q0 85 22 178l189 889h192l-194 -924q-17 -73 -17 -129q0 -108 61 -169.5t167 -61.5q113 0 191.5 79t113.5 228l207 977h26q128 0 199 46t76 128q0 32 -9 59l134 37q14 -43 14 -82q0 -103 -70.5 -175.5t-195.5 -98.5l-193 -908
q-51 -227 -178.5 -342.5t-325.5 -115.5zM627 1669l-4 98q110 29 221 29q99 0 153 -26.5t54 -75.5q0 -61 -67 -105.5t-222 -87.5l-12 80q96 31 132 49t36 35q0 31 -95 31q-85 0 -196 -27z" />
    <glyph glyph-name="uni1EED" unicode="&#x1eed;" horiz-adv-x="1017" 
d="M737 0h-141l-10 90q-144 -104 -277 -104q-113 0 -177 62.5t-64 172.5q0 63 16 129l149 701h179l-146 -684q-10 -42 -10 -86q0 -66 36.5 -102t102.5 -36q92 0 211 80l178 828h19q114 0 180 46t68 122q3 25 -4 53l124 35q13 -41 13 -74q0 -96 -62.5 -165t-173.5 -95z
M473 1339l-4 97q98 34 205 34q90 0 139 -28.5t49 -79.5q0 -61 -63.5 -108t-210.5 -97l-19 76q97 40 129.5 59.5t32.5 42.5q0 33 -82 33q-81 0 -176 -29z" />
    <glyph glyph-name="uni1EEE" unicode="&#x1eee;" horiz-adv-x="1236" 
d="M528 -18q-191 0 -300 102.5t-109 282.5q0 85 22 178l189 889h192l-194 -924q-17 -73 -17 -129q0 -108 61 -169.5t167 -61.5q113 0 191.5 79t113.5 228l207 977h26q128 0 199 46t76 128q0 32 -9 59l134 37q14 -43 14 -82q0 -103 -70.5 -175.5t-195.5 -98.5l-193 -908
q-51 -227 -178.5 -342.5t-325.5 -115.5zM811 1573q-41 26 -60 34.5t-38 8.5q-25 0 -47.5 -21t-59.5 -77l-84 36q58 100 101 139.5t96 39.5q23 0 45.5 -9.5t77.5 -42.5q44 -28 62 -36.5t36 -8.5q24 0 47 21t60 78l81 -37q-55 -98 -99 -138t-95 -40q-26 0 -51.5 11t-71.5 42z
" />
    <glyph glyph-name="uni1EEF" unicode="&#x1eef;" horiz-adv-x="1017" 
d="M621 1229q-47 33 -62.5 40t-30.5 7q-23 0 -42.5 -20.5t-55.5 -81.5l-78 34q54 104 94.5 144.5t90.5 40.5q25 0 44.5 -8.5t69.5 -43.5q45 -31 61.5 -39t30.5 -8q24 0 46 22.5t55 80.5l78 -37q-54 -104 -94.5 -144t-90.5 -40q-25 0 -48.5 10.5t-67.5 42.5zM737 0h-141
l-10 90q-144 -104 -277 -104q-113 0 -177 62.5t-64 172.5q0 63 16 129l149 701h179l-146 -684q-10 -42 -10 -86q0 -66 36.5 -102t102.5 -36q92 0 211 80l178 828h19q114 0 180 46t68 122q3 25 -4 53l124 35q13 -41 13 -74q0 -96 -62.5 -165t-173.5 -95z" />
    <glyph glyph-name="uni1EF0" unicode="&#x1ef0;" horiz-adv-x="1236" 
d="M528 -18q-191 0 -300 102.5t-109 282.5q0 85 22 178l189 889h192l-194 -924q-17 -73 -17 -129q0 -108 61 -169.5t167 -61.5q113 0 191.5 79t113.5 228l207 977h26q128 0 199 46t76 128q0 32 -9 59l134 37q14 -43 14 -82q0 -103 -70.5 -175.5t-195.5 -98.5l-193 -908
q-51 -227 -178.5 -342.5t-325.5 -115.5zM385 -104h152l-37 -175h-152z" />
    <glyph glyph-name="uni1EF1" unicode="&#x1ef1;" horiz-adv-x="1017" 
d="M737 0h-141l-10 90q-144 -104 -277 -104q-113 0 -177 62.5t-64 172.5q0 63 16 129l149 701h179l-146 -684q-10 -42 -10 -86q0 -66 36.5 -102t102.5 -36q92 0 211 80l178 828h19q114 0 180 46t68 122q3 25 -4 53l124 35q13 -41 13 -74q0 -96 -62.5 -165t-173.5 -95z
M283 -94h151l-37 -174h-151z" />
    <glyph glyph-name="Ygrave" unicode="&#x1ef2;" horiz-adv-x="1077" 
d="M1249 1434l-612 -881l-119 -553h-192l120 559l-231 875h199l166 -689l454 689h215zM711 1714l137 -196h-139l-224 196h226z" />
    <glyph glyph-name="ygrave" unicode="&#x1ef3;" horiz-adv-x="888" 
d="M-51 -360l-21 155q103 30 175.5 74t134.5 113l-84 1069h176l41 -889l407 889h187l-506 -1014q-87 -172 -205 -264q-111 -86 -305 -133zM555 1409l117 -235h-115l-215 235h213z" />
    <glyph glyph-name="uni1EF4" unicode="&#x1ef4;" horiz-adv-x="1077" 
d="M1249 1434l-612 -881l-119 -553h-192l120 559l-231 875h199l166 -689l454 689h215zM328 -92h151l-37 -174h-151z" />
    <glyph glyph-name="uni1EF5" unicode="&#x1ef5;" horiz-adv-x="888" 
d="M-51 -360l-21 155q103 30 175.5 74t134.5 113l-84 1069h176l41 -889l407 889h187l-506 -1014q-87 -172 -205 -264q-111 -86 -305 -133zM416 -184h151l-37 -174h-151z" />
    <glyph glyph-name="uni1EF6" unicode="&#x1ef6;" horiz-adv-x="1077" 
d="M1249 1434l-612 -881l-119 -553h-192l120 559l-231 875h199l166 -689l454 689h215zM569 1669l-4 98q110 29 221 29q99 0 153 -26.5t54 -75.5q0 -61 -66.5 -105.5t-221.5 -87.5l-13 80q96 31 132 49t36 35q0 31 -94 31q-86 0 -197 -27z" />
    <glyph glyph-name="uni1EF7" unicode="&#x1ef7;" horiz-adv-x="888" 
d="M-51 -360l-21 155q103 30 175.5 74t134.5 113l-84 1069h176l41 -889l407 889h187l-506 -1014q-87 -172 -205 -264q-111 -86 -305 -133zM432 1339l-4 97q98 34 205 34q90 0 139 -28.5t49 -79.5q0 -61 -63.5 -108t-210.5 -97l-19 76q97 40 129.5 59.5t32.5 42.5
q0 33 -82 33q-81 0 -176 -29z" />
    <glyph glyph-name="uni1EF8" unicode="&#x1ef8;" horiz-adv-x="1077" 
d="M1249 1434l-612 -881l-119 -553h-192l120 559l-231 875h199l166 -689l454 689h215zM754 1573q-41 26 -60.5 34.5t-38.5 8.5q-24 0 -46.5 -21t-59.5 -77l-84 36q58 100 101 139.5t96 39.5q23 0 45 -9.5t77 -42.5q43 -27 62 -36t37 -9q24 0 46 21t60 78l82 -37
q-55 -98 -99 -138t-95 -40q-26 0 -51.5 11t-71.5 42z" />
    <glyph glyph-name="uni1EF9" unicode="&#x1ef9;" horiz-adv-x="888" 
d="M-51 -360l-21 155q103 30 175.5 74t134.5 113l-84 1069h176l41 -889l407 889h187l-506 -1014q-87 -172 -205 -264q-111 -86 -305 -133zM594 1229q-50 31 -66 39t-30 8q-23 0 -42 -19t-61 -83l-80 34q55 104 97.5 144.5t93.5 40.5q26 0 47 -9.5t72 -42.5q50 -31 66 -39
t30 -8q25 0 46 21.5t56 81.5l82 -37q-57 -104 -98 -144t-92 -40q-26 0 -50 10.5t-71 42.5z" />
    <glyph glyph-name="uni2002" unicode="&#x2002;" horiz-adv-x="1024" 
 />
    <glyph glyph-name="uni2003" unicode="&#x2003;" horiz-adv-x="2048" 
 />
    <glyph glyph-name="uni2004" unicode="&#x2004;" horiz-adv-x="681" 
 />
    <glyph glyph-name="uni2005" unicode="&#x2005;" horiz-adv-x="512" 
 />
    <glyph glyph-name="uni2007" unicode="&#x2007;" horiz-adv-x="999" 
 />
    <glyph glyph-name="uni2009" unicode="&#x2009;" horiz-adv-x="256" 
 />
    <glyph glyph-name="uni200A" unicode="&#x200a;" horiz-adv-x="86" 
 />
    <glyph glyph-name="uni2011" unicode="&#x2011;" horiz-adv-x="612" 
d="M113 707h465l-37 -166h-465z" />
    <glyph glyph-name="uni2012" unicode="&#x2012;" horiz-adv-x="999" 
d="M147 815h746l-35 -164h-745z" />
    <glyph glyph-name="endash" unicode="&#x2013;" horiz-adv-x="884" 
d="M113 705h737l-35 -162h-739z" />
    <glyph glyph-name="emdash" unicode="&#x2014;" horiz-adv-x="1423" 
d="M113 705h1276l-37 -162h-1276z" />
    <glyph glyph-name="uni2015" unicode="&#x2015;" horiz-adv-x="1423" 
d="M113 705h1276l-37 -162h-1276z" />
    <glyph glyph-name="quoteleft" unicode="&#x2018;" horiz-adv-x="376" 
d="M334 965h-180q29 166 105.5 285.5t227.5 234.5l56 -45q-92 -115 -133 -209q-42 -97 -76 -266z" />
    <glyph glyph-name="quoteright" unicode="&#x2019;" horiz-adv-x="376" 
d="M346 1477h180q-29 -166 -106 -286.5t-230 -236.5l-53 47q91 114 133 211q40 91 76 265z" />
    <glyph glyph-name="quotesinglbase" unicode="&#x201a;" horiz-adv-x="331" 
d="M25 238h180q-29 -165 -106 -286t-228 -237l-55 47q92 114 135 213q38 88 74 263z" />
    <glyph glyph-name="uni201B" unicode="&#x201b;" horiz-adv-x="376" 
d="M231 1315q0 63 21 162h176q-35 -148 -35 -256q0 -119 45 -226l-65 -41q-142 175 -142 361z" />
    <glyph glyph-name="quotedblleft" unicode="&#x201c;" horiz-adv-x="681" 
d="M635 965h-166q29 161 102 282q67 114 222 238l53 -45q-92 -114 -135 -213q-42 -98 -76 -262zM317 965h-163q29 162 102 284q68 113 219 236l55 -45q-89 -112 -133 -207q-41 -89 -80 -268z" />
    <glyph glyph-name="quotedblright" unicode="&#x201d;" horiz-adv-x="681" 
d="M348 1477h166q-29 -161 -102 -285q-68 -113 -222 -236l-53 45q91 114 133 211q44 99 78 265zM666 1477h163q-26 -159 -100 -285q-69 -114 -221 -236l-55 45q89 112 133 207q41 89 80 269z" />
    <glyph glyph-name="quotedblbase" unicode="&#x201e;" horiz-adv-x="636" 
d="M29 238h164q-26 -158 -101 -283q-70 -119 -221 -240l-55 47q89 112 133 207q41 89 80 269zM344 238h164q-26 -160 -100 -283q-69 -118 -222 -240l-55 47q93 116 135 211q43 94 78 265z" />
    <glyph glyph-name="uni201F" unicode="&#x201f;" horiz-adv-x="681" 
d="M549 1307q0 76 20 170h162q-35 -169 -35 -252q0 -116 47 -230l-65 -41q-129 173 -129 353zM238 1307q0 76 20 170h162q-35 -169 -35 -252q0 -116 47 -230l-65 -41q-129 173 -129 353z" />
    <glyph glyph-name="dagger" unicode="&#x2020;" horiz-adv-x="493" 
d="M434 1186h-24l-11 -166l-116 -385h-33l53 385l64 166h-27l-139 -27l20 92l127 -26h29l14 213h103l-78 -213h26l142 26l-21 -92z" />
    <glyph glyph-name="daggerdbl" unicode="&#x2021;" horiz-adv-x="493" 
d="M502 883l-21 -95l-129 29h-26l-17 -215h-100l78 215h-29l-141 -29l22 95l127 -29h27l10 166l64 166h-27l-139 -27l20 92l127 -26h29l14 213h103l-78 -213h26l142 26l-21 -92l-129 27h-24l-11 -166l-65 -166h26z" />
    <glyph glyph-name="bullet" unicode="&#x2022;" horiz-adv-x="835" 
d="M461 463q-109 0 -187 78q-77 77 -77 186t77 186q78 78 187 78q108 0 186 -78t78 -186t-78 -186t-186 -78z" />
    <glyph glyph-name="uni2025" unicode="&#x2025;" horiz-adv-x="999" 
d="M504 0l51 238h190l-51 -238h-190zM4 0l51 238h191l-51 -238h-191z" />
    <glyph glyph-name="ellipsis" unicode="&#x2026;" horiz-adv-x="972" 
d="M655 227h183l-50 -227h-182zM330 227h182l-49 -227h-182zM6 227h182l-49 -227h-182z" />
    <glyph glyph-name="uni202F" unicode="&#x202f;" horiz-adv-x="256" 
 />
    <glyph glyph-name="guilsinglleft" unicode="&#x2039;" horiz-adv-x="550" 
d="M244 608l180 -364l-74 -49l-280 380l20 97l434 379l60 -58z" />
    <glyph glyph-name="guilsinglright" unicode="&#x203a;" horiz-adv-x="550" 
d="M524 672l-22 -97l-434 -380l-60 57l340 385l-178 367l72 47z" />
    <glyph glyph-name="fraction" unicode="&#x2044;" horiz-adv-x="243" 
d="M193 696l-510 -696h-105l555 737l510 697h105z" />
    <glyph glyph-name="uni2070" unicode="&#x2070;" horiz-adv-x="831" 
d="M733 932q-94 -94 -217 -94q-117 0 -188.5 84t-71.5 225q0 143 44.5 273.5t117.5 203.5q92 92 217 92q117 0 188.5 -84t71.5 -225q0 -144 -45 -272q-47 -133 -117 -203zM391 1145q0 -88 36 -139.5t97 -51.5q57 0 107 50t88 172q39 116 39 233q0 90 -35.5 140t-97.5 50
q-58 0 -107 -49q-48 -48 -90 -172q-37 -118 -37 -233z" />
    <glyph glyph-name="uni2074" unicode="&#x2074;" horiz-adv-x="800" 
d="M616 1141l99 448l-371 -448h272zM743 1143h123l-24 -109h-123l-39 -184h-129l39 184h-387l4 111l473 565h184z" />
    <glyph glyph-name="uni2075" unicode="&#x2075;" horiz-adv-x="753" 
d="M580 1382q94 0 152.5 -52t58.5 -136q0 -154 -153 -246.5t-441 -109.5l4 112q221 20 337.5 79.5t116.5 150.5q0 45 -30.5 71.5t-83.5 26.5q-76 0 -170 -47l-82 39l110 436h488l-25 -115h-370l-60 -233q76 24 148 24z" />
    <glyph glyph-name="uni2076" unicode="&#x2076;" horiz-adv-x="774" 
d="M817 1165q0 -138 -92 -233q-88 -94 -223 -94q-119 0 -187.5 75t-68.5 205q0 215 143 377q144 163 393 231l29 -114q-275 -84 -375 -262q71 32 162 32q100 0 159.5 -58.5t59.5 -158.5zM377 1112q0 -78 34.5 -121t96.5 -43q74 0 126 60t52 145q0 63 -36 96t-105 33
t-148 -29q-20 -70 -20 -141z" />
    <glyph glyph-name="uni2077" unicode="&#x2077;" horiz-adv-x="720" 
d="M887 1704l-27 -125l-495 -741l-119 63l469 682h-396l27 121h541z" />
    <glyph glyph-name="uni2078" unicode="&#x2078;" horiz-adv-x="790" 
d="M821 1100q0 -116 -87 -188t-226 -72q-129 0 -206 60.5t-77 162.5q0 88 54.5 154t150.5 92q-100 60 -100 168q0 104 81.5 170.5t209.5 66.5q118 0 191 -57.5t73 -151.5q0 -75 -49.5 -134.5t-135.5 -88.5q57 -26 89 -73.5t32 -108.5zM616 1610q-69 0 -114 -42.5t-45 -105.5
q0 -54 38 -86.5t101 -32.5q66 0 112 43.5t46 106.5q0 54 -38 85.5t-100 31.5zM537 1245q-74 0 -125.5 -49t-51.5 -121q0 -61 41 -96t113 -35q75 0 125.5 48.5t50.5 121.5q0 60 -42 95.5t-111 35.5z" />
    <glyph glyph-name="uni2079" unicode="&#x2079;" horiz-adv-x="774" 
d="M276 1391q0 136 91 233q91 94 225 94q119 0 187.5 -75t68.5 -205q0 -215 -143 -377q-145 -164 -394 -232l-28 115q273 84 374 262q-71 -32 -161 -32q-100 0 -160 59t-60 158zM717 1444q0 78 -34.5 121t-96.5 43q-74 0 -126 -60t-52 -145q0 -63 36 -96t105 -33
q68 0 147 29q21 73 21 141z" />
    <glyph glyph-name="uni2080" unicode="&#x2080;" horiz-adv-x="831" 
d="M485 -231q-95 -95 -217 -95q-117 0 -188.5 84.5t-71.5 225.5q0 143 44.5 273.5t117.5 203.5q92 92 217 92q117 0 188.5 -84t71.5 -225q0 -145 -45 -273q-46 -131 -117 -202zM143 -18q0 -88 36 -139.5t97 -51.5q58 0 107 49q50 50 88 172q39 116 39 234q0 90 -35.5 140
t-97.5 50q-58 0 -107 -49q-48 -48 -90 -172q-37 -118 -37 -233z" />
    <glyph glyph-name="uni2081" unicode="&#x2081;" horiz-adv-x="618" 
d="M365 547h90l-189 -860h-137l154 706l-203 -61l-19 117z" />
    <glyph glyph-name="uni2082" unicode="&#x2082;" horiz-adv-x="739" 
d="M123 -195h383l-27 -118h-545v100l388 358q71 66 99 108.5t28 80.5q0 44 -30.5 70t-84.5 26q-99 0 -221 -98l-47 106q128 113 288 113q105 0 169.5 -55.5t64.5 -145.5q0 -67 -42 -131.5t-145 -157.5z" />
    <glyph glyph-name="uni2083" unicode="&#x2083;" horiz-adv-x="741" 
d="M518 -49q0 -131 -152.5 -201.5t-447.5 -71.5l27 115q432 9 432 162q0 101 -248 121l16 92q161 37 237.5 82t76.5 102q0 39 -35.5 61.5t-97.5 22.5q-100 0 -213 -49l-31 105q121 59 264 59q117 0 185.5 -47t68.5 -129q0 -176 -283 -248q96 -13 148.5 -60.5t52.5 -115.5z
" />
    <glyph glyph-name="uni2084" unicode="&#x2084;" horiz-adv-x="800" 
d="M369 -23l98 449l-371 -449h273zM496 -20h122l-24 -109h-123l-39 -184h-129l39 184h-387l4 111l473 565h184z" />
    <glyph glyph-name="uni2085" unicode="&#x2085;" horiz-adv-x="753" 
d="M332 219q94 0 152.5 -52t58.5 -136q0 -154 -153 -247t-441 -110l4 113q221 20 338 79t117 150q0 45 -31 72t-84 27q-76 0 -170 -47l-82 38l111 437h487l-25 -115h-370l-60 -233q76 24 148 24z" />
    <glyph glyph-name="uni2086" unicode="&#x2086;" horiz-adv-x="774" 
d="M569 2q0 -138 -92 -233q-89 -95 -223 -95q-119 0 -187.5 75.5t-68.5 205.5q0 215 143 377q144 163 394 231l28 -114q-274 -84 -375 -263q73 33 162 33q100 0 159.5 -58.5t59.5 -158.5zM129 -51q0 -78 34.5 -121t96.5 -43q74 0 126 60t52 145q0 63 -36 96t-105 33
q-68 0 -147 -29q-21 -74 -21 -141z" />
    <glyph glyph-name="uni2087" unicode="&#x2087;" horiz-adv-x="720" 
d="M639 541l-27 -125l-495 -742l-119 64l469 682h-395l26 121h541z" />
    <glyph glyph-name="uni2088" unicode="&#x2088;" horiz-adv-x="790" 
d="M573 -63q0 -116 -87 -188.5t-226 -72.5q-129 0 -206 60.5t-77 163.5q0 88 54.5 153.5t150.5 91.5q-100 60 -100 168q0 104 82 171t209 67q118 0 191 -57.5t73 -151.5q0 -75 -49 -134.5t-135 -88.5q57 -26 88.5 -73.5t31.5 -108.5zM369 446q-69 0 -114.5 -42t-45.5 -105
q0 -54 38 -86.5t101 -32.5q66 0 112 43.5t46 106.5q0 54 -37.5 85t-99.5 31zM289 82q-74 0 -125 -49t-51 -121q0 -62 40.5 -96.5t112.5 -34.5q75 0 125.5 48.5t50.5 121.5q0 60 -42 95.5t-111 35.5z" />
    <glyph glyph-name="uni2089" unicode="&#x2089;" horiz-adv-x="774" 
d="M29 227q0 138 90 234q91 94 225 94q119 0 187.5 -75.5t68.5 -205.5q0 -214 -143 -376q-145 -164 -394 -232l-28 115q275 84 375 262q-73 -33 -162 -33q-100 0 -159.5 58.5t-59.5 158.5zM469 281q0 78 -34.5 120.5t-96.5 42.5q-74 0 -126 -59.5t-52 -144.5q0 -63 36 -96
t105 -33q72 0 148 28q20 70 20 142z" />
    <glyph glyph-name="uni20A6" unicode="&#x20a6;" horiz-adv-x="1312" 
d="M516 1206l-51 -241h102zM752 862l55 -272h147l58 272h-260zM444 862l-57 -272h260l-57 272h-146zM932 485h-103l52 -245zM1090 479l-103 -479h-213l-106 485h-301l-105 -485h-164l103 479h-142l27 117h141l56 258h-142l25 117h141l101 463h219l104 -469h301l101 469h163
l-100 -463h141l-24 -117h-142l-55 -258h141l-26 -117h-141z" />
    <glyph glyph-name="uni20A9" unicode="&#x20a9;" horiz-adv-x="1720" 
d="M999 1192l-96 -221h98zM1149 868l-2 -286h141l111 286h-250zM860 868l-125 -286h269l-3 286h-141zM459 868l-13 -286h142l125 286h-254zM1247 477h-100l-2 -260zM1409 471l-201 -481h-202l-5 487h-309l-215 -487h-201l9 481h-228l27 117h203l4 272h-150l27 119h125l8 455
h182l-16 -463h287l200 463h197v-463h287l182 463h188l-188 -455h127l-27 -119h-149l-115 -272h205l-25 -117h-227zM543 477h-101l-10 -258z" />
    <glyph glyph-name="dong" unicode="&#x20ab;" horiz-adv-x="1032" 
d="M254 360q0 -109 45.5 -168t130.5 -59q82 0 178 74l125 586q-83 77 -166 77q-96 0 -166 -73q-65 -65 -106 -189q-41 -121 -41 -248zM993 1165l-252 -1165h-141l-8 86q-116 -102 -238 -102q-125 0 -199.5 94.5t-74.5 255.5q0 170 54.5 325.5t146.5 247.5q110 113 256 113
q125 0 227 -88l49 233h-246l23 103h246l34 166h181l-35 -166h119l-23 -103h-119zM23 -139h690l-25 -103h-690z" />
    <glyph glyph-name="Euro" unicode="&#x20ac;" horiz-adv-x="1034" 
d="M858 172l-10 -166q-85 -18 -174 -18q-229 0 -352 131.5t-123 378.5h-146l25 116h125q9 84 33 197h-115l24 119h127q79 218 209 348q162 168 412 168q133 0 248 -47l-56 -168q-99 45 -204 45q-150 0 -273 -117q-81 -81 -141 -229h463l-25 -119h-477q-29 -103 -39 -197h473
l-24 -116h-453q9 -342 315 -342q67 0 158 16z" />
    <glyph glyph-name="uni20B1" unicode="&#x20b1;" horiz-adv-x="1191" 
d="M678 1274h-115l-61 -291h442q2 10 2 45q0 121 -68.5 183.5t-199.5 62.5zM926 879h-447l-61 -291h125q174 0 282 108q64 64 101 183zM528 430h-145l-92 -430h-193l189 872h-142l25 117h141l97 445h282q217 0 332 -101t115 -291q0 -43 -2 -53h135l-25 -117h-129
q-42 -169 -149 -276q-80 -80 -193 -123t-246 -43z" />
    <glyph glyph-name="uni20B9" unicode="&#x20b9;" horiz-adv-x="1040" 
d="M631 369l213 -365v-4h-223l-185 330q-51 91 -107.5 125t-154.5 34h-80l31 136h125q161 0 285 74.5t174 199.5h-525l27 125h520v6q0 125 -86 195.5t-239 70.5h-136l29 138h848l-29 -138h-344q148 -88 148 -266h139l-31 -137h-129q-38 -129 -151 -222t-281 -136
q94 -47 162 -166z" />
    <glyph glyph-name="uni20BA" unicode="&#x20ba;" horiz-adv-x="1064" 
d="M260 0h-160l103 479l-160 -82l29 131l159 82l45 207l-161 -82l28 131l162 82l105 486h192l-82 -383l422 221l-29 -131l-421 -221l-46 -205l422 219l-28 -131l-422 -221l-88 -406h16q190 0 333.5 113.5t209.5 316.5h121q-65 -286 -265 -446q-198 -160 -485 -160z" />
    <glyph glyph-name="uni20BD" unicode="&#x20bd;" horiz-adv-x="1134" 
d="M563 1272l-131 -615h113q206 0 319 113q50 50 78.5 123t28.5 151q0 112 -72 170t-209 58h-127zM367 352h483l-25 -116h-483l-51 -236h-193l52 236h-142l25 116h141l41 189h-141l24 116h144l168 777h307q215 0 331.5 -94t116.5 -267q0 -221 -143 -364q-162 -168 -485 -168
h-129z" />
    <glyph glyph-name="uni2117" unicode="&#x2117;" horiz-adv-x="1341" 
d="M592 -51q-218 0 -344 153q-127 154 -127 422q0 171 45 334t129 293q103 160 242 247t294 87q219 0 345 -156q127 -154 127 -422q0 -171 -45.5 -333.5t-129.5 -292.5q-103 -160 -242 -246t-294 -86zM1087 322q74 124 115 275t41 308q0 246 -110.5 385.5t-305.5 139.5
q-142 0 -269.5 -83t-221.5 -237q-74 -124 -115 -275.5t-41 -308.5q0 -246 110.5 -384t305.5 -138q142 0 269.5 82.5t221.5 235.5zM686 580h-86l-53 -248h-125l168 778h184q125 0 192.5 -56.5t67.5 -162.5q0 -137 -96.5 -224t-251.5 -87zM760 1008h-70l-67 -326h77
q93 0 151 56.5t58 144.5q0 125 -149 125z" />
    <glyph glyph-name="uni2120" unicode="&#x2120;" horiz-adv-x="978" 
d="M997 1327l-186 -344h-72l-37 344l-88 -344h-69l117 451h96l39 -344l184 344h104l-77 -451h-72zM397 1241q55 -31 79 -61t24 -68q0 -60 -45.5 -97.5t-118.5 -37.5q-89 0 -162 49l31 61q67 -47 139 -47q35 0 58.5 18.5t23.5 45.5q0 20 -16 38t-58 44q-53 29 -74.5 57
t-21.5 66q0 57 42.5 94t109.5 37q68 0 139 -39l-29 -64q-59 37 -115 37q-35 0 -54 -15t-19 -40q0 -20 15 -37.5t52 -40.5z" />
    <glyph glyph-name="trademark" unicode="&#x2122;" horiz-adv-x="960" 
d="M549 1366h-127l-84 -383h-74l82 383h-127l14 68h330zM981 1331l-188 -348h-72l-37 344l-88 -344h-70l117 451h96l39 -344l185 344h104l-78 -451h-71z" />
    <glyph glyph-name="onethird" unicode="&#x2153;" horiz-adv-x="1591" 
d="M526 1440h90l-188 -860h-137l153 706l-202 -61l-19 116zM797 696l-510 -696h-105l555 737l510 697h105zM1466 264q0 -131 -152.5 -201t-447.5 -71l27 114q432 9 432 162q0 101 -248 121l17 92q313 71 313 185q0 39 -35.5 61.5t-97.5 22.5q-98 0 -213 -50l-31 105
q121 59 264 59q117 0 185.5 -47t68.5 -129q0 -177 -282 -248q95 -13 147.5 -60t52.5 -116z" />
    <glyph glyph-name="twothirds" unicode="&#x2154;" horiz-adv-x="1769" 
d="M285 698h383l-27 -118h-545v100l387 358q71 66 99 108.5t28 80.5q0 45 -30 70.5t-84 25.5q-100 0 -222 -98l-47 106q128 113 289 113q105 0 169.5 -55.5t64.5 -145.5q0 -67 -42 -131.5t-145 -157.5zM975 696l-510 -696h-105l555 737l510 697h105zM1645 264
q0 -131 -153 -201t-448 -71l27 114q432 9 432 162q0 101 -248 121l17 92q313 71 313 185q0 39 -35.5 61.5t-97.5 22.5q-98 0 -213 -50l-31 105q121 59 265 59q117 0 185 -47t68 -129q0 -177 -282 -248q96 -13 148.5 -60.5t52.5 -115.5z" />
    <glyph glyph-name="uni2155" unicode="&#x2155;" horiz-adv-x="1583" 
d="M526 1440h90l-188 -860h-137l153 706l-202 -61l-19 116zM797 696l-510 -696h-105l555 737l510 697h105zM1260 532q94 0 152 -51.5t58 -136.5q0 -154 -152.5 -246.5t-440.5 -109.5l4 112q221 20 337.5 79.5t116.5 150.5q0 45 -30.5 71.5t-83.5 26.5q-76 0 -170 -47l-82 39
l110 436h488l-25 -115h-371l-59 -233q76 24 148 24z" />
    <glyph glyph-name="uni2156" unicode="&#x2156;" horiz-adv-x="1759" 
d="M285 698h383l-27 -118h-545v100l387 358q71 66 99 108.5t28 80.5q0 45 -30 70.5t-84 25.5q-100 0 -222 -98l-47 106q128 113 289 113q105 0 169.5 -55.5t64.5 -145.5q0 -67 -42 -131.5t-145 -157.5zM975 696l-510 -696h-105l555 737l510 697h105zM1436 532
q94 0 152.5 -52t58.5 -136q0 -154 -153 -246.5t-441 -109.5l4 112q221 20 337.5 79.5t116.5 150.5q0 45 -30.5 71.5t-83.5 26.5q-76 0 -170 -47l-82 39l110 436h488l-25 -115h-370l-60 -233q76 24 148 24z" />
    <glyph glyph-name="uni2157" unicode="&#x2157;" horiz-adv-x="1681" 
d="M680 844q0 -131 -152.5 -201.5t-447.5 -71.5l26 115q433 9 433 162q0 101 -248 121l16 92q161 37 237.5 82t76.5 102q0 39 -35.5 61.5t-98.5 22.5q-100 0 -213 -49l-30 104q123 60 264 60q117 0 185.5 -47t68.5 -129q0 -176 -283 -248q96 -13 148.5 -60.5t52.5 -115.5z
M895 696l-510 -696h-104l555 737l510 697h104zM1358 532q94 0 152.5 -52t58.5 -136q0 -154 -153 -246.5t-441 -109.5l4 112q221 20 338 79.5t117 150.5q0 45 -30.5 71.5t-84.5 26.5q-76 0 -170 -47l-82 39l111 436h487l-25 -115h-370l-60 -233q76 24 148 24z" />
    <glyph glyph-name="uni2158" unicode="&#x2158;" horiz-adv-x="1767" 
d="M530 870l99 449l-371 -449h272zM657 872h123l-24 -108h-123l-39 -184h-129l39 184h-387l4 110l473 566h184zM983 696l-510 -696h-104l555 737l510 697h104zM1444 532q94 0 152.5 -52t58.5 -136q0 -154 -153 -246.5t-441 -109.5l4 112q221 20 338 79.5t117 150.5
q0 45 -30.5 71.5t-84.5 26.5q-76 0 -170 -47l-82 39l111 436h487l-25 -115h-370l-60 -233q76 24 148 24z" />
    <glyph glyph-name="uni2159" unicode="&#x2159;" horiz-adv-x="1525" 
d="M526 1440h90l-188 -860h-137l153 706l-202 -61l-19 116zM797 696l-510 -696h-105l555 737l510 697h105zM1417 315q0 -138 -92 -233q-88 -94 -223 -94q-119 0 -187.5 75t-68.5 205q0 215 143 377q145 165 393 232l29 -115q-275 -84 -375 -262q71 32 162 32
q100 0 159.5 -58.5t59.5 -158.5zM977 262q0 -78 34.5 -121t96.5 -43q74 0 126 60t52 145q0 63 -36 96t-105 33t-148 -29q-20 -70 -20 -141z" />
    <glyph glyph-name="uni215A" unicode="&#x215a;" horiz-adv-x="1619" 
d="M494 1112q94 0 152.5 -52t58.5 -136q0 -154 -153 -247t-441 -110l4 113q221 20 337.5 79t116.5 150q0 45 -30.5 72t-83.5 27q-76 0 -170 -47l-82 38l110 437h488l-25 -115h-370l-60 -234q80 25 148 25zM891 696l-510 -696h-105l555 737l510 697h105zM1513 315
q0 -138 -92 -233q-88 -94 -223 -94q-119 0 -187.5 75t-68.5 205q0 215 143 377q145 164 394 232l28 -115q-273 -84 -374 -262q71 32 161 32q100 0 159.5 -58.5t59.5 -158.5zM1073 262q0 -78 34.5 -121t96.5 -43q74 0 126 60t52 145q0 63 -36 96t-105 33q-68 0 -147 -29
q-21 -74 -21 -141z" />
    <glyph glyph-name="uni215B" unicode="&#x215b;" horiz-adv-x="1595" 
d="M526 1440h90l-188 -860h-137l153 706l-202 -61l-19 116zM797 696l-510 -696h-105l555 737l510 697h105zM1475 250q0 -116 -87.5 -188t-226.5 -72q-129 0 -205.5 60t-76.5 163q0 88 54 154t150 92q-100 60 -100 168q0 104 81.5 170.5t209.5 66.5q118 0 191 -57.5
t73 -151.5q0 -75 -49 -134.5t-135 -88.5q57 -26 89 -73.5t32 -108.5zM1270 760q-69 0 -114.5 -42.5t-45.5 -105.5q0 -54 38 -86t101 -32q66 0 112 43t46 106q0 54 -37.5 85.5t-99.5 31.5zM1190 395q-74 0 -125 -49t-51 -121q0 -62 40.5 -96.5t112.5 -34.5q75 0 125.5 48.5
t50.5 121.5q0 60 -42 95.5t-111 35.5z" />
    <glyph glyph-name="uni215C" unicode="&#x215c;" horiz-adv-x="1693" 
d="M680 844q0 -131 -152.5 -201.5t-447.5 -71.5l26 115q433 9 433 162q0 101 -248 121l16 92q161 37 237.5 82t76.5 102q0 39 -35.5 61.5t-98.5 22.5q-100 0 -213 -49l-30 104q123 60 264 60q117 0 185.5 -47t68.5 -129q0 -176 -283 -248q96 -13 148.5 -60.5t52.5 -115.5z
M895 696l-510 -696h-104l555 737l510 697h104zM1575 250q0 -116 -87 -188t-226 -72q-129 0 -206 60.5t-77 162.5q0 88 54.5 154t150.5 92q-101 61 -101 168q0 104 81.5 170.5t209.5 66.5q118 0 191 -57.5t73 -151.5q0 -75 -49 -134.5t-135 -88.5q57 -26 89 -73.5t32 -108.5z
M1370 760q-69 0 -114.5 -42.5t-45.5 -105.5q0 -54 38.5 -86t101.5 -32q66 0 111.5 43t45.5 106q0 54 -37.5 85.5t-99.5 31.5zM1290 395q-74 0 -125 -49t-51 -121q0 -61 41 -96t113 -35q75 0 125.5 48.5t50.5 121.5q0 60 -42.5 95.5t-111.5 35.5z" />
    <glyph glyph-name="uni215D" unicode="&#x215d;" horiz-adv-x="1689" 
d="M494 1112q94 0 152.5 -52t58.5 -136q0 -154 -153 -247t-441 -110l4 113q221 20 337.5 79t116.5 150q0 45 -30.5 72t-83.5 27q-76 0 -170 -47l-82 38l110 437h488l-25 -115h-370l-60 -234q80 25 148 25zM891 696l-510 -696h-105l555 737l510 697h105zM1571 250
q0 -116 -87.5 -188t-226.5 -72q-129 0 -205.5 60t-76.5 163q0 88 54.5 154t150.5 92q-101 61 -101 168q0 104 81.5 170.5t209.5 66.5q118 0 191 -57.5t73 -151.5q0 -75 -49 -134.5t-135 -88.5q57 -26 89 -73.5t32 -108.5zM1366 760q-69 0 -114.5 -42.5t-45.5 -105.5
q0 -54 38.5 -86t101.5 -32q66 0 111.5 43t45.5 106q0 54 -37.5 85.5t-99.5 31.5zM1286 395q-74 0 -125 -49t-51 -121q0 -61 41 -96t113 -35q75 0 125.5 48.5t50.5 121.5q0 60 -42.5 95.5t-111.5 35.5z" />
    <glyph glyph-name="uni215E" unicode="&#x215e;" horiz-adv-x="1566" 
d="M801 1434l-27 -125l-495 -742l-119 64l469 682h-396l27 121h541zM768 696l-510 -696h-104l555 737l510 697h104zM1448 250q0 -116 -87 -188t-226 -72q-129 0 -206 60.5t-77 162.5q0 88 54.5 154t150.5 92q-101 61 -101 168q0 104 81.5 170.5t209.5 66.5q118 0 191 -57.5
t73 -151.5q0 -75 -49 -134.5t-135 -88.5q57 -26 89 -73.5t32 -108.5zM1243 760q-69 0 -114.5 -42.5t-45.5 -105.5q0 -54 38.5 -86t101.5 -32q66 0 111.5 43t45.5 106q0 54 -37.5 85.5t-99.5 31.5zM1163 395q-74 0 -125 -49t-51 -121q0 -61 41 -96t113 -35q75 0 125.5 48.5
t50.5 121.5q0 60 -42.5 95.5t-111.5 35.5z" />
    <glyph glyph-name="uni2190" unicode="&#x2190;" horiz-adv-x="1898" 
d="M1026 657l-664 19l463 -369l-102 -117l-571 498v96l571 500l102 -119l-465 -368l666 20h782v-160h-782z" />
    <glyph glyph-name="uni2191" unicode="&#x2191;" horiz-adv-x="1038" 
d="M920 866l-273 375l19 -666v-581h-160v581l18 668l-272 -377l-115 88l400 502h96l399 -502z" />
    <glyph glyph-name="uni2192" unicode="&#x2192;" horiz-adv-x="1898" 
d="M1812 784v-96l-571 -498l-100 117l461 369l-664 -19h-782v160h782l666 -20l-463 368l100 119z" />
    <glyph glyph-name="uni2193" unicode="&#x2193;" horiz-adv-x="1038" 
d="M864 567l115 -88l-401 -502h-95l-399 502l113 88l272 -374l-18 665v582h159v-582l-18 -668z" />
    <glyph glyph-name="minus" unicode="&#x2212;" horiz-adv-x="999" 
d="M150 805h819l-35 -156h-819z" />
    <glyph glyph-name="approxequal" unicode="&#x2248;" horiz-adv-x="999" 
d="M754 926q35 0 69 33.5t78 111.5l107 -45q-69 -131 -129.5 -190.5t-126.5 -59.5q-39 0 -76.5 15.5t-108.5 62.5q-63 39 -92 52.5t-55 13.5q-32 0 -65 -32t-76 -104l-103 45q66 125 125.5 183.5t120.5 58.5q37 0 74 -15.5t110 -62.5q66 -42 94.5 -54.5t53.5 -12.5zM678 541
q32 0 65 31.5t76 103.5l103 -45q-66 -125 -125.5 -183.5t-120.5 -58.5q-37 0 -72 14.5t-112 63.5q-60 40 -90.5 54t-57.5 14q-35 0 -67 -32.5t-80 -113.5l-107 47q73 133 132 191.5t124 58.5q37 0 72 -14.5t112 -63.5q60 -40 90.5 -53.5t57.5 -13.5z" />
    <glyph glyph-name="notequal" unicode="&#x2260;" horiz-adv-x="999" 
d="M514 606h397l-30 -135h-461l-160 -213h-131l158 213h-195l31 135h270l180 242h-399l31 135h463l157 213h131l-157 -213h194l-30 -135h-269z" />
    <glyph glyph-name="uni237F" unicode="&#x237f;" horiz-adv-x="858" 
d="M487 471l-151 -704h-135l155 725q-72 31 -113.5 94t-41.5 141q0 108 75 180q76 76 185 76h2l145 678h137l-151 -700q69 -31 110 -95t41 -139q0 -107 -75 -182q-74 -74 -183 -74z" />
    <glyph glyph-name="triagup" unicode="&#x25b2;" horiz-adv-x="1378" 
d="M694 1458l566 -1438v-20h-1170v20l567 1438h37z" />
    <glyph glyph-name="uni25B6" unicode="&#x25b6;" horiz-adv-x="1591" 
d="M276 -25l-16 9v1466l16 8l1233 -723v-37z" />
    <glyph glyph-name="triagdn" unicode="&#x25bc;" horiz-adv-x="1378" 
d="M764 -25l-567 1438v21h1169v-21l-565 -1438h-37z" />
    <glyph glyph-name="uni25C0" unicode="&#x25c0;" horiz-adv-x="1591" 
d="M1378 1458l17 -8v-1466l-17 -9l-1233 723v37z" />
    <glyph glyph-name="uniA788" unicode="&#xa788;" horiz-adv-x="1024" 
d="M569 -330h-108l-99 135l-155 -135h-121l225 238h140z" />
    <glyph glyph-name="guillemotleft.cap" horiz-adv-x="911" 
d="M629 721l180 -363l-72 -49l-282 373l18 94l436 389l62 -57zM270 729l179 -371l-74 -49l-281 381l21 96l434 379l59 -57z" />
    <glyph glyph-name="guillemotright.cap" horiz-adv-x="911" 
d="M909 786l-22 -96l-434 -381l-60 58l340 381l-178 370l72 47zM549 793l-21 -93l-436 -391l-59 58l342 387l-180 364l71 47z" />
    <glyph glyph-name="guilsinglleft.cap" horiz-adv-x="550" 
d="M268 723l181 -365l-74 -49l-281 381l21 96l434 379l59 -57z" />
    <glyph glyph-name="guilsinglright.cap" horiz-adv-x="550" 
d="M549 786l-23 -96l-434 -381l-59 58l340 385l-178 366l71 47z" />
    <glyph glyph-name="parenleft.cap" horiz-adv-x="692" 
d="M297 510q0 -319 219 -576l-92 -88q-141 137 -220 312.5t-79 355.5q0 328 172 606q179 285 487 463l64 -102q-265 -185 -408 -437q-143 -253 -143 -534z" />
    </font>
</defs>
</svg>
